<svg id="Layer_1" data-name="Layer 1" xmlns="http://www.w3.org/2000/svg" viewBox="0 0 348.7 233.9"><defs><style>.cls-1{fill:#80161a;}.cls-2{fill:#fff;}</style></defs><title>scientificnet</title><g id="Layer_1-2" data-name="Layer_1"><g id="_1848318594960" data-name=" 1848318594960"><rect class="cls-1" width="348.7" height="233.9"/><g id="Layer_1-3" data-name="Layer_1"><g id="_2118523861680" data-name=" 2118523861680"><g id="g11"><path id="path7" class="cls-2" d="M75.76,122.46l3.48-.32,0,.93a5.64,5.64,0,0,0,.7,2.81,4.59,4.59,0,0,0,2.3,2,9.49,9.49,0,0,0,3.87.7,7.32,7.32,0,0,0,4.85-1.4A4.14,4.14,0,0,0,92.59,124a3.63,3.63,0,0,0-.89-2.3c-.61-.67-2.24-1.56-4.92-2.75a35.84,35.84,0,0,1-4.25-2,8.33,8.33,0,0,1-2.62-2.56,5.9,5.9,0,0,1-.86-3.16,6.41,6.41,0,0,1,1.12-3.67A7.15,7.15,0,0,1,83.46,105a12.94,12.94,0,0,1,4.85-.86,12,12,0,0,1,5.43,1.09A7.1,7.1,0,0,1,97,108.05a7.18,7.18,0,0,1,1,3.45v.55l-3.42.25a6,6,0,0,0-.19-1.72,4.78,4.78,0,0,0-1.12-1.89,5.67,5.67,0,0,0-2.07-1.21,8.84,8.84,0,0,0-3-.45,6.94,6.94,0,0,0-4.47,1.28A3.22,3.22,0,0,0,82.5,111a3,3,0,0,0,.51,1.76,4.91,4.91,0,0,0,1.79,1.5c.64.35,2.11,1,4.44,2.08a26.13,26.13,0,0,1,3.93,2,7,7,0,0,1,2.24,2.33,6.11,6.11,0,0,1,.76,3.1,6.65,6.65,0,0,1-1.31,3.93,8.2,8.2,0,0,1-3.61,2.81,13.19,13.19,0,0,1-5.3,1,12.56,12.56,0,0,1-7.32-1.95C76.72,128.21,75.79,125.85,75.76,122.46ZM112.27,124l3.29.32a10.79,10.79,0,0,1-3.48,5.33,8.32,8.32,0,0,1-5.17,1.73,6.76,6.76,0,0,1-5.08-2,7.82,7.82,0,0,1-1.92-5.62,16,16,0,0,1,1.25-6.17,9.94,9.94,0,0,1,3.54-4.6,9.3,9.3,0,0,1,5.31-1.59,6.75,6.75,0,0,1,4.92,1.75,6.15,6.15,0,0,1,1.78,4.6l-3.22.23a3.58,3.58,0,0,0-3.8-3.87,5.14,5.14,0,0,0-3.42,1.25,8.38,8.38,0,0,0-2.27,3.77,16,16,0,0,0-.8,4.85,5.31,5.31,0,0,0,1.09,3.68,3.32,3.32,0,0,0,2.65,1.24A4.81,4.81,0,0,0,110,127.7,8,8,0,0,0,112.27,124Zm10-15.79.77-3.7h3.26l-.8,3.7ZM117.48,131l4-19.2h3.26l-4,19.2Zm22.4-6.51,3.16.28a9.62,9.62,0,0,1-3.13,4.51,8.84,8.84,0,0,1-5.91,2.11,8.07,8.07,0,0,1-3.9-1,6.51,6.51,0,0,1-2.71-2.88,9.23,9.23,0,0,1-.93-4.28,13.76,13.76,0,0,1,1.44-6.07,10.65,10.65,0,0,1,3.77-4.38,9.37,9.37,0,0,1,5-1.43,7.34,7.34,0,0,1,5.5,2.14,7.94,7.94,0,0,1,2,5.78,18.09,18.09,0,0,1-.25,2.88H129.81a6.17,6.17,0,0,0-.06,1,6.1,6.1,0,0,0,1.21,4.12,4,4,0,0,0,3.07,1.4,5.78,5.78,0,0,0,3.29-1.08A7.3,7.3,0,0,0,139.88,124.51Zm-9.56-4.8h10.8a5.8,5.8,0,0,0,0-.73,5.18,5.18,0,0,0-1.25-3.74,4.12,4.12,0,0,0-3.16-1.31,5.85,5.85,0,0,0-3.84,1.44A8.67,8.67,0,0,0,130.32,119.71Zm16,11.31,4-19.2h3l-.68,3.36a15.34,15.34,0,0,1,3.65-2.88,7.57,7.57,0,0,1,3.45-.89,5.25,5.25,0,0,1,3.7,1.27,4.44,4.44,0,0,1,1.35,3.39,16.35,16.35,0,0,1-.52,3.36L161.67,131h-3.23l2.68-12.14a13.44,13.44,0,0,0,.39-2.62,1.93,1.93,0,0,0-.67-1.53,2.73,2.73,0,0,0-2-.61,6.68,6.68,0,0,0-4.54,1.79c-1.34,1.22-2.33,3.26-2.94,6.17L149.56,131Zm28.21-2.65L174,131a8.22,8.22,0,0,1-2.27.32,4.67,4.67,0,0,1-3.1-1,2.42,2.42,0,0,1-.86-2,17.68,17.68,0,0,1,.44-2.9l2.34-11.15h-2.59l.51-2.53H171l1-4.69,3.74-2.24-1.47,6.93h3.22l-.57,2.53h-3.17L171.54,125a19,19,0,0,0-.38,2.43,1.22,1.22,0,0,0,.31.9,1.68,1.68,0,0,0,1.09.28A8.83,8.83,0,0,0,174.51,128.37Zm7.35-20.13.76-3.7h3.26l-.76,3.7ZM177.1,131l4-19.2h3.23l-4,19.2Zm8.62,0,3.52-16.67h-2.88l.55-2.53h2.87l.58-2.71a11.57,11.57,0,0,1,.89-2.94,3.42,3.42,0,0,1,1.47-1.47,5.47,5.47,0,0,1,2.84-.61,18.53,18.53,0,0,1,3.61.54l-.6,2.85a11.43,11.43,0,0,0-2.78-.42,2.08,2.08,0,0,0-1.47.48,4.51,4.51,0,0,0-.83,2.24l-.45,2h3.67l-.51,2.53h-3.7L189,131Zm14.64-22.78.76-3.7h3.23l-.77,3.7ZM195.56,131l4-19.2h3.26l-4,19.2Zm21.51-7,3.29.32a10.84,10.84,0,0,1-3.52,5.33,8.26,8.26,0,0,1-5.14,1.73,6.71,6.71,0,0,1-5.08-2,7.7,7.7,0,0,1-2-5.62,15.86,15.86,0,0,1,1.25-6.17,9.8,9.8,0,0,1,3.57-4.6,9.26,9.26,0,0,1,5.31-1.59,6.68,6.68,0,0,1,4.88,1.75,6,6,0,0,1,1.83,4.6l-3.23.23a3.76,3.76,0,0,0-1.06-2.85,3.82,3.82,0,0,0-2.74-1,5.08,5.08,0,0,0-3.42,1.25,8.12,8.12,0,0,0-2.27,3.77A16,16,0,0,0,208,124a5.31,5.31,0,0,0,1.09,3.68,3.44,3.44,0,0,0,2.68,1.24,4.69,4.69,0,0,0,3-1.21A8.29,8.29,0,0,0,217.07,124Z" transform="translate(0 0)"/><path id="path9" class="cls-2" d="M223.23,131l.77-3.7h3.7l-.79,3.7Zm9.71,0,5.56-26.48h3.71l4.38,9.93c1.31,3,2.36,5.59,3.16,7.67q.67,1.83,1.53,4.89c.35-2.27.8-4.57,1.28-6.93l3.23-15.56h3.45L253.71,131h-3.55l-6.39-15.3q-1.72-4.08-2.84-7.57c-.25,2-.64,4.25-1.15,6.74L236.39,131Zm40.45-6.51,3.2.28a10,10,0,0,1-3.17,4.51,8.82,8.82,0,0,1-5.88,2.11,8.16,8.16,0,0,1-3.93-1,6.74,6.74,0,0,1-2.71-2.88,9.62,9.62,0,0,1-.93-4.28,13.76,13.76,0,0,1,1.44-6.07,10.72,10.72,0,0,1,3.77-4.38,9.51,9.51,0,0,1,5-1.43,7.3,7.3,0,0,1,5.49,2.14,7.94,7.94,0,0,1,2.05,5.78,18,18,0,0,1-.23,2.88H263.33a9.72,9.72,0,0,0-.07,1,6.11,6.11,0,0,0,1.25,4.12,3.93,3.93,0,0,0,3,1.4,5.93,5.93,0,0,0,3.33-1.08A7.3,7.3,0,0,0,273.39,124.51Zm-9.52-4.8h10.8V119a5.13,5.13,0,0,0-1.22-3.74,4.21,4.21,0,0,0-3.16-1.31,5.84,5.84,0,0,0-3.83,1.44A8.4,8.4,0,0,0,263.87,119.71Zm23.61,8.66-.54,2.65a8.27,8.27,0,0,1-2.3.32,4.78,4.78,0,0,1-3.1-1,2.52,2.52,0,0,1-.87-2,19.82,19.82,0,0,1,.48-2.9l2.34-11.15H280.9l.51-2.53H284l1-4.69,3.74-2.24-1.47,6.93h3.22l-.57,2.53h-3.17L284.51,125a23.4,23.4,0,0,0-.42,2.43,1.24,1.24,0,0,0,.35.9,1.68,1.68,0,0,0,1.09.28A8.83,8.83,0,0,0,287.48,128.37Z" transform="translate(0 0)"/></g><polygon id="polygon13" class="cls-2" points="80.64 148.15 80.64 135.11 93.68 135.11 93.68 148.15 80.64 148.15"/><polygon id="polygon15" class="cls-2" points="80.64 98.56 80.64 85.5 93.68 85.5 93.68 98.56 80.64 98.56"/><polygon id="polygon17" class="cls-2" points="58.22 123.93 58.22 110.9 71.25 110.9 71.25 123.93 58.22 123.93"/><path id="path19" class="cls-2" d="M99.72,145.85v-8.79H103a3.72,3.72,0,0,1,1.6.29,2,2,0,0,1,1,.8,2.21,2.21,0,0,1,.36,1.15,2,2,0,0,1-.32,1.08,2.36,2.36,0,0,1-.9.8,2.34,2.34,0,0,1,1.22.77,2.2,2.2,0,0,1,.41,1.34,2.73,2.73,0,0,1-.25,1.15,2.08,2.08,0,0,1-.64.8,2.85,2.85,0,0,1-1,.45,6.16,6.16,0,0,1-1.41.16Zm1.15-5.08h1.92a4,4,0,0,0,1.08-.13,1,1,0,0,0,.67-.42,1.24,1.24,0,0,0,.23-.76,1.42,1.42,0,0,0-.2-.77,1.34,1.34,0,0,0-.6-.48,6.09,6.09,0,0,0-1.34-.13h-1.76Zm0,4h2.2a4.91,4.91,0,0,0,.77,0,1.7,1.7,0,0,0,.67-.22A1.24,1.24,0,0,0,105,144a1.34,1.34,0,0,0,.19-.74,1.58,1.58,0,0,0-.26-.86,1.41,1.41,0,0,0-.7-.51,4.32,4.32,0,0,0-1.28-.13h-2Zm7.7,3.49-.13-1a2.79,2.79,0,0,0,.64.09,1.41,1.41,0,0,0,.57-.13,1.08,1.08,0,0,0,.36-.32c.06-.12.16-.38.32-.83a.65.65,0,0,0,.09-.25l-2.4-6.36h1.15l1.31,3.67q.24.68.48,1.44a10.34,10.34,0,0,1,.42-1.4l1.37-3.71h1.06l-2.4,6.45a8.05,8.05,0,0,1-.61,1.44,2.3,2.3,0,0,1-.63.77,1.66,1.66,0,0,1-.9.25A2,2,0,0,1,108.57,148.28Zm12.52-2.43v-7.77h-2.87v-1h6.93v1h-2.88v7.77Zm5.5,0v-6.36h1v1a3.08,3.08,0,0,1,.67-.9,1.41,1.41,0,0,1,.7-.19,2.28,2.28,0,0,1,1.12.32l-.39,1a1.81,1.81,0,0,0-.79-.22,1,1,0,0,0-.61.22,1.32,1.32,0,0,0-.42.58,4.18,4.18,0,0,0-.19,1.27v3.33Zm9-.8a3.86,3.86,0,0,1-1.15.7,2.89,2.89,0,0,1-1.18.23,2.32,2.32,0,0,1-1.6-.52,1.68,1.68,0,0,1-.58-1.31,1.58,1.58,0,0,1,.23-.86,1.77,1.77,0,0,1,.54-.61,2.87,2.87,0,0,1,.77-.35c.22-.06.54-.09,1-.16a10.1,10.1,0,0,0,1.94-.35v-.29a1.06,1.06,0,0,0-.32-.92,1.64,1.64,0,0,0-1.21-.39,1.77,1.77,0,0,0-1.12.29,1.43,1.43,0,0,0-.54.93l-1.05-.13a2.44,2.44,0,0,1,.47-1.09,1.93,1.93,0,0,1,1-.63,3.92,3.92,0,0,1,1.44-.23,3.86,3.86,0,0,1,1.31.19,1.82,1.82,0,0,1,.77.48,1.63,1.63,0,0,1,.32.74,6.28,6.28,0,0,1,.06,1v1.4c0,1,0,1.63.06,1.92a2.6,2.6,0,0,0,.26.77h-1.12A3.5,3.5,0,0,1,135.63,145.05Zm-.07-2.4a9.57,9.57,0,0,1-1.75.42,6.09,6.09,0,0,0-1,.19,1,1,0,0,0-.42.35,1,1,0,0,0-.16.51.9.9,0,0,0,.32.71,1.46,1.46,0,0,0,1,.28,2.5,2.5,0,0,0,1.12-.25,1.9,1.9,0,0,0,.7-.74,2.37,2.37,0,0,0,.19-1.08Zm3.55,3.2v-6.36h1v.89a2.21,2.21,0,0,1,2-1,3,3,0,0,1,1.06.19,1.52,1.52,0,0,1,.7.55,2,2,0,0,1,.35.8,6.7,6.7,0,0,1,.07,1v3.93H143.2V142a2.53,2.53,0,0,0-.13-1,1,1,0,0,0-.44-.51,1.34,1.34,0,0,0-.74-.19,1.7,1.7,0,0,0-1.18.41,2.14,2.14,0,0,0-.51,1.67v3.48Zm7.22-1.92,1.06-.16a1.38,1.38,0,0,0,.51,1,1.57,1.57,0,0,0,1.15.35,1.68,1.68,0,0,0,1.08-.29.91.91,0,0,0,.39-.7.61.61,0,0,0-.36-.57,4.2,4.2,0,0,0-1.08-.39,7.52,7.52,0,0,1-1.63-.51,1.45,1.45,0,0,1-.7-.61,1.53,1.53,0,0,1-.23-.83,1.88,1.88,0,0,1,.19-.8,1.85,1.85,0,0,1,.52-.6,1.87,1.87,0,0,1,.7-.29,2.72,2.72,0,0,1,.93-.13,4.38,4.38,0,0,1,1.3.19,2,2,0,0,1,.84.61,2.5,2.5,0,0,1,.35,1l-1.06.16a1,1,0,0,0-.41-.77,1.47,1.47,0,0,0-1-.29,1.85,1.85,0,0,0-1.06.26.76.76,0,0,0-.31.58,1,1,0,0,0,.12.38,1.11,1.11,0,0,0,.42.25,4.74,4.74,0,0,0,1,.29,13.2,13.2,0,0,1,1.59.51,1.46,1.46,0,0,1,1,1.47,1.69,1.69,0,0,1-.32,1,2.05,2.05,0,0,1-.89.74,3.72,3.72,0,0,1-1.34.26,3.11,3.11,0,0,1-1.89-.52A2.4,2.4,0,0,1,146.33,143.93Zm12.91,1.92v-7.77h-2.88v-1h6.94v1h-2.88v7.77Zm8.91-2.08,1.12.16a2.71,2.71,0,0,1-1,1.5,3,3,0,0,1-1.82.55,2.85,2.85,0,0,1-2.2-.87,3.29,3.29,0,0,1-.8-2.39,3.53,3.53,0,0,1,.8-2.5,2.84,2.84,0,0,1,2.14-.86,2.7,2.7,0,0,1,2.07.86,3.37,3.37,0,0,1,.8,2.43v.29h-4.73a2.41,2.41,0,0,0,.61,1.6,1.76,1.76,0,0,0,1.31.54,1.49,1.49,0,0,0,1-.32A1.91,1.91,0,0,0,168.15,143.77Zm-3.51-1.72h3.54a2.16,2.16,0,0,0-.41-1.19,1.71,1.71,0,0,0-1.34-.64,1.67,1.67,0,0,0-1.25.52A1.94,1.94,0,0,0,164.64,142.05Zm11,1.47,1.05.12a2.86,2.86,0,0,1-.86,1.73A2.82,2.82,0,0,1,174,146a2.77,2.77,0,0,1-2.11-.87,3.5,3.5,0,0,1-.76-2.43,4.39,4.39,0,0,1,.31-1.78,2.29,2.29,0,0,1,1.06-1.15,3,3,0,0,1,1.5-.39,2.6,2.6,0,0,1,1.69.51,2.29,2.29,0,0,1,.83,1.47l-1,.16a1.81,1.81,0,0,0-.54-1,1.33,1.33,0,0,0-.93-.32,1.69,1.69,0,0,0-1.31.58,2.73,2.73,0,0,0-.51,1.85,2.88,2.88,0,0,0,.48,1.86,1.66,1.66,0,0,0,1.28.57,1.55,1.55,0,0,0,1.08-.38A2,2,0,0,0,175.6,143.52Zm2.81,2.33v-8.79h1.08v3.16a2.37,2.37,0,0,1,1.89-.86,2.51,2.51,0,0,1,1.21.26,1.55,1.55,0,0,1,.74.76,3.39,3.39,0,0,1,.22,1.44v4h-1.09v-4a1.77,1.77,0,0,0-.31-1.18,1.3,1.3,0,0,0-1-.35,1.79,1.79,0,0,0-.9.22,1.75,1.75,0,0,0-.61.67,3.19,3.19,0,0,0-.16,1.19v3.48Zm11.15,0v-8.79h3.32a6.63,6.63,0,0,1,1.34.1,2.48,2.48,0,0,1,1.09.41,2.22,2.22,0,0,1,.7.83,2.92,2.92,0,0,1,.26,1.19,2.74,2.74,0,0,1-.71,1.88,3.35,3.35,0,0,1-2.58.8h-2.24v3.58Zm1.18-4.6H193a2.39,2.39,0,0,0,1.6-.45,1.54,1.54,0,0,0,.44-1.15,1.8,1.8,0,0,0-.25-1,1.53,1.53,0,0,0-.74-.51,4.21,4.21,0,0,0-1.08-.1h-2.24Zm11.82,4.6v-1a2.34,2.34,0,0,1-2,1.09,2.71,2.71,0,0,1-1-.23,2,2,0,0,1-.74-.54,2.13,2.13,0,0,1-.32-.8,4.19,4.19,0,0,1-.06-1v-3.93h1.05V143a3.94,3.94,0,0,0,.1,1.12,1,1,0,0,0,.41.67,1.34,1.34,0,0,0,.8.26,2,2,0,0,0,.93-.26,1.29,1.29,0,0,0,.57-.67,3.13,3.13,0,0,0,.19-1.24v-3.39h1.09v6.36Zm4.47,0h-1v-8.79h1.09v3.13a2.07,2.07,0,0,1,1.72-.83,2.68,2.68,0,0,1,1.12.23,2.31,2.31,0,0,1,.87.67,3,3,0,0,1,.51,1,4.35,4.35,0,0,1,.19,1.28,3.65,3.65,0,0,1-.8,2.52,2.57,2.57,0,0,1-1.92.9,2.07,2.07,0,0,1-1.79-1Zm0-3.23a3.07,3.07,0,0,0,.32,1.63,1.54,1.54,0,0,0,2.59.22,2.74,2.74,0,0,0,.51-1.82,2.81,2.81,0,0,0-.48-1.82,1.52,1.52,0,0,0-1.21-.61,1.6,1.6,0,0,0-1.22.61A2.67,2.67,0,0,0,207,142.62Zm6.65,3.23v-8.79h1v8.79Zm3.54-7.54v-1.25h1.09v1.25Zm0,7.54v-6.36h1.09v6.36Zm7.7-2.33,1.06.12a2.85,2.85,0,0,1-.9,1.73,2.71,2.71,0,0,1-1.75.61,2.68,2.68,0,0,1-2.08-.87,3.52,3.52,0,0,1-.8-2.43,4.38,4.38,0,0,1,.35-1.78,2.37,2.37,0,0,1,1-1.15,3.14,3.14,0,0,1,1.53-.39,2.66,2.66,0,0,1,1.69.51,2.42,2.42,0,0,1,.83,1.47l-1,.16a1.85,1.85,0,0,0-.51-1,1.4,1.4,0,0,0-.93-.32,1.65,1.65,0,0,0-1.31.58,2.73,2.73,0,0,0-.51,1.85,2.88,2.88,0,0,0,.48,1.86,1.62,1.62,0,0,0,1.28.57,1.56,1.56,0,0,0,1-.38A1.77,1.77,0,0,0,224.92,143.52Zm6.94,1.53a3.86,3.86,0,0,1-1.15.7,2.89,2.89,0,0,1-1.18.23,2.38,2.38,0,0,1-1.6-.52,1.65,1.65,0,0,1-.58-1.31,1.58,1.58,0,0,1,.23-.86,1.67,1.67,0,0,1,.54-.61,2.87,2.87,0,0,1,.77-.35c.22-.06.54-.09,1-.16a10.08,10.08,0,0,0,1.95-.35v-.29a1.06,1.06,0,0,0-.32-.92,1.64,1.64,0,0,0-1.21-.39,1.77,1.77,0,0,0-1.12.29,1.39,1.39,0,0,0-.54.93l-1.06-.13a2.56,2.56,0,0,1,.48-1.09,1.93,1.93,0,0,1,1-.63,4,4,0,0,1,1.44-.23,3.86,3.86,0,0,1,1.31.19,1.82,1.82,0,0,1,.77.48,1.63,1.63,0,0,1,.32.74,6.28,6.28,0,0,1,.06,1v1.4c0,1,0,1.63.06,1.92a2.6,2.6,0,0,0,.26.77h-1.12A3.5,3.5,0,0,1,231.86,145.05Zm-.07-2.4a9,9,0,0,1-1.75.42,6.09,6.09,0,0,0-1,.19,1,1,0,0,0-.42.35,1,1,0,0,0-.16.51,1,1,0,0,0,.32.71,1.46,1.46,0,0,0,1,.28,2.5,2.5,0,0,0,1.12-.25,1.9,1.9,0,0,0,.7-.74,2.37,2.37,0,0,0,.19-1.08Zm5.91,2.21.13,1a4.08,4.08,0,0,1-.8.09,1.66,1.66,0,0,1-.89-.19,1.17,1.17,0,0,1-.48-.48,4.74,4.74,0,0,1-.13-1.28v-3.64h-.8v-.83h.8v-1.57l1.09-.67v2.24h1.08v.83h-1.08V144a2.13,2.13,0,0,0,.06.6.31.31,0,0,0,.19.2.54.54,0,0,0,.35.09A3.46,3.46,0,0,0,237.7,144.86Zm1.89-6.55v-1.25h1.09v1.25Zm0,7.54v-6.36h1.09v6.36Zm3.13-3.2a3.15,3.15,0,0,1,1-2.59,2.92,2.92,0,0,1,2-.7,2.77,2.77,0,0,1,2.14.83,3.2,3.2,0,0,1,.83,2.37,4.36,4.36,0,0,1-.35,1.91,2.79,2.79,0,0,1-1.09,1.12,3,3,0,0,1-1.53.39,2.83,2.83,0,0,1-2.14-.87A3.42,3.42,0,0,1,242.72,142.65Zm1.12,0a2.64,2.64,0,0,0,.51,1.82,1.78,1.78,0,0,0,2.68,0,2.78,2.78,0,0,0,.55-1.85,2.73,2.73,0,0,0-.55-1.79,1.78,1.78,0,0,0-2.68,0A2.76,2.76,0,0,0,243.84,142.65Zm6.93,3.2v-6.36h1v.89a2.28,2.28,0,0,1,2-1,3,3,0,0,1,1.06.19,1.61,1.61,0,0,1,.73.55,1.92,1.92,0,0,1,.32.8,7.09,7.09,0,0,1,.06,1v3.93h-1.08V142a2.53,2.53,0,0,0-.13-1,.86.86,0,0,0-.45-.51,1.28,1.28,0,0,0-.73-.19,1.75,1.75,0,0,0-1.18.41,2.26,2.26,0,0,0-.51,1.67v3.48Zm7.19-1.92,1.05-.16a1.6,1.6,0,0,0,.51,1,1.7,1.7,0,0,0,1.15.35,1.79,1.79,0,0,0,1.12-.29,1,1,0,0,0,.35-.7.64.64,0,0,0-.31-.57,5.62,5.62,0,0,0-1.12-.39,8.88,8.88,0,0,1-1.63-.51,1.48,1.48,0,0,1-.71-.61,1.52,1.52,0,0,1-.22-.83,1.74,1.74,0,0,1,.19-.8,2,2,0,0,1,.55-.6,1.54,1.54,0,0,1,.67-.29,2.77,2.77,0,0,1,.92-.13,4.26,4.26,0,0,1,1.31.19,1.88,1.88,0,0,1,.83.61,2.36,2.36,0,0,1,.39,1l-1.06.16a1.29,1.29,0,0,0-.41-.77,1.56,1.56,0,0,0-1-.29,1.85,1.85,0,0,0-1.06.26.77.77,0,0,0-.32.58.73.73,0,0,0,.16.38,1,1,0,0,0,.39.25,5.33,5.33,0,0,0,.95.29,12.91,12.91,0,0,1,1.6.51,1.72,1.72,0,0,1,.71.55,1.48,1.48,0,0,1,.25.92,1.69,1.69,0,0,1-.32,1,2.05,2.05,0,0,1-.89.74,3.49,3.49,0,0,1-1.35.26,3.14,3.14,0,0,1-1.88-.52A2.55,2.55,0,0,1,258,143.93Zm10.86,1.92v-8.79H270v7.73h4.32v1.06Zm9.87-1,.16,1a4,4,0,0,1-.8.09,1.78,1.78,0,0,1-.92-.19,1.37,1.37,0,0,1-.45-.48,3.73,3.73,0,0,1-.13-1.28v-3.64h-.8v-.83h.8v-1.57l1.09-.67v2.24h1.05v.83h-1.05V144a2.68,2.68,0,0,0,0,.6.74.74,0,0,0,.19.2.75.75,0,0,0,.39.09A3.93,3.93,0,0,0,278.69,144.86Zm6,1V145a2,2,0,0,1-1.79,1,2.51,2.51,0,0,1-1.37-.42,2.55,2.55,0,0,1-1-1.18,4,4,0,0,1-.35-1.73,4.35,4.35,0,0,1,.32-1.72,2.32,2.32,0,0,1,1-1.18,2.65,2.65,0,0,1,1.41-.39,2.18,2.18,0,0,1,1,.23,2.51,2.51,0,0,1,.74.63v-3.16h1.05v8.79Zm-3.42-3.2a2.64,2.64,0,0,0,.54,1.82,1.47,1.47,0,0,0,1.22.61,1.51,1.51,0,0,0,1.18-.57,2.7,2.7,0,0,0,.51-1.76,3,3,0,0,0-.51-1.89,1.52,1.52,0,0,0-2.46,0A2.81,2.81,0,0,0,281.28,142.65Z" transform="translate(0 0)"/></g></g></g></g></svg>