<?xml version="1.0" encoding="utf-8"?>
<!-- Generator: Adobe Illustrator 22.1.0, SVG Export Plug-In . SVG Version: 6.00 Build 0)  -->
<svg version="1.1" id="Layer_1" xmlns="http://www.w3.org/2000/svg" xmlns:xlink="http://www.w3.org/1999/xlink" x="0px" y="0px"
	 viewBox="0 0 1821.2 974.5" style="enable-background:new 0 0 1821.2 974.5;" xml:space="preserve">
<style type="text/css">
	.st0{fill:#FAE0B2;}
	.st1{fill:#F7CC7F;}
	.st2{fill:#466EB6;}
	.st3{fill:#F48C7F;}
	.st4{fill:#50BFA5;}
	.st5{fill:#86B1F2;}
	.st6{fill:#B75742;}
	.st7{fill:#F47458;}
	.st8{fill:#FBB03B;}
	.st9{fill:#FFF3D9;}
	.st10{fill:#FED333;}
	.st11{fill:#F7A491;}
	.st12{fill:#3C8F7C;}
	.st13{fill:#F47257;}
	.st14{fill:#EFEFEF;}
	.st15{fill:#13375B;}
	.st16{fill:#355389;}
	.st17{fill:#FF7345;}
	.st18{fill:#F8A492;}
	.st19{fill:#184655;}
	.st20{fill:#96D9C9;}
	.st21{fill:#07345A;}
	.st22{fill:#FFFFFF;}
	.st23{enable-background:new    ;}
</style>
<title>accepted</title>
<path class="st0" d="M872.8,663.3c0,0-24.8,11.3-38.6,35.8s-16.6,58.4-16.6,58.4L860,758C860,758,834.1,725.8,872.8,663.3z"/>
<path class="st1" d="M885.3,680.2l-9-21.3l-22.7-4.7c-1.7-0.4-2.8-2-2.5-3.8c0.1-0.7,0.5-1.3,1-1.8l17.5-15.2l-2.6-23
	c-0.2-1.7,1.1-3.3,2.8-3.5c0.7-0.1,1.4,0.1,2,0.4l19.8,12l21.1-9.6c1.6-0.7,3.5,0,4.2,1.6c0.3,0.6,0.4,1.4,0.2,2L912,636l15.6,17.1
	c1.2,1.3,1.1,3.3-0.2,4.5c-0.5,0.5-1.2,0.8-1.9,0.8l-23.1,2L891,680.5c-0.9,1.5-2.8,2-4.4,1.1C886.1,681.3,885.6,680.8,885.3,680.2z
	"/>
<path class="st2" d="M794.6,387l8.1-13.7l-6.7-14.4c-0.5-1.1,0-2.4,1.1-2.9c0.4-0.2,0.9-0.2,1.3-0.1l15.5,3.5l11.6-10.8
	c0.9-0.8,2.3-0.8,3.1,0.1c0.3,0.4,0.5,0.8,0.6,1.3l1.5,15.8l13.9,7.7c1.1,0.6,1.4,1.9,0.9,3c-0.2,0.4-0.6,0.8-1,0.9l-14.6,6.3
	l-3.1,15.6c-0.2,1.2-1.4,1.9-2.6,1.7c-0.5-0.1-0.9-0.3-1.2-0.7l-10.5-11.9l-15.8,1.9c-1.2,0.1-2.3-0.7-2.4-1.9
	C794.3,387.9,794.4,387.4,794.6,387z"/>
<polygon class="st3" points="945.1,480.8 928.9,491.6 937.9,507.3 922.5,518.7 929.3,534.8 919.1,545.1 924.3,550.3 938,536.4 
	931.5,521.2 947.6,509.4 938.7,493.9 953.4,484.1 "/>
<polygon class="st3" points="1053.5,562.5 1034.8,557.4 1028.8,574.5 1010.1,570.2 1002.4,585.9 987.8,585 987.4,592.3 
	1006.8,593.6 1014.1,578.7 1033.6,583.2 1039.5,566.3 1056.5,571 "/>
<polygon class="st3" points="563.8,53.4 553.6,36.8 537.6,45.4 526.7,29.5 510.4,35.8 500.4,25.3 495,30.4 508.5,44.4 523.9,38.5 
	535.2,55 551,46.6 560.3,61.6 "/>
<polygon class="st1" points="981.9,648.3 989.3,662.1 1005.3,661.2 1012.5,677.3 1029.2,671.1 1038.1,688.9 1054.3,685.1 
	1065.7,700.9 1059.7,705.2 1051.2,693.4 1034.2,697.5 1025.6,680.3 1008.5,686.6 1000.6,668.8 985,669.7 978.1,656.9 968,659.6 
	966.1,652.5 "/>
<polygon class="st4" points="793.8,697.3 782,698.5 778,679.8 760.5,679.4 755.2,665.8 748.3,668.5 755.4,686.7 772,687 
	776.2,706.5 793.9,704.7 "/>
<polygon class="st4" points="1236.3,98.7 1231.9,109.7 1213.4,104.6 1205,119.9 1190.5,118.3 1189.7,125.6 1209.1,127.8 
	1217.1,113.3 1236.3,118.6 1242.9,102.1 "/>
<path class="st5" d="M1009.8,805.1c-5.5,1.1-27.3,30.3-27.3,30.3l-0.8,2c0,0,39.5-4.4,40.9-6.1
	C1026.5,826.8,1014.3,804.3,1009.8,805.1z M982.8,836c7.2-9.2,23.6-22.6,27.2-25.5c3.2,3.2,7.9,12.8,8.6,17.1
	C1014,828.5,994.3,834.7,982.8,836L982.8,836z"/>
<path class="st5" d="M957,810.1c-10.7-7-13.7-7-16.8-5.2s-14.7,18.3-9.5,23.5s46,8.8,46,8.8l0.9-2.5
	C977.6,834.8,967.7,817.1,957,810.1z M937.8,826.6c-2.4-2.4,3.5-12.3,6.3-14.4c0.7-0.4,28.2,17.1,32,23.1
	C960.7,833.6,940,828.6,937.8,826.6z"/>
<path class="st5" d="M977,830h2.3c2.3,0,4.1,1.8,4.1,4.1v6.8c0,2.3-1.8,4.1-4.1,4.1H977c-2.3,0-4.1-1.8-4.1-4.1v-6.8
	C972.9,831.8,974.7,830,977,830z"/>
<path class="st6" d="M1064.2,837.6l-187-0.6c-4.5,0-8.1,3.7-8.1,8.1c0,0.4,0,0.8,0.1,1.2l2.8,19.1h9.4l5.7,96
	c0.3,5.1,4.6,9.1,9.7,9.2H1046l6.2-105.5h8.8L1064.2,837.6z"/>
<path class="st7" d="M1049.2,970.6H934.7l-6.1-131h136.1l-5.7,121.9C1058.7,966.7,1054.4,970.7,1049.2,970.6z"/>
<path class="st3" d="M1070.3,865.1l-147.8,0.4l-3.4-28.4l144.8,0.6c4.5,0,8.1,3.7,8.1,8.1c0,0.2,0,0.5,0,0.7L1070.3,865.1z"/>
<polygon class="st6" points="922.5,865.5 1063.4,865.1 927,872.6 "/>
<rect x="978" y="837.3" class="st5" width="3.9" height="28.1"/>
<rect x="989.3" y="865.2" class="st5" width="4.9" height="105.6"/>
<rect x="747.4" y="774.3" class="st0" width="151.7" height="196.3"/>
<rect x="766" y="774.3" class="st1" width="5.5" height="196.3"/>
<rect x="782.2" y="774.3" class="st1" width="5.5" height="196.3"/>
<rect x="798.4" y="774.3" class="st1" width="5.5" height="196.3"/>
<rect x="814.6" y="774.3" class="st1" width="5.5" height="196.3"/>
<rect x="830.8" y="774.3" class="st1" width="5.5" height="196.3"/>
<rect x="847" y="774.3" class="st1" width="5.5" height="196.3"/>
<rect x="863.3" y="774.3" class="st1" width="5.5" height="196.3"/>
<rect x="879.5" y="774.3" class="st1" width="5.5" height="196.3"/>
<rect x="747.4" y="774.3" class="st1" width="151.6" height="8.1"/>
<path class="st4" d="M623.1,713.1c4.8,5,50.2,7.8,50.2,7.8l2.6-0.6c0,0-31.5-38.2-34.2-38.5C634.3,680.8,619.1,709,623.1,713.1z
	 M673.8,720.1c-14.5-1.2-39.8-9.1-45.1-10.9c1.2-5.5,7.9-17,12-20.6C644.7,692.7,664.4,709.1,673.8,720.1z"/>
<path class="st4" d="M664.3,764.8c0,16,2.1,19,6.1,21.1s29.1,2.8,31-6.1s-22.2-54.1-22.2-54.1l-3.2,0.8
	C676,726.5,664.3,748.8,664.3,764.8z M694.6,773.6c-0.8,4.1-15.2,4.7-19.3,3.3c-0.9-0.5-1.4-41.1,2.2-49.2
	C686.3,744.9,695.2,769.9,694.6,773.6L694.6,773.6z"/>
<path class="st4" d="M671.3,720.8l7.1-4.6c2.4-1.6,5.6-0.9,7.1,1.5l1.6,2.4c1.6,2.4,0.9,5.6-1.5,7.1l-7.1,4.6
	c-2.4,1.6-5.6,0.9-7.1-1.5l-1.6-2.4C668.3,725.5,669,722.3,671.3,720.8z"/>
<rect x="672.1" y="618.2" transform="matrix(0.8741 -0.4857 0.4857 0.8741 -256.145 423.8503)" class="st8" width="35" height="175.7"/>
<path class="st9" d="M710.2,360.4c13.1,12.5,13.6,33.3,1,46.4s-33.3,13.6-46.4,1c-13.1-12.5-13.6-33.3-1-46.4c0,0,0,0,0,0
	C676.3,348.3,697,347.9,710.2,360.4z"/>
<path class="st10" d="M709.4,387.9l-14,4.3l-4.4,13.9c-0.2,0.7-1,1.2-1.8,0.9c-0.3-0.1-0.6-0.3-0.7-0.5l-8.4-12l-14.6,0.1
	c-0.8,0-1.4-0.6-1.4-1.4c0-0.3,0.1-0.6,0.3-0.9l8.8-11.7l-4.7-13.9c-0.3-0.7,0.1-1.5,0.9-1.8c0.3-0.1,0.6-0.1,0.9,0l13.8,4.7
	l11.8-8.7c0.6-0.5,1.5-0.3,2,0.3c0.2,0.3,0.3,0.6,0.3,0.9l-0.2,14.6l11.9,8.5c0.7,0.4,0.9,1.3,0.4,2
	C710,387.6,709.8,387.8,709.4,387.9z"/>
<path class="st9" d="M1183.5,172c13.1,12.5,13.6,33.3,1,46.4s-33.3,13.6-46.4,1s-13.6-33.3-1-46.4c0,0,0,0,0,0
	C1149.6,159.9,1170.4,159.4,1183.5,172C1183.5,172,1183.5,172,1183.5,172z"/>
<path class="st10" d="M1182.8,199.5l-14,4.3l-4.4,13.9c-0.2,0.7-1,1.2-1.8,0.9c-0.3-0.1-0.6-0.3-0.7-0.5l-8.4-12l-14.6,0.1
	c-0.8,0-1.4-0.6-1.4-1.4c0-0.3,0.1-0.6,0.3-0.9l8.8-11.7l-4.7-13.9c-0.3-0.7,0.1-1.5,0.9-1.8c0.3-0.1,0.6-0.1,0.9,0l13.8,4.7
	l11.8-8.7c0.6-0.5,1.5-0.3,2,0.3c0.2,0.3,0.3,0.6,0.3,0.9l-0.2,14.6l11.9,8.5c0.7,0.4,0.9,1.3,0.4,2
	C1183.4,199.2,1183.1,199.4,1182.8,199.5z"/>
<path class="st7" d="M840.4,245.6l7.7,12.8c0.6,0.9,1.9,1.2,2.8,0.6c0.3-0.2,0.6-0.5,0.7-0.8l5.5-13.9l14.5-3.4
	c1.1-0.3,1.7-1.4,1.4-2.5c-0.1-0.4-0.3-0.7-0.6-0.9l-11.5-9.5l1.3-14.9c0-1.1-0.8-2-1.9-2.1c-0.4,0-0.8,0.1-1.1,0.3l-12.6,8
	l-13.7-5.8c-1-0.4-2.2,0.1-2.6,1.2c-0.1,0.4-0.2,0.7-0.1,1.1l3.7,14.4l-9.8,11.3c-0.7,0.9-0.5,2.1,0.3,2.8c0.3,0.2,0.6,0.4,1,0.4
	L840.4,245.6z"/>
<path class="st11" d="M510.7,791.2c-6.1,9.1-13.1,17.6-20.7,25.5c-0.6,0.6-4.8,1.9-5.5,2.5c-5.9,18.6,1.7,34.5,9.8,46.9
	c1.4-10.1,2.3-23.9,3.9-25.6c2.5-2.7,10.9-14.4,28-28.7C517.1,806.8,516.1,799.9,510.7,791.2z"/>
<path class="st2" d="M489.5,817c-6.6,0.4-19.3,4.6-19.2,5.9c0.1,1.6,7.2,56.5,15.9,61.3c5.2,2.9,6.2-5.6,8.1-18.1
	C486.2,853.7,485.8,820.2,489.5,817z"/>
<path class="st11" d="M372.6,765.5c-13.9,8.3-27.7,14.6-29.5,15.2c-0.8,0.3-5.2-0.3-6.1,0C323.9,795,324,812.5,326,827.3
	c5.5-8.6,12.3-20.6,14.4-21.5c12.1-5.1,24.5-9.2,37.2-12.5C371.6,784.9,373.8,775.7,372.6,765.5z"/>
<path class="st11" d="M525,395.7c0,0,21-39.6,24.2-53.8s13.9-85.6,13-90.3c-0.9-4.6-18-15.7-15.9-19.6s18.4-3.9,22.1-3.6
	s11.2,2.5,14.4,5.1s-3.6,88.3-5.6,106.7s-32.9,78.8-32.9,78.8L525,395.7z"/>
<path class="st11" d="M430.4,453c0,0-42.9,68.7-50.4,82.2s-35.4,47.9-36.8,49.6s-31,0.2-30.1,3.6s14.4,0,14.7,4.1
	s-23.3,29.6-21,30.6c4.4,1.9,15-15.1,16.9-13.8s-12.7,16.7-10.3,20s12.5-15.9,14.4-15.7s-7.1,19.3-3,19.5c2.3,0.1,7.6-17.2,9.7-15.6
	s0.1,15.3,2.7,15.2s0.2-11.8,4.2-18s3.7-12.6,12.9-20.6s44.7-32.2,57.6-53.7s41.5-68.8,41.5-68.8L430.4,453z"/>
<path class="st12" d="M533,555.2l-74.5,24c0,0,41,69.7,49.1,83.6c8.1,13.9,43,48.2,43,57.2c0,6.3-32.8,48.5-52.7,74.2
	c4.5,8.3,16.7,19.1,24.5,23.8c33-31.3,81.2-80.7,82.1-96.8C605.8,697.5,533,555.2,533,555.2z"/>
<path class="st2" d="M342.6,780.7c-6.2-2.5-19.3-4.1-19.8-2.8c-0.6,1.5-17.5,54.2-11.7,62.3c3.5,4.9,8-2.5,15-12.9
	C324,812.5,338.5,781.1,342.6,780.7z"/>
<path class="st4" d="M517.7,598.2c1-4.6,7.1-18.1,10.3-28.8c2.6-8.9,3.1-18.3,1.4-27.4l0,0l-54.8-2.5l-2.1,4.1
	c-2.3,4.4-5.5,8.3-9.4,11.3c-8.2,6.2-22.6,19.8-22.2,38.8c0.6,26.4,19.5,123.4,13.2,127c-11.3,6.5-58.4,29.5-86.6,43.6
	c0.4,10.3,3.3,24.9,8.6,33.7c22.3-8.5,100.7-43.2,115.3-51.7C497.9,742.3,516.1,606,517.7,598.2z"/>
<path class="st7" d="M385.2,289.7c4.4,11.5-2.5,20-7.3,31.4c-3.2,7.6,3.9,19.7,11.9,25.2c20.3,14.1,25,14.4,23.6,33.5
	c-3.5,46,51.5,26.4,60.4,25s15.5-1.1,19.8-4c12.8-8.8,24.7-35.3,22.5-57.6s-28.8-14.7-34.9-24.9s12.3-23-3.4-40.1
	c-44.9-49.2-91.8-16.2-93.5,2.6C383.8,283.8,384.2,286.9,385.2,289.7z"/>
<path class="st1" d="M539.6,452.3c0,0,15.3-36.3,17.8-42.4c0,0-21.4-19-34.1-17.5c0,0-16.5,26-26.3,26.9s-44,2.4-50,6
	s-31.5,41.9-31.5,41.9s22.9,22.9,32.1,22.9c0,0,6.3-15.5,8.4-12.7s10.6,63,14.9,67.6c4,4.2,51.9,20.4,65.8,17.5c0,0,7.5-58,7.1-93.6
	C543.7,463.4,539.6,452.3,539.6,452.3z"/>
<path class="st11" d="M472.8,402.2c0,0,5.4,17.9,5.5,25.1s5.8,30.1,21,28.6s-0.1-29.8-2.3-36.7s-4.8-28.7-4.8-28.7L472.8,402.2z"/>
<path class="st7" d="M493.7,401.5c-0.9-5.9-1.5-10.9-1.5-10.9l-19.4,11.6c0,0,1.1,3.6,2.3,8.3C484.3,411.4,490.4,407.4,493.7,401.5z
	"/>
<path class="st11" d="M460.1,352.7c-4.8,3.7-8.1,9-9.3,14.9c-1.9,9.8,3.9,33.8,24.8,37.6s27.7-16.4,22-31.1S480.8,341.2,460.1,352.7
	z"/>
<path class="st11" d="M499.6,368c0,4.1-1.9,7.4-4.3,7.5s-4.3-3.3-4.4-7.4s1.9-7.4,4.3-7.4S499.6,363.9,499.6,368z"/>
<path class="st11" d="M459.9,388.4c2.8,3.3,3.2,7.5,1,9.4s-6.3,0.7-9-2.6s-3.2-7.5-1-9.3S457.2,385.1,459.9,388.4z"/>
<path class="st13" d="M561,232.3c-0.5,0.3-0.9,0.6-1.3,0.9l-2.3,2.1l0,0c2.2,0.5,5.7,0.1,9,2.6C566.5,237.9,565.8,235.2,561,232.3z"
	/>
<path class="st7" d="M597.4,111.3c-5,1-25.1,27.9-25.1,27.9l-0.7,1.9c0,0,36.3-4,37.7-5.6C612.8,131.3,601.5,110.5,597.4,111.3z
	 M572.5,139.8c6.6-8.5,21.8-20.9,25-23.5c2.9,3,7.3,11.8,7.9,15.7C601.3,132.9,583.1,138.5,572.5,139.8z"/>
<path class="st7" d="M555.2,105.8c-7.8-10.6-12-8.8-15-7.6s-14,15-10.6,22.2s37.4,21.3,37.4,21.3l1.2-2.6
	C568.3,139.1,563.1,116.4,555.2,105.8z M533.7,118.5c-1.7-3.6,5.6-14.3,8.5-16.2c0.6-0.3,1.2-0.5,1.8-0.6c0.6,0,3,0.5,7.7,6.7
	c5,6.8,13.1,23.6,15,30.7C553,133.1,535.3,121.6,533.7,118.5L533.7,118.5z"/>
<path class="st7" d="M568.7,135.7h1.6c1.6,0,2.9,1.3,2.9,2.9v4.8c0,1.6-1.3,2.9-2.9,2.9h-1.6c-1.6,0-2.9-1.3-2.9-2.9v-4.8
	C565.7,137,567,135.7,568.7,135.7z"/>
<path class="st1" d="M624.5,235.3H521.2c-5.6,0-10.2-4.3-10.6-9.9l-5.4-83h134.5l-5.7,86.4C633.9,232.5,629.6,235.3,624.5,235.3z"/>
<path class="st0" d="M645.3,160.5l-146,0.3l-1.6-9.4c-0.8-5,2.6-9.8,7.6-10.6c0.5-0.1,1-0.1,1.5-0.1l132.1,0.4c4.7,0,8.4,2.9,8,6.3
	L645.3,160.5z"/>
<rect x="569.3" y="140.8" class="st7" width="2.8" height="19.9"/>
<rect x="572.1" y="160.6" class="st7" width="3.5" height="74.8"/>
<path class="st11" d="M558.8,240.6l-1.3-5.2c-3.2,0-6.4-0.5-9.5-1.5l-3.6-1.6c-1.1-0.5-2.5,0-3,1.1c0,0,0,0.1,0,0.1l0,0
	c-0.4,0.9-0.1,2,0.7,2.6c0,0,9.8,8.1,13.3,10.6c1.7,1.2,7.1,4.5,7.1,4.5l3.1-5.9L558.8,240.6z"/>
<path class="st4" d="M706,585.3c0.3,3.7-2.4,6.9-6.1,7.2c-3.7,0.3-6.9-2.4-7.2-6.1c-0.3-3.7,2.4-6.9,6.1-7.2c0.2,0,0.4,0,0.6,0
	C702.9,579.1,705.8,581.8,706,585.3z"/>
<path class="st4" d="M973.1,724.4c0.3,4-2.7,7.5-6.6,7.8s-7.5-2.7-7.8-6.6s2.7-7.5,6.6-7.8c0.2,0,0.4,0,0.6,0
	C969.7,717.7,972.9,720.6,973.1,724.4z"/>
<path class="st0" d="M736,459.5c46.3,8.6,79.5,38.7,74.2,67.1c-2.6,14.2-14.4,25.3-31.3,31.8l11,45.4l-33.5-40
	c-13.2,1.6-26.5,1.1-39.6-1.4c-46.3-8.6-79.5-38.7-74.2-67.1S689.7,450.9,736,459.5z"/>
<path class="st1" d="M757.2,522c-7.1,14.8-24.9,21-39.6,13.9c-14.8-7.1-21-24.9-13.9-39.6c7.1-14.8,24.8-21,39.6-13.9
	C758.1,489.5,764.3,507.2,757.2,522C757.2,522,757.2,522,757.2,522z"/>
<path class="st14" d="M714.1,506.5c-3.6,8-0.1,17.4,7.9,21.1c7.8,3.5,16.9,0.3,20.8-7.3L714.1,506.5z"/>
<path class="st0" d="M1004.1,262.3c-60.7-3.9-124.6,55-126.9,90.6c-1.1,17.8,10.1,34.6,29.3,47.5l-34.6,78.1l61-64.8
	c16.1,5.9,33,9.4,50.1,10.4c60.7,3.9,111.8-21.7,114-57.2S1064.8,266.2,1004.1,262.3z"/>
<path class="st0" d="M1024,484.3l10.7,2.1c0,0,15.7-7.3,16.9-10.9s0.6-11.7,2.9-12.2c3.8-1,7.6,1.3,8.6,5.1c0,0,0,0,0,0
	c1.3,3.9-3.2,16.2-2.1,17.4c0.7,0.7,6.8,2.1,11.3,3c3,0.6,5.3,2.9,6.1,5.8l0,0c0.5,2-0.4,4.1-2.2,5.1l-2.8,1.5l1.3,2.9
	c1,2.2,0,4.8-2.1,5.8l-2.2,1.1l1,1.8c1.2,2.2,0.4,4.9-1.8,6c-0.1,0.1-0.2,0.1-0.3,0.2l-1.9,0.8l0.2,0.5c0.6,2.2-0.5,4.5-2.6,5.3
	l-1.9,0.8l-28.6-5.5c-2.7-0.5-5.2-1.6-7.4-3.2l-9.7-3.7c-1.1-0.4-1.6-1.5-1.4-2.6l5.4-25.4C1021.6,484.9,1022.8,484.1,1024,484.3z"
	/>
<path class="st11" d="M305.9,264.3c1.3-1.8,2.3-3.7,2.9-5.8c0.2-0.9,0.2-1.9,0-2.8c0,0,2.3-2.3,2.5-3.2c0.4-1.8-1.3-4.5-1.4-4.6
	c-1.9-2.9-8.9-8.1-11.5-7.4s3.3,9.9,3.3,9.9s-4.6-2.8-5.7,0.4S305.9,264.3,305.9,264.3z"/>
<path class="st11" d="M277.2,265.3l4.5-7.6c0,0,8.6-4.6,6.9-7.4c-2.8-4.7-15.2,4.7-15.2,4.7S273.4,259.6,277.2,265.3z"/>
<path class="st15" d="M1376.1,496.1c-4.6-21.3-22.4-36.6-43.2-36.1c-4.8-11.2-13.8-20-25-24.6c-21.6-8.4-52.9-4.4-55.4,19.6
	c-10.9,14.6-14.4,37.5-2.9,51.8c-7.6,20.8,9.4,44.8,35.4,48.3c6.9,16.5,22.8,29,40.1,29.7c4.2,0.2,10.6,0.1,11.6,0.5
	c-1.3-0.5,24.4,26.5,53.6-3.9C1420,550.4,1408.5,505.1,1376.1,496.1z"/>
<path class="st11" d="M1233.9,510.1c0,0-71.1-34.3-71.4-35.7c-0.5-2,24-28.9,36.8-31.1c9.8-1.7,21.9-11.3,21.9-11.3
	s-13.1-15.1-25.6-12.6s-11.6,12.7-11.6,12.7s-33.5,18-52.9,35.7c-18.4,16.8,79.5,63,79.5,63L1233.9,510.1z"/>
<path class="st11" d="M1196.4,876.9c2.1,11.1,5.1,22,8.9,32.6c0.3,0.8,3.6,3.8,4,4.6c-1.8,20-14.5,31.9-26.5,40.4
	c2.6-10.1,8.4-21.7,7.6-23.9c-4.2-13.9-9.4-27.4-15.7-40.4C1184.8,889.1,1188.3,883,1196.4,876.9z"/>
<path class="st16" d="M1239.9,638.6l62.3,47.3c0,0-30.8,29.7-42.4,40.7s-76.3,53.3-77.3,55.8c-0.8,1.9,5.7,25.6,20.6,101.5
	c-6.6,6.7-21.1,13.3-29.7,15.5c-21.6-41.2-38.4-125.7-38.4-135.2C1135,748.5,1239.9,638.6,1239.9,638.6z"/>
<path class="st11" d="M1414.5,733c-2,2-15.6,28.3-20.7,42.4c-7.5-4.7-12.1-10.4-20.5-13.6c6.6-9.6,19.6-32.7,20.6-38.2
	c2.5-13,5.5-15,5.5-15s43.7,14.8,46.6,18.9S1422.7,725,1414.5,733z"/>
<path class="st12" d="M1393.5,726.5c-3.4,0,0.3-15.3,1.1-18.9c0.9-4,3.2-5.2,3.8-5.3c1.6-0.4,50.2,16.1,58.4,22
	c0.7,0.6,1.2,1.3,1.7,2c4.5,8.4-35.6,10-41.3,6.3C1411.9,729.3,1408.8,726.4,1393.5,726.5z"/>
<path class="st2" d="M1226.6,652.6c0,0,58.7-23.1,59.4-20.6c6.1,19.6,27.6,13.3,38.8,47.7c4.7,14.4,5.8,52.5,9,80.8
	c2.2,19.4,5.2,35,5.2,35s13.6-16,39.2-44.8c2-2.2,22.6,13.3,22.6,13.3c-40.7,80.7-70.7,92.8-76.9,89.9
	c-42.1-19.3-76.5-163.9-76.4-163.8C1242.7,680.7,1226.6,652.6,1226.6,652.6z"/>
<path class="st11" d="M1317.2,515.8c0,0,70-0.1,85-1c13.6-0.8,67.4,0.6,69.5,0.3s16-23.8,18.3-21.3s-7.8,11.7-4.6,14.1
	s36.5-2.9,36.1-0.5c-0.8,4.6-20.3,4-20.3,6.3s20.4-1.3,21.8,2.5s-19.6,1.5-20.4,3.2s19.4,4.7,17.4,8.1c-1.1,1.9-18-3.1-17.9-0.6
	s12.4,8.3,10.9,10.4s-9.7-6.2-16.8-6.3s-12.2-3.8-23.6-0.7c-5.6,1.5-48.6,6.8-84.8,9.9c-37.2,3.2-67.7,4.2-67.7,4.2L1317.2,515.8z"
	/>
<path class="st4" d="M1213.3,578.1c-0.9-11.2,1.3-32.7,1.8-36.4c-3.4-11.7-24.1-12.9-26.7-17.8c0,0,9.1-29.5,21.6-29.4
	c0,0,29.3,11.1,39.2,16.3c0.1,0,3.5,1.5,4.9,1.5c9.5-0.1,42.8-1.1,49,0.8l-3.5,51.4c-1.8,2.9-4.7,65.2-8.4,70s-56.5,23.8-65.3,18.1
	C1225.5,652.4,1215.2,600.8,1213.3,578.1z"/>
<path class="st4" d="M1285.8,514.3c6.1-2.9,50.9-2.8,50.9-2.8s6.2,30.9,1.2,38.3c0,0-39.7,5.9-38.6,9.2L1285.8,514.3z"/>
<path class="st11" d="M1278.5,491.3c0,0-7.2,16.7-8,23.7s-8.9,28.4-23.5,25.3s3.4-28.7,6.3-35.2s7.8-27.2,7.8-27.2L1278.5,491.3z"/>
<path class="st7" d="M1258.4,488.3c1.5-5.6,2.6-10.4,2.6-10.4l17.5,13.4c0,0-1.5,3.4-3.2,7.8
	C1266.4,498.9,1260.9,494.4,1258.4,488.3z"/>
<path class="st11" d="M1301.5,450.8c3.3,4.9,4.7,10.8,4.1,16.6c-1.2,9.6-13.9,30-34.4,27.2s-20.6-23.6-10.8-35.4
	S1285.9,433.9,1301.5,450.8z"/>
<path class="st11" d="M1260.4,452.9c-1.3,3.8-0.5,7.4,1.7,8.2s5-1.7,6.3-5.5s0.5-7.4-1.7-8.2S1261.7,449.1,1260.4,452.9z"/>
<path class="st12" d="M1205.5,910c1.3-3.2,13.9,6.9,16.9,8.9c3.4,2.3,3.6,4.9,3.5,5.5c-0.2,1.5-32.4,41.2-41.9,46.7
	c-1,0.4-2.2,0.6-3.3,0.3c-5.2-2,3.3-34.5,10.2-40.9C1195.4,926.4,1199.9,924.2,1205.5,910z"/>
<path class="st15" d="M1299.9,448.7c0,0-7.6,25.8-1.7,33.7s-2.2,17.2-2.2,17.2s18.3-21.8,15.7-32.6S1299.9,448.7,1299.9,448.7z"/>
<path class="st11" d="M1292,483.8c-3.5,2.2-5.2,6-3.7,8.4s5.6,2.5,9.1,0.3s5.2-6,3.7-8.4S1295.5,481.6,1292,483.8z"/>
<path class="st17" d="M1251.4,422l1.4,3.7c0.8,2.2,0,4.6-1.8,6l-3.3,2.5c-2.1,1.5-5,1.3-6.8-0.5l-2.9-2.9L1251.4,422z"/>
<path class="st15" d="M1233,427.9l-5.4-1.5l-3.8,2c0,0-24.4,10.9-29.3,10.9s-8.6-8.8-7.4-10.4s17-5.7,17-5.7l9.8-8.9l0.6-6.5
	L1233,427.9z"/>
<path class="st7" d="M1234.9,386l17.3,30.5c1.6,2.8,0.8,6.4-1.9,8.2l-10.4,7.2c-2.6,1.8-6.1,1.3-8.2-1l-23-25.6L1234.9,386z"/>
<path class="st7" d="M1236,385.5l-27.3,20.6c-2,1.5-4.9,1.4-6.7-0.4l-50.2-47.8l54.6-39.5l31.1,60.6
	C1238.7,381.2,1238,383.9,1236,385.5z"/>
<path class="st15" d="M1171.4,327.4c-15.5,10.6-25,23.6-21.3,29.1s19.3,1.4,34.8-9.2s25-23.6,21.3-29.1S1187,316.8,1171.4,327.4z"/>
<path class="st0" d="M1154.7,354.2c4.4,1,15.6-2.3,27.8-10.6c15.3-10.4,21-20.7,20.1-22.8l0,0c-0.2-0.1-0.5-0.2-0.8-0.3
	c-4.4-1-15.6,2.3-27.8,10.6c-15.3,10.4-21,20.7-20.1,22.8l0,0C1154.1,354.1,1154.4,354.2,1154.7,354.2z"/>
<path class="st11" d="M1191.2,421.3l6.5,2.4c0,0,4.2,1.9,5.2,5.5s5.6,2.8,4.3-1c-0.7-2.1-1.6-4.2-2.6-6.2c0,0,5.3,7.2,5.8,7.3
	c3.1,0.3,3.5-4.2-1.7-9.3S1191.2,421.3,1191.2,421.3z"/>
<path class="st11" d="M1213,424c0,0,11.1,4.5,8.9,7.3s-8.9,5.8-9,4.3s4.3-3.5,1.4-6.6C1213.3,428.3,1209.3,424,1213,424z"/>
<path class="st11" d="M1592.4,851.8c0,0,25.8,18.6,29.9,24.2c5.9,8-43.8,23-38.3,13.6c1.3-2.2,4.8-9.4,5-10.1
	c0.8-3.8-9.7-14.1-9.7-14.1L1592.4,851.8z"/>
<path class="st1" d="M1570.5,905.3l17.5-24.8c0,0,11-2.5,22.2-15.2c0,0,10.1,3.9,16.3,12.2c-9.3,9.7-19.3,18.6-29.8,26.9
	c-7.6,6.3-16.2,11.2-25.6,14.5C1556.3,923.9,1570.5,905.3,1570.5,905.3z"/>
<path class="st18" d="M1808.2,512.4c0,0-3.2,2.8-4.3,3.7c-1.3,1-5.5,3.7-5.5,3.7s-15.1,8.6-15.6,7.5s-0.5-4.4,0.3-5.2
	s2.9-1.7,3.7-2.6c0.9-1,0.9-2.5,0-3.5c-1-1-6.1,1.9-6.1,1.9s-4.2,2.3-5.9,5.1c-6,9.7-4.2,10.3-5,11.5c-1,1.5-22.1,11-22.1,11
	s-63.2,26.3-66.6,27.7l0,0c-0.5,2.9,1.1,5.6,1.9,8.2c1.5,9,4.2,9.6,6.3,18.3c9.7-4.9,76.8-41.9,83.7-45.7c0,0,10.2-1.7,16.6-3
	s12-5.3,13.7-6c4.4-2,8.5-4.5,12.3-7.4c5.4-4.2-1.6-2.6-1.6-2.6s-11.4,6-11.7,5.1c-0.2-0.7,6.2-3.7,12.2-8.3
	c1.6-1.2,3.1-2.3,4.5-3.4c3.7-2.8,3-5.8-1.3-3.5c-2,1.1-3.8,2.3-5.6,3.6c-1.7,1.2-3.6,2.2-5.5,3.1c-1.8,1.2-3.7,2.2-5.7,3.1
	c0-0.2-0.9-0.3,0.7-1.6c1.9-1.6,6.8-4,9.4-6.5c1.5-1.4,4.9-4.2,4.9-4.2s4.3-5.1,4.1-5.5c-1.1-1.8-5,0.9-6.8,3.1
	c-1.9,1.1-3.7,2.4-5.3,3.9c0,0-8.3,4.6-8.9,3.5c-0.3-0.5,4.5-3.9,8.7-8c3.9-3.8,7.2-8.2,6.6-9.1
	C1813,508.6,1808.2,512.4,1808.2,512.4z"/>
<path class="st6" d="M1631.9,660.4l-4.1,20.2l-102.7,93.4l73.5,74.4l-19.9,20.3c0,0-108.6-79.7-112.5-90.2
	c-6-16.1,77.8-122.7,77.8-122.7L1631.9,660.4z"/>
<path class="st11" d="M1703.8,905.6c0,0,25.8,18.6,29.9,24.2c5.9,8-43.8,23-38.3,13.6c1.3-2.2,4.8-9.4,5-10.1
	c0.8-3.8-9.7-14.1-9.7-14.1L1703.8,905.6z"/>
<path class="st1" d="M1682,959.1l17.5-24.8c0,0,11.7-2.1,22.9-14.7c6.1,2.5,11.5,6.5,15.6,11.8c-9.3,9.7-19.3,18.6-29.8,26.9
	c-7.6,6.3-16.2,11.2-25.6,14.5C1667.8,977.8,1682,959.1,1682,959.1z"/>
<path class="st7" d="M1628.3,669.8l-4.6,127.5l86.8,106.5l-20.4,18.8c0,0-100.8-86.5-111.9-110.6c-6.9-15-30-150.1-30-150.1
	L1628.3,669.8z"/>
<path class="st0" d="M1545.5,659.3c8.3-18.8,7.4-154,39.9-185.7c11.4,1.9,19.6,3,21.5,3.5c1.7,13.9,3.6,65,4.7,111.9
	c0.8,31.2,0,63.9,3.8,81.2C1617.8,680.9,1537.9,676.5,1545.5,659.3z"/>
<path class="st2" d="M1633.5,484.1c9.1,2.1,15.8,3.5,27.8,21.2c11.4,16.9,36.9,57.1,36.9,57.1l67-29.8l3.1,33.9
	c0,0-75.8,39.4-86.5,35.8s-40.8-47.5-43-50.5c-0.5-0.7,2.5,46.9,2.5,54.5s14.5,73.8,14.5,73.8s-36.8,9.1-44.1-7.4
	c-22.1-50.5-5.1-195.9-5.1-195.9S1626.9,482.6,1633.5,484.1z"/>
<path class="st11" d="M1494.1,339.4c2.5-2.7,3-8.5,2.9-12.1l0.6-4.9c-1.2-0.3-23.8-0.5-30.5,0.2c-0.4,1.7-0.4,3.4-0.1,5.1
	c1.7,5.3,13.4,39.8,13.4,39.8l19.1-2.1C1499.6,365.3,1492.7,344.8,1494.1,339.4z"/>
<path class="st2" d="M1577.9,481.5c0,0-13.2,37.6-24.1,32.2s-71.9-67.6-72.5-70.6s-4.8-79.4-4.8-79.4l24.1-4.8l13.9,62.5
	c0,0,44.7,42.7,53.7,46.9C1573.5,470.8,1577.2,475.8,1577.9,481.5z"/>
<path class="st2" d="M1542.2,668.4c-7.3,0-10-1-14.9-2.5c0,0,13.9-78.4,22-156.2c3.2-30.7,6.2-43.3,18.8-41.1
	c3.7,0.6,13.6,4.4,17.2,5c-31.8,90.1-32,159.5-36.5,179.6C1546.7,663.3,1544.7,668.4,1542.2,668.4z"/>
<path class="st11" d="M1588.8,460l-3.3,13.6c0,0-0.8,11.9,4.7,12.9c6.6,1.3,16.5-8.6,16.5-8.6l5.7-38.4L1588.8,460z"/>
<path class="st11" d="M1588.8,460l-3.3,13.6c0,0-0.8,11.9,4.7,12.9c6.6,1.3,16.5-8.6,16.5-8.6l5.7-38.4L1588.8,460z"/>
<path class="st7" d="M1612.3,439.7l-23.6,20.3l-2.5,10.2C1595.3,468,1608.1,458.1,1612.3,439.7z"/>
<path class="st11" d="M1588.7,404.4c-5.7,0-10.8,3.9-12.8,9.6c-2.3,6.4-4,13-5.1,19.7c-2.5,14.8,5.9,28.3,13.2,29.4
	s24.7-3.8,28.6-24.7c1.7-9,3.8-20.7-3.6-26.9C1603.3,406.7,1595.2,404.4,1588.7,404.4z"/>
<path class="st19" d="M1610.2,454.3c0,0,25.8-23,26.9-40.9s-15.4-27.6-29.6-28.1c-5.8-0.2-11.6,0.1-17.4,0.9
	c-14.2,1.8-23.4,8.1-20.2,19.7c4.3,15.6,33.8,2.5,39.9,7.3c5,4-3.1,13.6,1.7,17.3c4.5,3.5,2.2,2.3,0.7,8.9
	C1611.2,444.3,1610.5,449.3,1610.2,454.3z"/>
<path class="st11" d="M1620.1,433.5c-0.6,4.3-3.3,7.5-5.9,7.1s-4.2-4.2-3.6-8.5s3.3-7.5,5.9-7.1S1620.8,429.2,1620.1,433.5z"/>
<path class="st7" d="M1491.9,324.4c0,0-3.6,2.5-7,8.5c0,0-11.7-5.5-11.6-7.7c0.1-3,11.8,1,11.8,1L1491.9,324.4z"/>
<path class="st1" d="M1518.1,311.6l-46.8,23.4c-10.2,5.3-18.4,9.4-23.7-0.9l-22.2-42.7c-5.3-10.2-6.7-15.7,1.2-20.6l55.3-27.3
	c10.2-5.3,19.1-8.6,24.7,0l24.7,48.2C1535.4,302,1528.3,306.3,1518.1,311.6z"/>
<polygon class="st16" points="1427.9,295.7 1511.8,253.4 1507.7,245.5 1423.9,288 "/>
<path class="st11" d="M1494.9,315.5l2.7,6.7l-6.3,3.3c0,0,1.6-3.2,1-4.1C1489.3,316.7,1491.9,312,1494.9,315.5z"/>
<path class="st7" d="M765.3,190.8c-6,1.9-11.3-2.2-13.2-8.2c-3.6-11.3,6.9-17.4,14-13.1C773.8,174.2,774.7,187.8,765.3,190.8z
	 M757,152.2c0.5,2.1-0.5,3.6-2.9,4.3c-2.7,0.9-4,1.1-5.3-1.2c-8.1-14.7-12.8-24.3-14.2-28.6c-13.1-41.6-15.3-45.2-13.7-45.7
	c2.3-0.7,6.1-1.1,8.5-1.9s5.7-2.7,8-3.5c1.3-0.4,1.8,2.6,4.8,11.3C752.8,118.6,754.1,135.3,757,152.2z"/>
<path class="st3" d="M1000.9,98.4c7.4-3.3,15.8-3.1,23,0.6c11.1,5.4,14.4,18,9.4,28.3c-5.8,11.9-23.2,20.9-56.2,19.8
	c-21.1-25.5-24.6-44.7-18.8-56.6c5-10.3,17-15.3,28.1-9.9C993.7,84.1,999,90.6,1000.9,98.4z"/>
<path class="st3" d="M906.8,58.1c8.6,6.1,17.5,11.8,26.7,16.9c2.8,1.5,7.2,5,10.4,3.7c1.7-0.5,2.7-2.3,2.3-4
	c-0.8-3.4-5.5-4.9-8.3-6.4c-8.5-4.8-18-10.5-27.2-16.9c-1.9-1.1-4.2-0.4-5.3,1.4C904.4,54.7,905,57,906.8,58.1L906.8,58.1z"/>
<path class="st3" d="M1037.2,159.2c4,2.3,8.1,4.6,12.2,6.9c3.9,2.2,8.1,5.4,12.6,6.2c3.3,0.5,5.5-3,3.2-5.6c-3-3.4-7.9-5.3-11.8-7.4
	c-4.1-2.3-8.2-4.5-12.3-6.7C1036.7,150.2,1032.8,156.7,1037.2,159.2L1037.2,159.2z"/>
<path class="st3" d="M914.7,132.5c9.9-5.7,17.6-4.9,24.2-5.5c1.7-0.1,3.1-1.5,3-3.3c-0.1-1.3-0.9-2.5-2.2-2.9
	c-9.3-3.4-20.8,0.2-29,5C906.4,128.4,910.3,135,914.7,132.5L914.7,132.5z"/>
<path class="st3" d="M949.6,180.4c2.2-4.3,5.2-8.1,8.9-11.1c2.3-1.9,10.9-5.9,6.8-9.8c-3.8-3.7-10.4,2.4-13.3,4.9
	c-3.8,3.4-6.9,7.5-9.2,12.1C940.7,180.9,947.3,184.8,949.6,180.4L949.6,180.4z"/>
<path class="st3" d="M998.6,174c1.3,2.9,2.7,5.8,4,8.7c1.3,2.9,2.2,6.5,5.5,7.6c1.9,0.6,3.5-0.7,4.1-2.3c1.2-2.9-1.5-6.6-2.8-9.3
	c-1.4-2.9-2.7-5.8-4.1-8.7c-0.9-1.9-3.7-2.4-5.4-1.4C998.1,169.8,997.5,172.2,998.6,174L998.6,174z"/>
<path class="st3" d="M986.9,57.7c3-25.7,3.2-25.7,2.5-28.4c-0.6-1.8-2.5-2.8-4.3-2.3c-0.8,0.2-1.5,0.8-1.9,1.5
	c-1.5,2.6-1.2,2.2-4.2,29.2c-0.2,2.2,2,4,4,4C985.2,61.7,986.6,59.9,986.9,57.7L986.9,57.7z"/>
<path class="st3" d="M1024.2,78.3c3.3-2.7,6.3-5.7,8.9-9.1c2.5-3.1,6.7-7.5,4.8-11.7c-0.5-1-1.5-1.5-2.6-1.5c-4,0.3-6,5.3-8.3,8.2
	c-2.5,3.1-5.3,6-8.3,8.6c-1.5,1.5-1.5,4,0,5.5C1020.2,79.8,1022.6,79.8,1024.2,78.3L1024.2,78.3z"/>
<path class="st3" d="M1074.8,111.1c1.5-1.2,1.1-3.5,0-4.8c-2.2-2.7-7.4-2-10.5-2c-3.6,0.1-7.3,0.5-10.9,1.2
	c-2.1,0.4-3.3,2.9-2.7,4.8c0.6,2.2,2.7,3,4.8,2.7C1069.1,111.1,1071.1,114.2,1074.8,111.1z"/>
<path class="st4" d="M670.7,75.2c0,3.5-3.3,6.3-7.3,6.3s-7.3-2.8-7.3-6.3s3.3-6.3,7.3-6.3S670.7,71.7,670.7,75.2z"/>
<path class="st20" d="M837.7,8.3c0,4.6-4.7,8.3-10.4,8.3s-10.4-3.7-10.4-8.3S821.5,0,827.3,0S837.7,3.7,837.7,8.3z"/>
<path class="st11" d="M311.3,253.4c0,0-3,15.1-5.4,20.6c-1.3,2.9-6.8,14.1-6.8,14.1l-2.6,30.5l-22.8-3.1c0,0,7.7-22,5.1-28.5
	c-2.1-5.2-3.3-16.1-3.2-18.8C276,258.9,311.3,253.4,311.3,253.4z"/>
<path class="st11" d="M41.1,274.5c0,0,8.9,12.5,13.3,16.6c2.3,2.1,12,10.1,12,10.1l14.7,26.8l19.6-12c0,0-16-17-16.2-24
	c-0.2-5.6-3.5-16-4.7-18.5C75.6,265.3,41.1,274.5,41.1,274.5z"/>
<path class="st21" d="M211.3,365.2c0,0-11.9-12.5-21.4,2.7c0,0-7.4-4.1-12.5,3.2c0,0-13.3-4-16.5,15.9c0,0-6.9-1.3-7.8,6.8
	c-0.6,4.8,0.6,9.6,3.2,13.6c0,0-3.8,2.9-2.1,10.4c1.5,6.4,6.8,7.3,6.8,7.3s1.4,10.7,6.1,14s11,1.7,11,1.7s1.7,5.8,7.1,5.3
	s12.1-5.7,18.2-3.4s21.8-0.1,21.8-0.1s17.7-7.9,12.4-26c0,0,9.3-8.4,1.2-18.5c0,0,6-15.8-5.8-25.1S211.3,365.2,211.3,365.2z"/>
<path class="st11" d="M79.2,807.8c0,0-20.5-2.3-23.9-4s-20.6,14.8-17.2,23c1.9,4.7,8,4.1,8,4.1l4.9-4.8l26,5.4L79.2,807.8z"/>
<path class="st11" d="M196.2,894.2c0,0-10.8,17.6-13.7,19.9s4.7,24.9,13.5,25.3c5,0.2,7.1-5.5,7.1-5.5l-2.3-6.5l15.9-21.3
	L196.2,894.2z"/>
<path class="st21" d="M183.1,913.4c0,0,6.2,7.9,9.6,11.1c3.2,2.9,6.5,5.5,10,8c0,0,6.3,11.5,8,15.5c3.9,8.9,8.2,18.9,7.6,23.9
	c-0.2,1.6-3.8,3.3-6.8,2.4c-12.5-3.8-44.5-33.1-48.5-41C158.3,924.3,183.1,913.4,183.1,913.4z"/>
<path class="st6" d="M274.4,645.7c-1.2-3.3-2.3-6.3-3.4-9.1c-13.3,2.9-28.3,6.1-43.8,9.4l-1.9,56.7c0-4.4,11.6,90.3,11.6,90.3
	s-31.6,62.7-52.1,101.5c8.4,10.5,14.9,15.2,27.1,22.3c31.9-38.2,72.6-105.6,74.4-117.2C287.4,792.9,288.3,684.7,274.4,645.7z"/>
<path class="st7" d="M155.7,662.1c3.6,39.3,9.6,98.7,10.7,118.7c-25.4,3.7-85.4,21.7-96.6,21.7c-4.2,9.5-6.6,21-3.7,30.5
	c0.6,1.9,118.3,5.6,148.8-13.8c7.9-5.1,10.4-59.3,10.5-116.5l1.9-56.7C201.5,651.5,177.8,656.9,155.7,662.1z"/>
<path class="st22" d="M240.2,460.8l-28.9,4.4c0,0-21.8,0.3-27.6,0.4c-0.5,0-23.2,110.6-28.7,152.2s-1.2,49-1.2,49s38.4,8.6,66.9,6.1
	c29.6-2.6,62.8-18.6,62.8-18.6s-34.3-78.2-39.3-103.1S240.2,460.8,240.2,460.8z"/>
<path class="st12" d="M299.6,306.5c0,0-2.5,102.5-5.6,108.8c-4.5,9.2-36.9,74.6-36.9,74.6s24.3,101.8,34.5,136.9
	c1,3.5,5.6,26.4,5.6,28.6c0,4.9-21.5,11.2-24.1,10.8c-2.3-0.3-21-97.1-33-144.5c-4.1-16-11.1-31.2-20.6-44.7l-8.3-11.8l49.4-59.8
	c0,0,10.7-94.6,10.7-100.5C271.4,303.3,296.5,300.7,299.6,306.5z"/>
<path class="st12" d="M183.7,465.6L134.3,391c0,0-32.1-78.4-32.9-81.3s-26,0.4-34-0.4c-2.6-0.3,33.7,82.3,37.4,96
	c4.5,16.3,28.7,79.9,28.7,79.9s16.7,38.1,14.1,67.5c-4.3,48.9-12.9,119.3-10.8,121.4c13,8.2,53.7,7.9,56.9,2.8
	C228.4,621,183.7,465.6,183.7,465.6z"/>
<path class="st11" d="M209.3,450.3l2.2,16c0,0,4.8,23-1.4,27.4s-26.4-28.1-26.4-28.1l2.1-40.5L209.3,450.3z"/>
<path class="st7" d="M185.2,438.2c5.1,13.8,17.3,22.3,26,25.6l-1.8-13.5l-23.5-25.1L185.2,438.2z"/>
<path class="st21" d="M152.9,397.6c0,6.2,3.5,11.2,7.8,11.2s7.8-5,7.8-11.2s-3.5-11.1-7.8-11.1S152.9,391.5,152.9,397.6z"/>
<path class="st21" d="M176.3,373.7c0,3.5,4.3,6.4,9.5,6.4s9.5-2.9,9.5-6.4s-4.3-6.4-9.5-6.4S176.3,370.1,176.3,373.7z"/>
<path class="st11" d="M200.2,382.6c11.2-3.8,23.3,2.2,27,13.4c0.4,1.2,0.7,2.4,0.9,3.6c1,6.8,1.6,13.6,1.7,20.5
	c0.3,18.6-9.3,36.8-17.8,36.8s-31.9-12.1-32.7-38.5C178.8,402,187,387.2,200.2,382.6z"/>
<path class="st11" d="M185.6,420.5c0,4.1-2.7,7.5-6.1,7.5s-6.1-3.3-6.1-7.5s2.7-7.5,6.1-7.5S185.6,416.3,185.6,420.5z"/>
<path class="st21" d="M236.9,373.4c8.8,6.9,11.8,17.5,6.9,23.5s-16.1,5.4-24.8-1.6s-11.8-17.5-6.9-23.5S228.1,366.4,236.9,373.4z"/>
<path class="st21" d="M214,379c0,3-3.6,5.5-8.1,5.5s-8.1-2.4-8.1-5.5s3.6-5.5,8.1-5.5S214,376,214,379z"/>
<ellipse class="st21" cx="231.2" cy="402.2" rx="6.9" ry="7"/>
<path class="st21" d="M56.3,804.1c0,0-4.5,9-6,13.4c-1.3,4.1-2.3,8.2-3.1,12.4c0,0-7.7,10.6-10.6,13.9c-6.5,7.3-14.4,15.9-19.2,17.4
	c-1.5,0.5-5.9-0.8-5.9-4.2c0.2-13.1,12.7-55.8,18.1-62.7C35.9,786.2,56.3,804.1,56.3,804.1z"/>
<path class="st7" d="M46.1,280.8c0,0,6,6.8,13.2,7.8s13.6-6.4,13.6-6.4L46.1,280.8z"/>
<path class="st7" d="M277.6,268l5,7.6c0,0,18.2,1.1,23.8-12L277.6,268z"/>
<path class="st9" d="M283.8,271.2c-71.5-18.8-147.2-14.2-216,13c-10.6,4.3-22.6-0.5-27.4-10.9c-13-30.1-26.1-60.2-39.1-90.3
	c-4.7-10.5,3.2-24.6,18-30.4c94.5-37.4,198.5-43.7,296.8-17.9c15.3,4,24.9,17,21.5,28c-9.3,31.5-18.6,62.9-27.9,94.4
	C306.2,268,294.8,274.2,283.8,271.2z"/>
<path class="st11" d="M69.1,286.9c3.4-3.3,5.5-7.7,5.9-12.5c0-0.9-2.5-9.4,0.7-9.9c5.4-1,7,19.1,7,19.1
	C78.3,285.1,73.7,286.2,69.1,286.9z"/>
<path class="st11" d="M47.6,281.8c3.8,0,7.7-0.5,8-1.9s-1.4-2.2-3.5-2.5c1.5-0.2,2.6-0.6,2.8-1.3c0.4-1.5-1.5-2.3-3.7-2.7
	c1-0.2,1.8-0.6,1.9-1.1c1-3.3-9.4-4-9.4-4s-5.7-1-6.2,1.2c0.1,0.9,0.6,1.7,1.2,2.4c1.1,0.7,1.5,2,1,3.1c0,0.1,0,0.2-0.1,0.2
	c0,0.3,0.1,0.5,0.3,0.6c1,0.8,0.7,3.9,0.6,4c0.1,0.7,0.5,1.4,1.1,1.9c3.1,3,21.8,18.2,24.9,19.4c3.8,1.4,0.7-10.2,0.7-10.2
	S48.5,285.1,47.6,281.8z"/>
<path class="st11" d="M290.7,276c0,0-7.1-2.2-10.5-9c-0.4-0.8-1.5-9.6-4.7-8.8c-5.3,1.3,1.3,20.3,1.3,20.3
	C281.5,278.2,286.2,277.3,290.7,276z"/>
<path class="st11" d="M308.3,262.7c-3.4,1.6-7.2,2.6-8.1,1.5s0.4-2.6,2.2-3.7c-1.5,0.4-2.6,0.5-3.1-0.1c-1-1.2,0.4-2.7,2.3-3.9
	c-1,0.2-1.9,0.2-2.2-0.2c-2.2-2.6,7-7.5,7-7.5s4.8-3.2,6.2-1.4c0.2,0.9,0.2,1.8-0.1,2.6c-0.8,1,0.3,2.3,0.4,2.4
	c0.2,0.6,0.2,1.2,0.1,1.8c-0.5,1.1,1,3.8,1.1,4c0.2,0.7,0.1,1.5-0.3,2.2c-1.7,4-12.5,25.5-14.9,27.8c-2.9,2.8-4.7-9-4.7-9
	S308.8,266.1,308.3,262.7z"/>
<g class="st23">
	<path class="st2" d="M64.2,193.7c3.1-0.2,5.7,0.4,8,1.8c1.2,0.7,2,1.6,2.6,2.7c0.5,1,0.9,2.5,1,4.4l0.2,3.9c0.2,2.7,0.5,4.5,1,5.3
		c0.2,0.4,0.4,0.6,0.6,0.7c0.2,0.1,0.6,0.2,1.1,0.2c0.6,0,0.9,0.4,0.9,1c0.1,0.8-0.2,1.8-0.8,2.7c-0.6,1-1.4,1.8-2.5,2.5
		c-1.3,0.9-2.6,1.4-4.1,1.5c-1.9,0.1-3.4-0.4-4.5-1.6c-0.4-0.4-0.8-0.6-1.1-0.6c-0.4,0-0.8,0.3-1.4,0.8c-1.7,1.4-3.6,2.2-5.9,2.4
		c-2.3,0.2-4.2-0.2-5.7-1.1c-1-0.6-1.8-1.4-2.4-2.4c-0.6-1-1-2.1-1.1-3.2c-0.1-1.8,0.5-3.5,1.9-5c2.1-2.4,5.5-3.8,10.1-4.1
		c1-0.1,1.7-0.2,1.9-0.4c0.3-0.2,0.3-0.7,0.3-1.4c-0.1-1.9-0.4-3.2-0.9-4c-0.4-0.8-1.1-1.2-2-1.1c-0.5,0-1,0.2-1.4,0.6
		c-0.4,0.3-0.9,1-1.4,1.9c-1.4,2.4-3,3.6-4.7,3.7c-0.9,0.1-1.6-0.1-2.2-0.6c-0.6-0.5-0.9-1.1-1-2c-0.1-0.8,0.2-1.7,0.8-2.6
		c0.6-0.9,1.5-1.7,2.6-2.4C57.5,195.1,60.8,194,64.2,193.7z M63.6,209.2c-0.8,0.1-1.4,0.4-2,1.1c-0.5,0.7-0.8,1.5-0.7,2.3
		c0.1,0.8,0.3,1.5,0.8,2c0.4,0.5,1,0.7,1.7,0.7c1.4-0.1,2-1.3,1.9-3.7c-0.1-1-0.2-1.6-0.4-1.9C64.6,209.3,64.2,209.1,63.6,209.2z"/>
	<path class="st2" d="M95,191.5c3.1-0.2,6,0.4,8.5,1.7c2.4,1.3,3.7,3.1,3.8,5.3c0.1,1.5-0.3,2.8-1.3,3.8c-0.9,1-2.1,1.5-3.5,1.6
		c-1.5,0.1-2.6-0.3-3.4-1.3c-0.3-0.3-0.7-1.2-1.2-2.5c-0.6-1.4-1.5-2.1-2.9-2c-1,0.1-1.8,0.6-2.4,1.4c-0.6,0.9-0.9,2-0.8,3.2
		c0.2,2.1,1,3.9,2.7,5.5c1.3,1.2,2.9,1.8,4.8,1.6c0.9-0.1,1.6-0.2,2.2-0.4c0.6-0.2,1.4-0.6,2.3-1.1c0.2-0.1,0.5-0.2,0.8-0.2
		c0.6,0,1.2,0.2,1.7,0.7c0.5,0.5,0.8,1.2,0.8,1.9c0.1,0.8-0.2,1.7-0.8,2.6c-0.6,0.9-1.4,1.7-2.4,2.5c-2.2,1.6-4.8,2.5-8,2.7
		c-3.6,0.3-6.8-0.6-9.5-2.5c-3.5-2.4-5.4-5.7-5.7-9.9c-0.3-4,1-7.4,3.9-10.2C87.3,193.3,90.8,191.8,95,191.5z"/>
	<path class="st2" d="M123.5,189.4c3.1-0.2,6,0.4,8.5,1.7c2.4,1.3,3.7,3.1,3.8,5.3c0.1,1.5-0.3,2.8-1.3,3.8c-0.9,1-2.1,1.5-3.5,1.6
		c-1.5,0.1-2.6-0.3-3.4-1.3c-0.3-0.3-0.7-1.2-1.2-2.5c-0.6-1.4-1.5-2.1-2.9-2c-1,0.1-1.8,0.6-2.4,1.4c-0.6,0.9-0.9,2-0.8,3.2
		c0.2,2.1,1,3.9,2.7,5.5c1.3,1.2,2.9,1.8,4.8,1.6c0.9-0.1,1.6-0.2,2.2-0.4c0.6-0.2,1.4-0.6,2.3-1.1c0.2-0.1,0.5-0.2,0.8-0.2
		c0.6,0,1.1,0.2,1.7,0.7c0.5,0.5,0.8,1.2,0.8,1.9c0.1,0.8-0.2,1.7-0.8,2.6c-0.6,0.9-1.4,1.7-2.4,2.5c-2.2,1.6-4.8,2.5-8,2.7
		c-3.6,0.3-6.8-0.6-9.5-2.5c-3.5-2.4-5.4-5.7-5.7-9.9c-0.3-4,1-7.4,3.9-10.2C115.9,191.2,119.3,189.7,123.5,189.4z"/>
	<path class="st2" d="M162.5,201.2l-12.4,0.9c-0.5,0-0.8,0.3-0.8,0.8c0.1,1.1,0.8,2.2,2.1,3.1c1.3,0.9,2.7,1.3,4.1,1.2
		c0.8-0.1,1.8-0.3,2.8-0.7c1-0.4,1.8-0.9,2.5-1.4c0.6-0.5,1-0.7,1.4-0.7c0.5,0,0.9,0.2,1.4,0.7c0.5,0.5,0.7,1.1,0.8,1.7
		c0.1,1.3-0.6,2.6-2.1,3.9c-2.7,2.3-5.8,3.6-9.5,3.9c-3.7,0.3-6.9-0.6-9.6-2.6c-1.3-1-2.4-2.2-3.3-3.6c-1.2-1.9-1.9-4-2-6.2
		c-0.2-3,0.5-5.7,2.1-8.2c1.4-2.2,3.3-3.8,5.6-5c1.7-0.9,3.7-1.4,5.8-1.6c3.4-0.2,6.3,0.5,8.8,2.2c1.3,0.9,2.3,1.9,3.1,3.2
		c0.9,1.4,1.5,2.8,1.6,4.3c0.1,1.1-0.1,2.1-0.5,2.9C163.8,200.7,163.2,201.1,162.5,201.2z M150.3,197.1l2.7-0.2
		c1.1-0.1,1.7-0.6,1.6-1.7c-0.1-1-0.4-1.7-1-2.3c-0.6-0.6-1.3-0.8-2.2-0.7c-1,0.1-1.7,0.5-2.2,1.3c-0.5,0.8-0.7,1.5-0.6,2.3
		c0,0.5,0.2,0.9,0.5,1.1C149.3,197,149.7,197.1,150.3,197.1z"/>
</g>
<g class="st23">
	<path class="st2" d="M178.7,185.5c1.1-0.1,1.8,0,2,0.1c0.3,0.2,0.4,0.6,0.5,1.4c0,0.7,0.3,1,0.7,0.9c0.2,0,0.7-0.4,1.7-1.1
		c0.7-0.6,1.7-1.1,2.8-1.5c1.1-0.4,2.2-0.7,3.2-0.7c2.2-0.2,4.3,0.5,6.2,1.9c1.4,1.1,2.6,2.5,3.5,4.2c0.9,1.8,1.4,3.8,1.6,5.9
		c0.3,4.4-0.9,8.2-3.7,11.3c-2.1,2.4-4.7,3.7-7.6,3.9c-1.5,0.1-3.1-0.1-4.7-0.7c-0.3-0.1-0.6-0.2-0.8-0.2c-0.5,0-0.8,0.6-0.7,1.6
		c0.1,1.4,0.6,2.4,1.6,2.9c0.9,0.5,1.5,0.9,1.6,1.1c0.2,0.2,0.3,0.5,0.3,1c0.1,1.1-0.5,1.9-1.6,2.6s-2.8,1.1-4.9,1.2
		c-3.8,0.3-7.2-0.2-10.2-1.6c-1.5-0.7-2.3-1.6-2.4-2.7c0-0.5,0-0.9,0.2-1.2c0.2-0.3,0.6-0.6,1.2-1c0.9-0.5,1.4-1.3,1.5-2.4
		c0.1-1.1,0-4.3-0.2-9.6c-0.4-4.3-0.8-6.8-1-7.3c-0.1-0.2-0.2-0.3-0.3-0.3c-0.1,0-0.6-0.1-1.3-0.2c-0.6-0.1-1-0.3-1.4-0.7
		c-0.4-0.4-0.6-0.9-0.6-1.5c-0.1-0.7,0.1-1.3,0.6-1.9c0.5-0.6,1.2-1.2,2.3-1.8C172.8,187,176.1,185.7,178.7,185.5z M182,195.3
		l0.1,7.3c0,0.3,0,0.6,0,0.9c0,0.5,0.3,1,0.8,1.3c0.5,0.3,1.1,0.4,1.9,0.4c2.4-0.2,3.5-2.3,3.2-6.3c-0.2-2.6-0.8-4.4-1.9-5.4
		c-0.7-0.6-1.5-0.9-2.3-0.8C182.6,192.8,182,193.7,182,195.3z"/>
</g>
<g class="st23">
	<path class="st2" d="M217.7,189.5l0.7,8.9c0.1,1.1,0.4,1.9,1,2.5c0.6,0.6,1.3,0.9,2.1,0.9c0.7-0.1,1.6-0.4,2.7-1.2
		c0.3-0.2,0.5-0.3,0.8-0.3c0.4,0,0.8,0.2,1.2,0.7c0.4,0.5,0.6,1,0.7,1.6c0.1,1.1-0.4,2.2-1.6,3.3c-2.4,2.3-5.3,3.6-8.9,3.9
		c-2.8,0.2-5.2-0.4-7-1.9c-1.8-1.5-2.8-3.5-3-6.1l-0.9-12.2c0-0.4-0.1-0.7-0.2-0.7c-0.1-0.1-0.4-0.1-0.8-0.1l-2.7,0.2
		c-0.5,0-0.8,0-1-0.2c-0.2-0.2-0.3-0.5-0.3-1.2l-0.1-1.2c0-0.5,0.2-0.9,0.5-1.2l11.6-8.5c0.3-0.2,0.7-0.3,1.1-0.3l2.1-0.2
		c0.4,0,0.7,0,0.9,0.2c0.2,0.2,0.3,0.6,0.3,1.2l0.3,3.6c0,0.5,0.1,0.9,0.3,1c0.2,0.1,0.5,0.2,1.1,0.2l4.9-0.4c0.7,0,1.1,0,1.3,0.3
		s0.3,0.7,0.4,1.5l0.1,1.6c0.1,0.8,0,1.4-0.2,1.8c-0.2,0.3-0.7,0.5-1.3,0.6l-4.8,0.3c-0.5,0-0.8,0.1-1,0.3
		C217.7,188.7,217.7,189,217.7,189.5z"/>
</g>
<g class="st23">
	<path class="st2" d="M251.8,194.7l-12.4,0.9c-0.5,0-0.8,0.3-0.8,0.8c0.1,1.1,0.8,2.2,2.1,3.1c1.3,0.9,2.7,1.3,4.1,1.2
		c0.8-0.1,1.8-0.3,2.8-0.7c1-0.4,1.8-0.9,2.5-1.4c0.6-0.5,1-0.7,1.4-0.7c0.5,0,0.9,0.2,1.4,0.7c0.5,0.5,0.7,1.1,0.8,1.7
		c0.1,1.3-0.6,2.6-2.1,3.9c-2.7,2.3-5.8,3.6-9.5,3.9c-3.7,0.3-6.9-0.6-9.6-2.5c-1.3-1-2.4-2.2-3.3-3.6c-1.2-1.9-1.9-4-2-6.2
		c-0.2-3,0.5-5.7,2.1-8.2c1.4-2.2,3.3-3.8,5.6-5c1.7-0.9,3.7-1.4,5.8-1.6c3.4-0.2,6.3,0.5,8.8,2.2c1.3,0.9,2.3,1.9,3.1,3.2
		c0.9,1.4,1.5,2.8,1.6,4.3c0.1,1.1-0.1,2.1-0.5,2.9C253.1,194.2,252.5,194.6,251.8,194.7z M239.6,190.6l2.7-0.2
		c1.1-0.1,1.7-0.6,1.6-1.7c-0.1-1-0.4-1.7-1-2.3c-0.6-0.6-1.3-0.8-2.2-0.7c-1,0.1-1.7,0.5-2.2,1.3c-0.5,0.8-0.7,1.5-0.6,2.3
		c0,0.5,0.2,0.9,0.5,1.1C238.5,190.5,239,190.6,239.6,190.6z"/>
	<path class="st2" d="M285.4,169.9l1.8,24.2c0.1,1.4,0.2,2.3,0.4,2.6c0.1,0.4,0.5,0.7,1,1.1c0.7,0.4,1.1,0.8,1.4,1.1
		c0.2,0.3,0.4,0.7,0.4,1.2c0.1,1.4-1.2,2.6-4,3.5c-2.5,0.8-5,1.4-7.6,1.5c-0.6,0-0.9,0-1.1-0.2c-0.2-0.2-0.3-0.5-0.4-1.2
		c-0.2-0.9-0.5-1.3-1.1-1.3c-0.3,0-0.7,0.3-1.3,0.9c-1.7,1.6-3.6,2.5-5.8,2.6c-2.7,0.2-5.3-0.6-7.6-2.5c-1.4-1.1-2.5-2.5-3.4-4
		c-1.2-2-1.9-4-2-6.2c-0.2-2.5,0.3-4.9,1.5-7.4c1.1-2.2,2.7-4,4.8-5.3c1.8-1.1,3.5-1.7,5.3-1.8c2-0.1,3.9,0.2,5.6,1
		c0.3,0.1,0.5,0.2,0.7,0.2c0.6,0,0.8-0.8,0.7-2.3c0-0.7-0.2-1.1-0.6-1.5s-0.9-0.6-1.7-0.8c-1.1-0.3-1.7-0.8-1.8-1.7
		c-0.1-1.3,1.1-2.4,3.6-3.3c4.4-1.6,7.4-2.4,8.9-2.5C284.5,167.8,285.3,168.5,285.4,169.9z M272,184.3c-1.1,0.1-2,0.8-2.6,2
		c-0.8,1.7-1.1,3.9-0.9,6.5c0.2,2.4,0.7,4.2,1.7,5.3c0.7,0.8,1.6,1.2,2.6,1.1c1.1-0.1,1.9-0.8,2.4-2.2c0.4-1.4,0.5-3.5,0.3-6.5
		c-0.2-2.7-0.6-4.5-1.3-5.4C273.6,184.6,272.9,184.3,272,184.3z"/>
</g>
<g class="st23">
	<path class="st7" d="M957.3,321.8c6.7,0.4,12.5,2.6,17.3,6.8c3.2,2.8,5.8,6.4,7.7,10.7c1.8,4.3,2.6,8.5,2.4,12.7
		c-0.4,6.2-2.7,11.6-7.1,16.2c-3.7,3.9-8.4,6.6-14,8.1c-3.5,0.9-6.9,1.3-10.4,1.1c-4.5-0.3-8.8-1.4-12.8-3.6
		c-4.9-2.6-8.6-6.2-11.1-11c-2.5-4.6-3.6-9.6-3.3-14.9c0.4-6.2,2.4-11.6,6.2-16.1c3.4-4,7.8-6.9,13.2-8.6
		C948.9,322,952.9,321.5,957.3,321.8z M952.9,332.8c-2.2-0.1-4,0.8-5.4,2.6c-1.1,1.4-1.7,3.1-1.8,5.1c-0.2,3,0.2,6.4,1.2,10.3
		c1,3.9,2.3,7.5,4,10.6c0.7,1.3,1.7,2.4,2.8,3.2c1.1,0.8,2.3,1.3,3.6,1.3c2,0.1,3.6-0.5,4.9-2c1.3-1.4,2-3.3,2.2-5.8
		c0.2-3.2-0.1-6.6-0.9-10.3s-1.9-6.9-3.4-9.6c-0.9-1.6-2-3-3.2-4C955.5,333.5,954.2,332.9,952.9,332.8z"/>
	<path class="st7" d="M1034.2,338l-4.4,3.8c-1.6,1.4-2.5,2.7-2.5,3.9c0,0.7,0.1,1.3,0.4,2c0.3,0.7,0.9,1.6,1.8,2.8l13.7,17.8
		c1.2,1.6,2.1,2.6,2.5,3c0.5,0.4,1.2,0.9,2.2,1.4c1.4,0.7,2.3,1.4,2.9,2.2c0.5,0.8,0.8,1.7,0.7,2.9c-0.2,2.8-2.2,4-6.2,3.8
		l-14.8-0.9c-1-0.1-1.8-0.3-2.4-0.8c-0.6-0.5-1.4-1.6-2.6-3.5c-1.9-2.9-4.4-6.3-7.5-10.1c-1.4-1.7-2.3-2.7-2.9-3.3
		c-0.6-0.5-1.1-0.8-1.6-0.8c-1.5-0.1-2.4,1.3-2.5,4.1c-0.1,2.3,0.3,4,1.2,4.9c0.2,0.1,0.6,0.5,1.2,0.9c1.4,1,2,2.2,1.9,3.5
		c-0.1,1.7-1.3,2.9-3.7,3.5c-2.3,0.6-6.2,0.8-11.7,0.5c-4.8-0.3-8.3-0.8-10.5-1.5c-0.9-0.3-1.7-0.8-2.2-1.6s-0.8-1.5-0.7-2.4
		c0.1-1.4,0.9-2.5,2.6-3.4c0.7-0.4,1.3-0.9,1.6-1.5c0.3-0.5,0.7-1.5,1-2.8c0.7-2.9,1.2-7.4,1.6-13.6c0.4-7.3,0.4-12.5,0.1-15.6
		c-0.1-1.3-0.4-2.2-0.7-2.8c-0.3-0.6-0.9-1.1-1.8-1.7c-1.4-0.9-2.1-2.1-2-3.6c0.1-1.3,0.6-2.2,1.5-2.9c1-0.7,2.5-1.2,4.5-1.5
		c2.7-0.4,6-0.4,10.1-0.2c4.1,0.2,7.1,0.8,9.1,1.7c1.7,0.8,2.5,2.2,2.4,4.1c0,0.8-0.2,1.4-0.5,1.8c-0.3,0.4-1,1-2.3,1.9
		c-0.4,0.3-0.9,1.2-1.3,2.6c-0.4,1.4-0.7,2.7-0.8,4c-0.1,2.2,0.3,3.3,1.3,3.4c0.6,0,1.2-0.2,1.8-0.7c0.6-0.5,1.8-1.7,3.6-3.7
		c2.1-2.3,3.2-3.9,3.2-4.8c0-0.5-0.2-1.2-0.6-2.2c-0.3-0.7-0.4-1.3-0.4-1.8c0.1-1.9,1.2-3.2,3.4-3.9c2.1-0.7,5.7-0.9,10.8-0.6
		c4,0.2,7,0.7,8.9,1.3c2.3,0.8,3.4,2.2,3.3,4.4c0,0.8-0.3,1.6-0.9,2.3c-0.5,0.7-1.2,1.1-1.9,1.3c-0.6,0.2-1.8,0.2-3.8,0.1
		c-1.4-0.1-2.4,0.1-3.1,0.3C1036.3,336.4,1035.4,337,1034.2,338z"/>
</g>
</svg>
