<?xml version="1.0" encoding="utf-8"?>
<!-- Generator: Adobe Illustrator 22.1.0, SVG Export Plug-In . SVG Version: 6.00 Build 0)  -->
<svg version="1.1" id="OBJECTS" xmlns="http://www.w3.org/2000/svg" xmlns:xlink="http://www.w3.org/1999/xlink" x="0px" y="0px"
	 viewBox="0 0 638.1 393.3" style="enable-background:new 0 0 638.1 393.3;" xml:space="preserve">
<style type="text/css">
	.st0{fill:#8B77E6;}
	.st1{fill:#F9F1D2;}
	.st2{fill:#D2EDFC;}
	.st3{fill:#F4E0BD;}
	.st4{fill:#BBBBF6;}
	.st5{fill:#F4E2BD;}
	.st6{fill:#F4F5F9;}
	.st7{fill:#918B51;}
	.st8{fill:#F7F0E7;}
	.st9{fill:#9E9E61;}
	.st10{fill:#F4F1BD;}
	.st11{fill:#F9E9DE;}
	.st12{fill:#353D70;}
	.st13{fill:#272D59;}
	.st14{fill:#E76D60;}
	.st15{fill:#31275B;}
	.st16{fill:#FCB187;}
	.st17{fill:#F49677;}
	.st18{fill:#FFFFFF;}
	.st19{fill:#664434;}
	.st20{fill:#704D35;}
	.st21{fill:#6D5F4E;}
	.st22{fill:#FCCCB1;}
	.st23{fill:#779CE5;}
	.st24{fill:#DAEDF7;}
	.st25{fill:#7794E5;}
	.st26{fill:#DAF1F7;}
	.st27{fill:#F4DFBD;}
	.st28{fill:#F1EFFD;}
	.st29{fill:#457035;}
	.st30{fill:#2E5927;}
	.st31{fill:#BDE2A8;}
	.st32{fill:#E9FCDB;}
	.st33{fill:#F5FCF0;}
	.st34{fill:#A2C98B;}
	.st35{fill:#AFD6A5;}
	.st36{fill:#C9C0ED;}
	.st37{fill:#C1DFEA;}
	.st38{fill:#263A56;}
</style>
<g>
	<path class="st0" d="M571.8,119.3c0-0.4,0.3-0.7,0.7-0.7s0.7,0.3,0.7,0.7v3.2c0,0.4-0.3,0.7-0.7,0.7s-0.7-0.3-0.7-0.7V119.3z
		 M567,121.9c-0.3-0.3-0.3-0.7,0-1s0.7-0.3,1,0l2.3,2.3c0.3,0.3,0.3,0.7,0,1s-0.7,0.3-1,0L567,121.9z M565.4,127.2
		c-0.4,0-0.7-0.3-0.7-0.7c0-0.4,0.3-0.7,0.7-0.7h3.2c0.4,0,0.7,0.3,0.7,0.7c0,0.4-0.3,0.7-0.7,0.7H565.4z M568,132
		c-0.3,0.3-0.7,0.3-1,0s-0.3-0.7,0-1l2.3-2.3c0.3-0.3,0.7-0.3,1,0s0.3,0.7,0,1L568,132z M573.2,133.6c0,0.4-0.3,0.7-0.7,0.7
		s-0.7-0.3-0.7-0.7v-3.2c0-0.4,0.3-0.7,0.7-0.7s0.7,0.3,0.7,0.7V133.6z M578,131c0.3,0.3,0.3,0.7,0,1s-0.7,0.3-1,0l-2.3-2.2
		c-0.3-0.3-0.3-0.7,0-1s0.7-0.3,1,0L578,131z M579.6,125.7c0.4,0,0.7,0.3,0.7,0.7c0,0.4-0.3,0.7-0.7,0.7h-3.2
		c-0.4,0-0.7-0.3-0.7-0.7c0-0.4,0.3-0.7,0.7-0.7H579.6z M577,120.9c0.3-0.3,0.7-0.3,1,0s0.3,0.7,0,1l-2.3,2.3c-0.3,0.3-0.7,0.3-1,0
		s-0.3-0.7,0-1L577,120.9z"/>
	<path class="st1" d="M113.4,0C69.9,0,34.3,35.6,34.3,79.2l0,0c0,43.5,35.6,79.1,79.1,79.1l0,0c8.7,0,15.9,7.2,15.9,15.9l0,0
		c0,8.7-7.1,15.9-15.9,15.9H72c-21.2,0-38.6,17.4-38.6,38.6l0,0c0,21.2,17.4,38.6,38.6,38.6c18.4,0,33.4,15,33.4,33.4l0,0l0,0
		c0,33.5,27.4,60.9,60.9,60.9h18.2l0,0h268.3H524c43.5,0,79.1-35.6,79.1-79.2l0,0c0-43.5-35.6-79.1-79.1-79.1h-55.8
		c-8.7,0-15.9-7.2-15.9-15.9l0,0c0-8.7,7.2-15.9,15.9-15.9h14.2c21.2,0,38.6-17.4,38.6-38.6l0,0c0-21.2-17.3-38.6-38.5-38.6h-4.1
		c-18.4,0-33.4-15-33.4-33.4l0,0l0,0C444.9,27.4,417.5,0,384,0C324.5,0,172.9,0,113.4,0L113.4,0z"/>
	<path class="st2" d="M572.5,172.6c21.1,0,38.3-17.1,38.3-38.3c0-21.1-17.1-38.3-38.3-38.3c-21.1,0-38.3,17.1-38.3,38.3
		C534.2,155.4,551.4,172.6,572.5,172.6L572.5,172.6z"/>
	<g>
		<rect x="128.2" y="43.1" class="st3" width="37.1" height="11.2"/>
		<rect x="73.1" y="56.6" class="st3" width="37.1" height="11.2"/>
		<rect x="111.9" y="56.6" class="st3" width="37.1" height="11.2"/>
		<rect x="89.3" y="70.1" class="st3" width="37.1" height="11.2"/>
		<rect x="73.1" y="83.6" class="st3" width="37.1" height="11.2"/>
		<rect x="111.9" y="83.6" class="st3" width="37.1" height="11.2"/>
	</g>
	<rect x="152.2" y="289.6" class="st4" width="37.1" height="11.2"/>
	<rect x="191" y="289.6" class="st4" width="37.1" height="11.2"/>
	<rect x="136" y="303.1" class="st4" width="37.1" height="11.2"/>
	<rect x="174.8" y="303.1" class="st3" width="37.1" height="11.2"/>
	<rect x="191" y="316.6" class="st3" width="37.1" height="11.2"/>
	<rect x="136" y="330.1" class="st4" width="37.1" height="11.2"/>
	<rect x="174.8" y="330.1" class="st3" width="37.1" height="11.2"/>
	<g>
		<path class="st5" d="M215.2,34.1h163.2c4.2,0,7.6,3.4,7.6,7.6v232.7h5.8c2.8,0,5.1,2.3,5.1,5.1v20.8c0,2.8-2.3,5.1-5.1,5.1h-190
			c-2.8,0-5.1-2.3-5.1-5.1v-20.8c0-2.8,2.3-5.1,5.1-5.1h5.8V41.7C207.6,37.5,211,34.1,215.2,34.1L215.2,34.1z"/>
		<path class="st6" d="M211,32.3h163.2c4.2,0,7.6,3.4,7.6,7.6v236.3c0,4.2-3.4,7.6-7.6,7.6H211c-4.2,0-7.6-3.4-7.6-7.6V39.9
			C203.4,35.7,206.8,32.3,211,32.3L211,32.3z"/>
		<rect x="217.3" y="163.8" class="st7" width="150.6" height="98.6"/>
		<g>
			<rect x="217.3" y="46.2" class="st8" width="150.6" height="120.2"/>
			<path class="st9" d="M232.1,61v37.8h53V61H232.1z M232.1,113.7v37.8h53v-37.8H232.1z M300,151.5h53v-37.8h-53V151.5z M353,98.9
				V61h-53v37.8L353,98.9L353,98.9z"/>
			<path class="st10" d="M347,89.5l-9.3,9.3H313l31.5-31.5h2.4v22.2H347z M323.8,67.3h10.7L303,98.8h-3V91L323.8,67.3z M285.2,145.2
				h-18.5l18.5-18.5V145.2z M256.5,145.2h-10.7l31.5-31.5h7.8v2.9L256.5,145.2z M322.9,113.7L300,136.6v-22.9
				C300,113.7,322.9,113.7,322.9,113.7z"/>
		</g>
		<path class="st11" d="M197.6,272.6h189.9c2.8,0,5.1,2.3,5.1,5.1v20.8c0,2.8-2.3,5.1-5.1,5.1H197.6c-2.8,0-5.1-2.3-5.1-5.1v-20.8
			C192.6,274.9,194.8,272.6,197.6,272.6L197.6,272.6z"/>
		<g>
			<path class="st12" d="M297.8,176.3l-2,0.2h-1.2l-1.2-0.1l-1.9-0.4l-11.1-11.4l-25.5,11.2c0.8,40.1-3.4,58.9-8.3,86.5H324
				c0.1-11.9,4.9-29.5,5.9-39.1l4.4-44.3l-24.5-13.2L297.8,176.3z"/>
			<path class="st13" d="M302.5,262.5h14c3-2.5,6-4.7,7.9-5.6c1.1-11.3,4.7-25.3,5.6-33.5l0.1-1.3c-0.3-3.1-0.7-6.4-1-9.9
				c-1.4-13.1,1.7-21.9,4.7-27.1l0.6-6l-24.5-13.2l-3.9,3.4l-1.3,6.3c0,0,13.3,10.2,14.9,15.8s-4,44.1-8,60.8
				C310.4,256.2,307,259.6,302.5,262.5L302.5,262.5z"/>
			<path class="st13" d="M254.9,177.5c0.4,24.6-1.1,41.1-3.5,56.8l0,0c0,0,13-48.7,11.6-50C261.8,183.3,260.4,182.2,254.9,177.5
				L254.9,177.5z"/>
			<path class="st13" d="M308.6,163c-8.9-4.3-17.7-4.6-26.9-1.1l1.4,4.3l23.8,0.9L308.6,163z"/>
			<path class="st13" d="M297.8,176.3l-2,0.2l-2.4-0.1l-1.9-0.4l-7.5-7.6l-1.2,0.3l-2.6,3.2c0,0,5.1,13.3,5.4,13.8s0.9,0.7,1.8-0.3
				s3.7-4.3,3.7-4.3s0.8-0.8,1.1,0.2c0.3,0.9,4.4-1.4,4.4-1.4l0.2,0.9c0,0,0.6-0.7,1.2,0.3s3.3,5.2,3.5,5.4s1.1,0.8,1.8-0.4
				c0.6-1.2,7.9-16,9.2-18.5l-2.9-1.6L297.8,176.3z"/>
			<path class="st13" d="M297.8,176.3l-2,0.2l-2.4-0.1l-1.9-0.4l-0.7-0.8L289,178c0,0,3.6,1.3,3.5,4.5l-7,79.9h3.9l7-79.7
				c0.3-3.2,3.8-4.2,3.8-4.2l-1.5-2.9L297.8,176.3z"/>
			<path class="st14" d="M295.9,143.4L295.9,143.4c5.6,0.2,10,5,9.8,10.6l-0.5,13.5c-0.2,5.6-5,10-10.6,9.8l0,0
				c-5.6-0.2-10-5-9.8-10.6l0.5-13.5C285.5,147.6,290.3,143.1,295.9,143.4L295.9,143.4z"/>
			<path class="st15" d="M292.3,175.1l1.2-0.1c0,0,0.2,0.3,0.2,0.7s0,1.7,0,1.7c-0.4,0.1-2.7,0.5-2.7,0.2
				C291,177.5,292.3,175.1,292.3,175.1L292.3,175.1z"/>
			<path class="st15" d="M297,175.3l-1.2-0.2c0,0-0.2,0.2-0.3,0.7c-0.1,0.4-0.1,1.7-0.1,1.7c0.4,0.4,2.7,0.7,2.6,0.4
				C298.1,177.7,297,175.3,297,175.3L297,175.3z"/>
			<path class="st12" d="M308.6,163c0.1,0.1,1.5,2.7,2.2,4c0,0,0.6,1,0.1,2.7c-0.6,1.7-7.7,15.3-7.7,15.3s-0.5,0.7-1.2,0
				s-6.1-9.8-6.1-9.8l11.3-11C307.7,163.4,308.5,162.9,308.6,163L308.6,163z"/>
			<path class="st12" d="M281.7,161.9c-0.1,0-1.7,2.6-2.5,3.8c0,0-0.7,1-0.3,2.7c0.4,1.7,6.5,15.8,6.5,15.8s0.4,0.7,1.2,0.1
				c0.8-0.7,6.9-9.3,6.9-9.3L283,163.1C282.3,162.2,281.8,161.9,281.7,161.9L281.7,161.9z"/>
			<path class="st14" d="M275.7,130.6c-0.2,0-0.3,0-0.5,0l0,0l0,0c-2.8,0.2-5.3,2.3-5.8,5.2c-0.6,3.4,1.7,6.6,5.1,7.2
				c3.4,0.6,6.6-1.7,7.2-5.1c0.3-2-0.3-3.9-1.6-5.2c-0.1,1.8-0.7,4.1-3.1,3.9l0.6-3.5C277.9,131.6,276.7,130.7,275.7,130.6
				L275.7,130.6z"/>
			<path class="st14" d="M320.2,137.1c0.1,0,0.3,0.1,0.4,0.1l0,0l0,0c2.7,1,4.4,3.7,4,6.6c-0.4,3.4-3.5,5.8-7,5.4
				c-3.4-0.4-5.8-3.5-5.4-7c0.2-2,1.4-3.6,3-4.6c-0.4,1.8-0.5,4.1,1.8,4.7l0.5-3.6C317.8,137.4,319.2,136.9,320.2,137.1L320.2,137.1
				z"/>
			<path class="st16" d="M302.4,103L302.4,103c-11.6-1.7-22.5,6.4-24.2,18.1l-2.8,19.2c-1.7,11.6,6.4,22.5,18.1,24.2l0,0
				c11.6,1.7,22.5-6.4,24.2-18.1l2.8-19.2C322.2,115.6,314.1,104.7,302.4,103L302.4,103z"/>
			<path class="st17" d="M290.5,163.8c1,0.3,2,0.5,3,0.7l0,0c11.6,1.7,22.5-6.4,24.2-18.1l2.8-19.2c0.5-3.5,0.1-6.9-1-10
				c-8.5-2.5-15.8-4.6-15.8-4.6s-26.9,0-24,7.4l0.8,1.2c0,0,2.3-2.1,6.4-1.1s17.8,4.6,22.3,6.2c4.5,1.7,5.7,5,5,9.6
				s-0.2,6.4,0.9,7.1C315.2,143.1,313.4,163.8,290.5,163.8L290.5,163.8z"/>
			<path class="st18" d="M290.3,148.3c-0.6,3,1.4,5.9,4.4,6.4c3,0.6,5.9-1.4,6.4-4.4l0,0c0.1-0.5-0.2-1-0.8-1.1l-9-1.7
				C290.9,147.5,290.4,147.8,290.3,148.3L290.3,148.3z"/>
			<path class="st18" d="M291.5,152.9c0.8,0.9,1.9,1.6,3.2,1.8c1.1,0.2,2.1,0.1,3-0.3c-0.2-1.2-1.3-2.3-2.7-2.6
				C293.6,151.6,292.3,152,291.5,152.9L291.5,152.9z"/>
			<path class="st18" d="M300.5,149.3l-8.4-1.6c-0.3,0.9-0.1,1.9,0.5,2.3c0.7,0.4,6.8,1.4,7.4,1C300.2,150.7,300.4,150,300.5,149.3
				L300.5,149.3z"/>
			<path class="st14" d="M308.4,146.2c-1.5-0.3-3,0.8-3.2,2.3s0.8,3,2.3,3.2s3-0.8,3.2-2.3C311,147.9,309.9,146.4,308.4,146.2
				L308.4,146.2z"/>
			<path class="st14" d="M284.6,142.2c-1.5-0.2-3,0.8-3.2,2.3s0.8,3,2.3,3.2s3-0.8,3.2-2.3S286.1,142.5,284.6,142.2L284.6,142.2z"/>
			<path class="st15" d="M288.4,139.8c0.1-0.5-0.1-1-0.4-1.5c-0.3-0.4-0.8-0.7-1.3-0.8s-1,0.1-1.5,0.4c-0.4,0.3-0.7,0.8-0.8,1.3
				c-0.1,0.4-0.4,0.7-0.9,0.6c-0.4-0.1-0.7-0.4-0.6-0.9c0.1-0.9,0.6-1.7,1.4-2.3c0.7-0.5,1.7-0.8,2.6-0.7s1.7,0.6,2.3,1.4
				c0.6,0.7,0.8,1.7,0.7,2.6c-0.1,0.4-0.4,0.7-0.9,0.6C288.6,140.6,288.3,140.2,288.4,139.8L288.4,139.8z M310.2,142.9
				c0.1-0.5-0.1-1-0.4-1.5c-0.3-0.4-0.8-0.7-1.3-0.8s-1,0.1-1.5,0.4c-0.4,0.3-0.7,0.8-0.8,1.3c-0.1,0.4-0.4,0.7-0.9,0.6
				c-0.4-0.1-0.7-0.4-0.6-0.9c0.1-0.9,0.6-1.7,1.4-2.3c0.7-0.5,1.7-0.8,2.6-0.7s1.7,0.6,2.3,1.4c0.6,0.7,0.8,1.7,0.7,2.6
				c-0.1,0.4-0.4,0.7-0.9,0.6C310.4,143.7,310.1,143.4,310.2,142.9L310.2,142.9z M311.8,136.1c-1.5-1-3.4-1.5-5.2-0.8
				c-0.4,0.2-0.8,0-1-0.4s0-0.8,0.4-1c2.1-0.9,4.8-0.4,6.6,0.9c0.3,0.2,0.4,0.7,0.2,1.1C312.6,136.3,312.1,136.4,311.8,136.1
				L311.8,136.1z M284.8,132.2c-0.4,0.1-0.8-0.1-1-0.5c-0.1-0.4,0.1-0.8,0.5-1c2.1-0.7,4.8-0.5,6.6,1c0.3,0.3,0.4,0.7,0.1,1.1
				c-0.3,0.3-0.7,0.4-1.1,0.1C288.5,131.8,286.5,131.7,284.8,132.2L284.8,132.2z"/>
			<path class="st19" d="M276,136.7c0,0,3.3-0.8,4.1-6.2c0.8-5.4,0.6-4.1,1-6.9s3.1-7.5,8.8-6.6c5.7,0.8,10.3,1.5,10.3,1.5
				s4.6,0.7,10.3,1.5c5.7,0.8,7,6.1,6.5,8.9c-0.4,2.8-0.2,1.5-1,6.9s2.2,7.1,2.2,7.1c0.6-4.3,2.2-5.8,2.2-5.8s0.8-5.7,1.6-10.8
				c0.7-5,0.3-11.9-5.6-17.5s-13.8-6.6-13.8-6.6s-7.8-1.2-15.1,2.4c-7.2,3.7-9.6,10.2-10.4,15.2c-0.7,5-1.6,10.7-1.6,10.7
				S276.6,132.5,276,136.7L276,136.7z"/>
			<path class="st20" d="M289.9,117c0,0,9.6,10.5,24.1,4.3c0,0,6.2-3.6,8.1-0.9c0,0,4.3-11.3-5.4-14.2c0,0,2.2-1.1,2.1-2.6
				s-3.3-5.8-13.3-3.6c0,0,0.3-3.6-2.9-4.6c-3.2-1-13.9,2.6-16.5,9.9C286.1,105.4,284,110.8,289.9,117L289.9,117z"/>
			<path class="st21" d="M322.9,113.4c-0.1-0.5-0.2-1-0.3-1.6c-2.8,1.5-8.8,3.5-18.1,1c-8.2-2.1-8.9-10.4-8.2-16.5
				c-3,1.1-6.2,3-8.3,5.7c0,3,1.6,7.4,8.3,11.9C305.9,120.5,318.1,115.7,322.9,113.4L322.9,113.4z"/>
			<path class="st16" d="M198.6,88v1.6c0,0,0.8,0.3,1.4,1.6c0.6,1.3,0.9,2.3,0.9,2.3l8.6-3.1v-0.7l-0.7-2c0,0-0.2-0.4,0-0.6
				l-4.3-1.9L198.6,88z"/>
			<path class="st12" d="M278.7,165.4c0,0-41-21.4-47.5-28.7s-9.5-17.5-19.5-46.6c0,0-0.4-1.4-2.5-1.2c-2.1,0.1-8,2.2-8.8,3.2
				s-1.3,2-1,3.4s12,46.7,15.3,53.5s33.3,34.7,39.6,41.2C260.6,196.7,278.7,165.4,278.7,165.4L278.7,165.4z"/>
			<path class="st13" d="M207.6,89.2c-2.6,0.6-6.5,2.1-7.1,2.9c-0.8,1-1.3,2-1,3.4s12,46.7,15.3,53.5s33.3,34.7,39.6,41.2
				c1.9,2,5.1,0.4,8.4-2.9c0.3-1.7,0.4-2.8,0.2-3c-1.4-1.3-3.4-2.9-13.9-11.7c-10.6-8.8-26.9-23.9-29.7-29.5
				c-2.7-5.6-11.1-35.2-13.8-44.1C202.9,90.6,207.2,89.3,207.6,89.2L207.6,89.2z"/>
			<path class="st16" d="M211.1,78.2c0.6-3.2,2.4-5.5,3.1-6.2c1-1-3.6-3.8-5.4,1c0,0-1.6,1.8-2.5,1.3s-2.4-14.7-2.5-16.2
				c-0.2-1.5-1.9-1.7-2.4-1.2c-0.5,0.4-0.2,2.7-0.1,5.5c0.1,2.9,0.3,6.1,0,6.3c-0.2,0.3-0.9,0.3-1.6-1.2c-0.7-1.5-4.1-10.1-4.9-10.5
				c-0.8-0.4-2.2,0.4-2,1.8c0.1,1.4,3.9,10,4.1,11.2c0.1,1.3-1.1,1.2-1.7,0.5c-0.6-0.7-6-9.4-6.7-9.8c-0.7-0.4-2.1,0.4-1.6,1.9
				c0.5,1.5,5.4,10,5.3,10.7c0,0.7-1,1.3-2.6,0.1c-1.6-1.1-4.6-3.8-5.2-3.8c-0.6,0-1.3,1.8,0.1,3.2c1.4,1.4,4.8,5.1,5.2,5.7
				c2.3,3.2,3.4,6.7,5.6,9c0.8,0.8,1.8,1.4,2.9,1.8c2.7,1,6,0.8,8.5-0.6C211.1,86.5,210.3,82.6,211.1,78.2L211.1,78.2z"/>
			<path class="st16" d="M279.5,270.3l-2.7,2.3h-22.6c0,0,0.9-2.8,2.4-3.7c0,0,0.6-0.3,1.3-0.3c0,0,0.7-0.9,1.8-1.4
				c1.1-0.4,6.3-1.7,9.1-2.2c2.8-0.5,5.4,0.5,6.8,0.5c1.3,0,3.4-0.3,3.4-0.3L279.5,270.3z"/>
			<path class="st12" d="M334.3,179.1c0,0,4.2,2.9,6.2,11.8c2,8.9,7,54,8,61.8s0.6,20-16.6,20c-17.3,0-39.2,0-46.1,0s-9,0-9,0
				s0-5.9,0-8s1.4-2.8,2.8-2.8s43.4-4.6,45.4-5.1c2-0.6,3-1.7,3-4.1c0.1-2.4-6.8-30.1-8.2-40.5C318.3,201.6,324.4,178.8,334.3,179.1
				L334.3,179.1z"/>
			<path class="st13" d="M348.7,256.5c0.2,7.4-2.3,16.1-16.9,16.1c-17.3,0-39.2,0-46.1,0s-9,0-9,0v-6.3c1.3,1.7,4.1,3.6,9.4,3.6
				c9.4,0,36.4,0,43.3,0C336.1,269.9,348.5,265.1,348.7,256.5L348.7,256.5z"/>
			<path class="st13" d="M319.8,212c1,7,4.4,22,6.5,31.7c1,4.6,1.7,8.1,1.7,8.9c-0.1,2.2-0.9,3.3-2.6,3.9c4.2-0.7,5.6-2.6,6.3-5.3
				c0.6-2.2,0.1-11.7-1.7-29.1c-0.3-3.1-0.7-6.4-1-9.9c-1.4-13.1,1.7-21.9,4.7-27.1c0.9-1.6,1.9-2.9,2.6-3.8
				c-1.2-1.6-2.1-2.2-2.1-2.2C324.4,178.8,318.3,201.6,319.8,212L319.8,212z"/>
			<path class="st22" d="M292.7,144.8c0,0,1.9-2,2.5-2.5s0.7,0.1,0.7,0.9c-0.1,0.8,0.1,2.3-0.3,2.6c-0.4,0.4-2.5,0-2.9-0.2
				C292.2,145.5,292.7,144.8,292.7,144.8L292.7,144.8z"/>
		</g>
	</g>
	<path class="st23" d="M154.6,189c0-0.3,0.3-0.6,0.6-0.6c0.4,0,0.6,0.3,0.6,0.6v2.8c0,0.3-0.3,0.6-0.6,0.6s-0.6-0.3-0.6-0.6V189z
		 M150.3,191.3c-0.2-0.2-0.2-0.6,0-0.9c0.2-0.2,0.6-0.2,0.9,0l2,2c0.2,0.2,0.2,0.6,0,0.9c-0.2,0.2-0.6,0.2-0.9,0L150.3,191.3z
		 M148.9,195.9c-0.3,0-0.6-0.3-0.6-0.6s0.3-0.6,0.6-0.6h2.8c0.4,0,0.6,0.3,0.6,0.6s-0.3,0.6-0.6,0.6H148.9z M151.2,200.2
		c-0.2,0.2-0.6,0.2-0.9,0c-0.2-0.2-0.2-0.6,0-0.9l2-2c0.2-0.2,0.6-0.2,0.9,0c0.2,0.3,0.2,0.6,0,0.9L151.2,200.2z M155.8,201.6
		c0,0.3-0.3,0.6-0.6,0.6s-0.6-0.3-0.6-0.6v-2.8c0-0.3,0.3-0.6,0.6-0.6c0.4,0,0.6,0.3,0.6,0.6V201.6z M160.1,199.3
		c0.2,0.2,0.2,0.6,0,0.9c-0.2,0.2-0.6,0.2-0.9,0l-2-2c-0.2-0.2-0.2-0.6,0-0.9c0.2-0.2,0.6-0.2,0.9,0L160.1,199.3z M161.5,194.7
		c0.4,0,0.6,0.3,0.6,0.6s-0.3,0.6-0.6,0.6h-2.8c-0.3,0-0.6-0.3-0.6-0.6s0.3-0.6,0.6-0.6H161.5z M159.2,190.4c0.2-0.2,0.6-0.2,0.9,0
		c0.2,0.2,0.2,0.6,0,0.9l-2,2c-0.2,0.2-0.6,0.2-0.9,0c-0.2-0.3-0.2-0.6,0-0.9L159.2,190.4z"/>
	<g>
		<path class="st24" d="M32.5,297.2H36c0.6,0,1.2,0.5,1.2,1.2v3.5c0,0.6-0.5,1.2-1.2,1.2h-3.5c-0.7,0-1.2-0.5-1.2-1.2v-3.5
			C31.3,297.7,31.9,297.2,32.5,297.2L32.5,297.2z"/>
		<path class="st24" d="M44.6,297.2h3.5c0.6,0,1.2,0.5,1.2,1.2v3.5c0,0.6-0.5,1.2-1.2,1.2h-3.5c-0.6,0-1.2-0.5-1.2-1.2v-3.5
			C43.4,297.7,43.9,297.2,44.6,297.2L44.6,297.2z"/>
		<path class="st24" d="M56.7,297.2h3.5c0.6,0,1.2,0.5,1.2,1.2v3.5c0,0.6-0.5,1.2-1.2,1.2h-3.5c-0.6,0-1.2-0.5-1.2-1.2v-3.5
			C55.5,297.7,56,297.2,56.7,297.2L56.7,297.2z"/>
		<path class="st24" d="M68.7,297.2h3.5c0.7,0,1.2,0.5,1.2,1.2v3.5c0,0.6-0.5,1.2-1.2,1.2h-3.5c-0.7,0-1.2-0.5-1.2-1.2v-3.5
			C67.6,297.7,68.1,297.2,68.7,297.2L68.7,297.2z"/>
	</g>
	<path class="st25" d="M109.6,23.9c0-0.3,0.3-0.6,0.6-0.6c0.3,0,0.6,0.3,0.6,0.6v2.8c0,0.3-0.3,0.6-0.6,0.6c-0.4,0-0.6-0.3-0.6-0.6
		V23.9z M105.4,26.2c-0.2-0.3-0.2-0.6,0-0.9c0.2-0.2,0.6-0.2,0.9,0l2,2c0.2,0.2,0.2,0.6,0,0.9c-0.2,0.2-0.6,0.2-0.9,0L105.4,26.2z
		 M104,30.9c-0.4,0-0.6-0.3-0.6-0.6c0-0.3,0.3-0.6,0.6-0.6h2.8c0.3,0,0.6,0.3,0.6,0.6c0,0.3-0.3,0.6-0.6,0.6H104z M106.2,35.1
		c-0.2,0.2-0.6,0.2-0.9,0c-0.2-0.2-0.2-0.6,0-0.9l2-2c0.2-0.2,0.6-0.2,0.9,0c0.2,0.2,0.2,0.6,0,0.9L106.2,35.1z M110.9,36.5
		c0,0.3-0.3,0.6-0.6,0.6c-0.4,0-0.6-0.3-0.6-0.6v-2.8c0-0.3,0.3-0.6,0.6-0.6c0.3,0,0.6,0.3,0.6,0.6V36.5z M115.1,34.2
		c0.2,0.2,0.2,0.6,0,0.9c-0.2,0.2-0.6,0.2-0.9,0l-2-2c-0.2-0.2-0.2-0.6,0-0.9c0.2-0.2,0.6-0.2,0.9,0L115.1,34.2z M116.5,29.6
		c0.3,0,0.6,0.3,0.6,0.6c0,0.3-0.3,0.6-0.6,0.6h-2.8c-0.4,0-0.6-0.3-0.6-0.6c0-0.3,0.3-0.6,0.6-0.6H116.5z M114.2,25.3
		c0.2-0.2,0.6-0.2,0.9,0c0.2,0.2,0.2,0.6,0,0.9l-2,2c-0.3,0.2-0.6,0.2-0.9,0c-0.2-0.2-0.2-0.6,0-0.9L114.2,25.3z"/>
	<g>
		<path class="st26" d="M138.7,144.6h3.5c0.6,0,1.2,0.5,1.2,1.2v3.5c0,0.6-0.5,1.2-1.2,1.2h-3.5c-0.6,0-1.2-0.5-1.2-1.2v-3.5
			C137.5,145.2,138.1,144.6,138.7,144.6L138.7,144.6z"/>
		<path class="st26" d="M150.8,144.6h3.5c0.7,0,1.2,0.5,1.2,1.2v3.5c0,0.6-0.5,1.2-1.2,1.2h-3.5c-0.7,0-1.2-0.5-1.2-1.2v-3.5
			C149.6,145.2,150.1,144.6,150.8,144.6L150.8,144.6z"/>
		<path class="st26" d="M162.8,144.6h3.5c0.6,0,1.2,0.5,1.2,1.2v3.5c0,0.6-0.5,1.2-1.2,1.2h-3.5c-0.6,0-1.2-0.5-1.2-1.2v-3.5
			C161.7,145.2,162.2,144.6,162.8,144.6L162.8,144.6z"/>
		<path class="st26" d="M174.9,144.6h3.5c0.6,0,1.2,0.5,1.2,1.2v3.5c0,0.6-0.5,1.2-1.2,1.2h-3.5c-0.7,0-1.2-0.5-1.2-1.2v-3.5
			C173.7,145.2,174.3,144.6,174.9,144.6L174.9,144.6z"/>
	</g>
	<g>
		<path class="st27" d="M480.4,94.3v77.2h-12.2c-8.7,0-15.9,7.1-15.9,15.9l0,0c0,8.7,7.2,15.9,15.9,15.9h12.2v158.3h-27.5h-42.4V6.1
			C430.9,16,445,36.9,445,61l0,0l0,0c0,18.4,15,33.4,33.4,33.4L480.4,94.3L480.4,94.3z"/>
		<path class="st11" d="M416.5,9.5v352.1h-12.2V3.5C408.6,5,412.7,7.1,416.5,9.5L416.5,9.5z"/>
		<path class="st11" d="M431.6,23v338.6h-12.2V11.4C424,14.7,428.1,18.6,431.6,23L431.6,23z"/>
		<path class="st11" d="M446.7,71.7v289.9h-12.2V26.9c6.6,9.7,10.4,21.4,10.4,34l0,0l0,0C444.9,64.7,445.6,68.3,446.7,71.7
			L446.7,71.7z"/>
		<path class="st11" d="M461.8,89.9v83c-5.6,2.5-9.5,8.1-9.5,14.5l0,0c0,6.5,3.9,12.1,9.5,14.5v159.7h-8.9h-3.3V77.9
			C452.6,82.9,456.8,87,461.8,89.9L461.8,89.9z"/>
		<path class="st11" d="M476.9,94.3v77.3h-8.7c-1.2,0-2.4,0.1-3.5,0.4V91.4C468.4,93.1,472.6,94.1,476.9,94.3L476.9,94.3z
			 M476.9,203.3v158.3h-12.2V202.9c1.1,0.3,2.3,0.4,3.5,0.4L476.9,203.3L476.9,203.3z"/>
	</g>
	<g>
		<path class="st28" d="M313.2,333.4h3.5c0.6,0,1.2,0.5,1.2,1.2v3.5c0,0.7-0.5,1.2-1.2,1.2h-3.5c-0.6,0-1.2-0.5-1.2-1.2v-3.5
			C312,333.9,312.5,333.4,313.2,333.4L313.2,333.4z"/>
		<path class="st28" d="M325.2,333.4h3.5c0.7,0,1.2,0.5,1.2,1.2v3.5c0,0.7-0.5,1.2-1.2,1.2h-3.5c-0.7,0-1.2-0.5-1.2-1.2v-3.5
			C324,333.9,324.6,333.4,325.2,333.4L325.2,333.4z"/>
		<path class="st28" d="M337.3,333.4h3.5c0.6,0,1.2,0.5,1.2,1.2v3.5c0,0.7-0.5,1.2-1.2,1.2h-3.5c-0.6,0-1.2-0.5-1.2-1.2v-3.5
			C336.1,333.9,336.6,333.4,337.3,333.4L337.3,333.4z"/>
		<path class="st28" d="M349.4,333.4h3.5c0.7,0,1.2,0.5,1.2,1.2v3.5c0,0.7-0.5,1.2-1.2,1.2h-3.5c-0.7,0-1.2-0.5-1.2-1.2v-3.5
			C348.2,333.9,348.7,333.4,349.4,333.4L349.4,333.4z"/>
	</g>
	<g>
		<path class="st26" d="M333.4,12.9h3.5c0.6,0,1.2,0.5,1.2,1.2v3.5c0,0.7-0.5,1.2-1.2,1.2h-3.5c-0.6,0-1.2-0.5-1.2-1.2v-3.5
			C332.2,13.5,332.8,12.9,333.4,12.9L333.4,12.9z"/>
		<path class="st26" d="M345.5,12.9h3.5c0.6,0,1.2,0.5,1.2,1.2v3.5c0,0.7-0.5,1.2-1.2,1.2h-3.5c-0.7,0-1.2-0.5-1.2-1.2v-3.5
			C344.3,13.5,344.8,12.9,345.5,12.9L345.5,12.9z"/>
		<path class="st26" d="M357.5,12.9h3.5c0.7,0,1.2,0.5,1.2,1.2v3.5c0,0.7-0.5,1.2-1.2,1.2h-3.5c-0.6,0-1.2-0.5-1.2-1.2v-3.5
			C356.4,13.5,356.9,12.9,357.5,12.9L357.5,12.9z"/>
		<path class="st26" d="M369.6,12.9h3.5c0.6,0,1.2,0.5,1.2,1.2v3.5c0,0.7-0.5,1.2-1.2,1.2h-3.5c-0.6,0-1.2-0.5-1.2-1.2v-3.5
			C368.4,13.5,369,12.9,369.6,12.9L369.6,12.9z"/>
	</g>
	<g>
		<path class="st28" d="M502.8,230.7h3.5c0.6,0,1.2,0.5,1.2,1.2v3.5c0,0.6-0.5,1.2-1.2,1.2h-3.5c-0.7,0-1.2-0.5-1.2-1.2v-3.5
			C501.7,231.2,502.2,230.7,502.8,230.7L502.8,230.7z"/>
		<path class="st28" d="M514.9,230.7h3.5c0.6,0,1.2,0.5,1.2,1.2v3.5c0,0.6-0.5,1.2-1.2,1.2h-3.5c-0.6,0-1.2-0.5-1.2-1.2v-3.5
			C513.7,231.2,514.2,230.7,514.9,230.7L514.9,230.7z"/>
		<path class="st28" d="M527,230.7h3.5c0.6,0,1.2,0.5,1.2,1.2v3.5c0,0.6-0.5,1.2-1.2,1.2H527c-0.6,0-1.2-0.5-1.2-1.2v-3.5
			C525.8,231.2,526.3,230.7,527,230.7L527,230.7z"/>
		<path class="st28" d="M539,230.7h3.5c0.7,0,1.2,0.5,1.2,1.2v3.5c0,0.6-0.5,1.2-1.2,1.2H539c-0.6,0-1.2-0.5-1.2-1.2v-3.5
			C537.9,231.2,538.4,230.7,539,230.7L539,230.7z"/>
	</g>
	<g>
		<path class="st29" d="M91.3,352.5c0-7.1,0.8-15.3,2.7-24.6c0-0.1,0-0.1,0.1-0.2c0.1-0.4,0.4-1.1,1.1-0.9c1,0.3,9.3,4.9,17.1,12.8
			s7.6-4,0.9-8.6c-6.7-4.7-13.6-6.6-15.7-8.4s-1.7-3.8-1.7-3.8l0,0c1.6-9,2.8-18.3,3.6-27.4l0,0c0,0,0.4-2,2.3,0.3s9.2,10.5,14.9,11
			c5.7,0.5,0.5-8.5-7.6-12.9s-9.1-5.4-9-6.5l0,0c0.5-7.2,0.8-14.2,0.9-20.9l0,0c0,0,0.3-1.2,1.4-0.3c1.1,0.9,9.1,10,13.4,9.1
			c4.3-1,0.1-8.8-6.7-11.5c-6.8-2.7-8-3.6-8-4.6l0,0c-0.1-19.8-1.8-35.8-4.5-42.6c-2.7-7.1,14.7,8.9,30.8,35.1
			c1.4,2.4,1.3,3.7,0.4,6.6c-1,3.1-2,10.1,0.5,8.4c2.5-1.6,2.9-7.7,3.1-7.9c0.2-0.1,0.3,0,0.3,0.1c2.6,4.7,5.2,9.6,7.5,14.7
			c2.4,5.7-0.8,9.7-5.3,15.3c-4.7,5.8-3.8,12,1.1,9.4c5-2.6,7.3-14.6,7.7-15c0.4-0.3,0.7,0.1,0.7,0.2c3.3,8.4,5.9,17.3,7.5,26.3
			c0.3,4.5-3.3,8.2-7.1,14.2c-3.8,6.1-0.9,9.8,2.1,8.9c3-0.8,5.1-8.3,5.7-8.7c0.6-0.4,0.8-0.1,0.8,0c0.3,8.7-0.5,17.4-2.8,25.9
			c-2.1,7.5-4.2,13.8-6.4,19.3h-39.4L91.3,352.5z"/>
		<path class="st30" d="M137.1,365c-5.2-69-22.9-128.7-23-129.1c-0.2-0.8-1.1-1.3-1.9-1.1s-1.3,1.1-1.1,1.9
			c0.1,0.3,17.7,59.7,22.9,128.2h3.1V365z"/>
		<path class="st31" d="M169.6,270.1c29.9-17.7,38.1,19.1,32.1,35.8c-4.5,12.3-20.4,39.4-31.6,59.1h-41.7
			C133.7,323.7,147.6,283.2,169.6,270.1L169.6,270.1z"/>
		<path class="st32" d="M146.5,365c15.2-48.3,38.5-88.2,38.6-88.4c0.3-0.6,1.2-0.9,1.9-0.7c0.7,0.2,1,0.9,0.7,1.5
			c-0.1,0.2-23.2,39.8-38.3,87.6H146.5z"/>
		<path class="st33" d="M41.5,249c9.2-34.8,41.7-15.8,55.6,14c7.9,16.8,21.5,61.1,36.9,102H95l-11.6-6.5
			C56.5,308.1,37.8,262.9,41.5,249L41.5,249z"/>
		<path class="st18" d="M104.5,356.6c-29.6-56.2-45.1-110.8-45.2-111c-0.2-0.8,0.2-1.6,1-1.8s1.6,0.2,1.8,1
			c0.1,0.3,17.1,60.2,49.4,118.9L104.5,356.6z"/>
	</g>
	<g>
		<rect x="555.8" y="254.9" class="st4" width="37.1" height="11.2"/>
		<rect x="539.6" y="268.4" class="st4" width="37.1" height="11.2"/>
		<path class="st4" d="M578.4,268.4h23.5c0.7,3.7,1.1,7.4,1.2,11.2h-24.7V268.4z"/>
		<rect x="555.8" y="281.9" class="st4" width="37.1" height="11.2"/>
		<path class="st4" d="M594.6,281.9h8.5c0,0.2,0,0.4,0,0.6l0,0c0,3.6-0.2,7.1-0.7,10.6h-7.8V281.9z"/>
		<path class="st4" d="M578.4,295.3h23.7c-0.6,3.8-1.5,7.6-2.7,11.2h-20.9L578.4,295.3L578.4,295.3z"/>
		<path class="st0" d="M516.3,307.3c0-0.3,0.3-0.6,0.6-0.6s0.6,0.3,0.6,0.6v2.8c0,0.3-0.3,0.6-0.6,0.6s-0.6-0.3-0.6-0.6V307.3z
			 M512,309.5c-0.2-0.2-0.2-0.6,0-0.9c0.2-0.2,0.6-0.2,0.9,0l2,2c0.2,0.2,0.2,0.6,0,0.9c-0.2,0.2-0.6,0.2-0.9,0L512,309.5z
			 M510.6,314.2c-0.3,0-0.6-0.3-0.6-0.6c0-0.3,0.3-0.6,0.6-0.6h2.8c0.3,0,0.6,0.3,0.6,0.6c0,0.3-0.3,0.6-0.6,0.6H510.6z
			 M512.9,318.4c-0.2,0.2-0.6,0.2-0.9,0c-0.2-0.2-0.2-0.6,0-0.9l2-2c0.2-0.2,0.6-0.2,0.9,0c0.2,0.2,0.2,0.6,0,0.9L512.9,318.4z
			 M517.5,319.8c0,0.3-0.3,0.6-0.6,0.6s-0.6-0.3-0.6-0.6V317c0-0.3,0.3-0.6,0.6-0.6s0.6,0.3,0.6,0.6V319.8z M521.8,317.5
			c0.2,0.3,0.2,0.6,0,0.9c-0.2,0.2-0.6,0.2-0.9,0l-2-2c-0.2-0.2-0.2-0.6,0-0.9c0.2-0.2,0.6-0.2,0.9,0L521.8,317.5z M523.2,312.9
			c0.3,0,0.6,0.3,0.6,0.6c0,0.3-0.3,0.6-0.6,0.6h-2.8c-0.3,0-0.6-0.3-0.6-0.6c0-0.3,0.3-0.6,0.6-0.6H523.2z M520.9,308.6
			c0.2-0.2,0.6-0.2,0.9,0c0.2,0.2,0.2,0.6,0,0.9l-2,2c-0.2,0.2-0.6,0.2-0.9,0c-0.2-0.3-0.2-0.6,0-0.9L520.9,308.6z"/>
		<path class="st29" d="M583.1,250.1c8.6,28,11.8,43.2,16.5,55.8c2.3-7.4,3.5-15.2,3.5-23.4l0,0v-40.2
			C603.1,169.3,572.5,215.6,583.1,250.1L583.1,250.1z"/>
		<path class="st29" d="M476.3,356.5c-6.7-9-13.6-20.8-17.7-35.3c-7.1-25.2,22.2,2.7,45.3,35.3H476.3z"/>
		<path class="st29" d="M516.6,356.5c-7.2-12.2-14.4-28.2-15.5-45.1c-2.4-35.5-3-46.7-9.8-52.5c-5.8-4.9,64.2-3.9,93.6,74
			c-8.7,10.5-20.1,18.7-33,23.6H516.6z"/>
		<path class="st30" d="M501.3,257.7c26.5,24.1,47.4,59.8,62.6,93c-0.7,0.4-1.5,0.8-2.2,1.3c-15.7-34.2-37.2-70.8-64.7-94.7
			C498.3,257.3,499.7,257.5,501.3,257.7L501.3,257.7z"/>
		<path class="st31" d="M576.5,218.7c5.8,14.4,14.5,46.7,24.7,81.5c-4.2,18.1-14.6,33.9-28.8,44.9c-24.7-35.3-46.2-75.3-54.2-107.1
			C501.9,174,552.2,158.8,576.5,218.7L576.5,218.7z"/>
		<path class="st32" d="M586.6,330.8c-34.2-59.8-50.1-129.9-50.2-130.2c-0.2-0.7,0.3-1.4,1-1.5c0.7-0.2,1.4,0.3,1.5,1
			c0.1,0.3,15.8,69.5,49.3,128.6C587.7,329.4,587.1,330.1,586.6,330.8L586.6,330.8z"/>
		<path class="st34" d="M553.5,355.9c-1.3-5.8-3.2-12.1-6.2-18.4c-11.4-23.9-39.9-33.2-48-29.6c-6.6,3-20,21.4-10,48.6h62.5
			C552.4,356.3,553,356.1,553.5,355.9L553.5,355.9z"/>
		<path class="st35" d="M537,356.5c1.5-3.9,4.4-12.5,4.8-17.7c0-0.4-0.3-0.8-0.7-0.8s-0.7,0.3-0.8,0.7c-0.4,4.8-3.1,12.8-4.6,16.8
			c-3.3-6.6-7.4-13.4-12.3-20.4c2.6-10,2.3-17.5,2.3-17.5c0-0.4-0.4-0.7-0.8-0.7c-0.4,0-0.7,0.4-0.7,0.8c0,0,0.3,6.7-1.9,15.9
			c-5.6-7.7-12.3-15.5-20.3-23c-0.6-0.5-1.5-0.5-2.1,0.1c-0.5,0.6-0.5,1.5,0.1,2.1c3.9,3.7,7.5,7.4,10.8,11.1
			c-3-0.5-7.5-1.1-11.9-0.7c-0.4,0-0.7,0.4-0.7,0.8s0.4,0.7,0.8,0.6c5.4-0.5,10.8,0.5,13.3,1c5.1,5.9,9.4,11.9,13.1,17.7
			c-5.2-0.5-18-1.3-30.4,0.9c-0.4,0.1-0.7,0.5-0.6,0.8c0.1,0.4,0.5,0.7,0.9,0.6c13.2-2.4,27-1.3,31.1-0.8c2.4,3.9,4.6,7.8,6.5,11.5
			h4.1L537,356.5L537,356.5z"/>
	</g>
	<g>
		<g>
			<path class="st26" d="M485.8,51.8h4c0.7,0,1.3,0.6,1.3,1.3v4c0,0.7-0.6,1.3-1.3,1.3h-4c-0.7,0-1.3-0.6-1.3-1.3v-4
				C484.5,52.4,485.1,51.8,485.8,51.8L485.8,51.8z"/>
			<path class="st26" d="M499.6,51.8h4c0.7,0,1.3,0.6,1.3,1.3v4c0,0.7-0.6,1.3-1.3,1.3h-4c-0.7,0-1.3-0.6-1.3-1.3v-4
				C498.2,52.4,498.8,51.8,499.6,51.8L499.6,51.8z"/>
			<path class="st26" d="M513.3,51.8h4c0.7,0,1.3,0.6,1.3,1.3v4c0,0.7-0.6,1.3-1.3,1.3h-4c-0.7,0-1.3-0.6-1.3-1.3v-4
				C512,52.4,512.6,51.8,513.3,51.8L513.3,51.8z"/>
			<path class="st26" d="M527,51.8h4c0.7,0,1.3,0.6,1.3,1.3v4c0,0.7-0.6,1.3-1.3,1.3h-4c-0.7,0-1.3-0.6-1.3-1.3v-4
				C525.7,52.4,526.3,51.8,527,51.8L527,51.8z"/>
		</g>
		<path class="st36" d="M588.5,45.2c0-0.4,0.3-0.7,0.7-0.7s0.7,0.3,0.7,0.7v3.2c0,0.4-0.3,0.7-0.7,0.7s-0.7-0.3-0.7-0.7V45.2z
			 M583.7,47.8c-0.3-0.3-0.3-0.7,0-1s0.7-0.3,1,0l2.3,2.3c0.3,0.3,0.3,0.7,0,1s-0.7,0.3-1,0L583.7,47.8z M582.1,53.1
			c-0.4,0-0.7-0.3-0.7-0.7s0.3-0.7,0.7-0.7h3.2c0.4,0,0.7,0.3,0.7,0.7s-0.3,0.7-0.7,0.7H582.1z M584.7,57.9c-0.3,0.3-0.7,0.3-1,0
			s-0.3-0.7,0-1l2.3-2.3c0.3-0.3,0.7-0.3,1,0s0.3,0.7,0,1L584.7,57.9z M589.9,59.5c0,0.4-0.3,0.7-0.7,0.7s-0.7-0.3-0.7-0.7v-3.2
			c0-0.4,0.3-0.7,0.7-0.7s0.7,0.3,0.7,0.7V59.5z M594.8,56.9c0.3,0.3,0.3,0.7,0,1s-0.7,0.3-1,0l-2.3-2.3c-0.3-0.3-0.3-0.7,0-1
			s0.7-0.3,1,0L594.8,56.9z M596.4,51.6c0.4,0,0.7,0.3,0.7,0.7s-0.3,0.7-0.7,0.7h-3.2c-0.4,0-0.7-0.3-0.7-0.7s0.3-0.7,0.7-0.7H596.4
			z M593.8,46.8c0.3-0.3,0.7-0.3,1,0s0.3,0.7,0,1l-2.3,2.3c-0.3,0.3-0.7,0.3-1,0s-0.3-0.7,0-1L593.8,46.8z"/>
	</g>
	<path class="st37" d="M36.6,171.4c0-0.4,0.3-0.7,0.7-0.7s0.7,0.3,0.7,0.7v3.2c0,0.4-0.3,0.7-0.7,0.7s-0.7-0.3-0.7-0.7V171.4z
		 M31.7,173.9c-0.3-0.3-0.3-0.7,0-1s0.7-0.3,1,0l2.3,2.3c0.3,0.3,0.3,0.7,0,1s-0.7,0.3-1,0L31.7,173.9z M30.1,179.2
		c-0.4,0-0.7-0.3-0.7-0.7s0.3-0.7,0.7-0.7h3.2c0.4,0,0.7,0.3,0.7,0.7s-0.3,0.7-0.7,0.7H30.1z M32.7,184c-0.3,0.3-0.7,0.3-1,0
		s-0.3-0.7,0-1l2.3-2.3c0.3-0.3,0.7-0.3,1,0s0.3,0.7,0,1L32.7,184z M38,185.6c0,0.4-0.3,0.7-0.7,0.7s-0.7-0.3-0.7-0.7v-3.2
		c0-0.4,0.3-0.7,0.7-0.7s0.7,0.3,0.7,0.7V185.6z M42.8,183c0.3,0.3,0.3,0.7,0,1s-0.7,0.3-1,0l-2.3-2.3c-0.3-0.3-0.3-0.7,0-1
		s0.7-0.3,1,0L42.8,183z M44.4,177.8c0.4,0,0.7,0.3,0.7,0.7s-0.3,0.7-0.7,0.7h-3.2c-0.4,0-0.7-0.3-0.7-0.7s0.3-0.7,0.7-0.7H44.4z
		 M41.8,172.9c0.3-0.3,0.7-0.3,1,0s0.3,0.7,0,1l-2.3,2.3c-0.3,0.3-0.7,0.3-1,0s-0.3-0.7,0-1L41.8,172.9z"/>
	<g>
		<path class="st38" d="M8,357.3h622c4.4,0,8,3.6,8,8l0,0c0,4.4-3.6,8-8,8h-27c-2.5,0-4.5,2-4.5,4.5l0,0c0,2.4,2,4.5,4.5,4.5h9.9
			c3.1,0,5.6,2.5,5.6,5.6l0,0c0,3.1-2.5,5.6-5.6,5.6H26.1c-3.1,0-5.6-2.5-5.6-5.6l0,0c0-3.1,2.5-5.6,5.6-5.6h7.8
			c2.5,0,4.5-2,4.5-4.5l0,0c0-2.5-2-4.5-4.5-4.5H8c-4.4,0-8-3.6-8-8l0,0C0,360.9,3.6,357.3,8,357.3L8,357.3z M12.2,393.3L12.2,393.3
			c-2.9,0-5.3-2.4-5.3-5.3v-0.4c0-2.9,2.4-5.3,5.3-5.3l0,0c2.9,0,5.3,2.4,5.3,5.3v0.4C17.5,390.9,15.1,393.3,12.2,393.3L12.2,393.3z
			"/>
	</g>
</g>
</svg>
