<svg id="Слой_1" data-name="Слой 1" xmlns="http://www.w3.org/2000/svg" xmlns:xlink="http://www.w3.org/1999/xlink" viewBox="0 0 1155.15 695.56"><defs><style>.cls-1{fill:none;}.cls-2{fill:#e7f3fe;}.cls-3{fill:#303c60;}.cls-4{fill:#e38540;}.cls-5{fill:#6791c9;}.cls-6{clip-path:url(#clip-path);}.cls-7{fill:#75a1de;}.cls-8{fill:#2e5b9a;}.cls-9{fill:#f09959;}.cls-10{fill:#9bd6e8;}.cls-11{fill:#7bcee8;}.cls-12{fill:#d54a41;}.cls-13{fill:#f39892;}.cls-14{fill:#f2e5de;}.cls-15{fill:#9ec8ff;}.cls-16{fill:#fff;}.cls-17{fill:#9cd499;}.cls-18{fill:#f37168;}.cls-19{fill:#74b570;}</style><clipPath id="clip-path" transform="translate(0.07 -0.42)"><path class="cls-1" d="M423.47,676.29C129.23,659.16-106.75,347.86,49.83,167.2,171.26,27.08,333.17,231,484.19,128.28c232.33-158.09,608.73-186.83,658.55,12.45s-115.21,510.65-238.2,529.33S423.47,676.29,423.47,676.29Z"/></clipPath></defs><title>laptop</title><path class="cls-2" d="M423.47,676.29C129.23,659.16-106.75,347.86,49.83,167.2,171.26,27.08,333.17,231,484.19,128.28c232.33-158.09,608.73-186.83,658.55,12.45s-115.21,510.65-238.2,529.33S423.47,676.29,423.47,676.29Z" transform="translate(0.07 -0.42)"/><path class="cls-3" d="M461.61,254.38c3.12,74.73,2.34,115.21-24.91,146.35s-103.53,23.35-103.53,23.35S325.65,534.1,219,538.77s-122-137-38.41-173.33c79.54-34.58,104.83-44.63,132.33-130.26,25.13-78.22,103.54-63.31,122.22-30.62S461.61,254.38,461.61,254.38Z" transform="translate(0.07 -0.42)"/><path class="cls-4" d="M426.59,635.81s50.33,9.86,52.93,9.34,57.6-24.91,63.31-21.28,38.92,17.65,46.19,20.76-4.15,4.15-9.86,4.15-38.4-13.49-42-10.89,28.54,7.78,28.54,9.86-86.14,21.79-91.33,21.79-45.15-3.63-45.15-3.63Z" transform="translate(0.07 -0.42)"/><path class="cls-5" d="M384.81,360.9c27.12,5.31,43.07,34,48.26,59.14S384.81,360.9,384.81,360.9Z" transform="translate(0.07 -0.42)"/><g class="cls-6"><path class="cls-7" d="M339.4,341.56s-52.15,35-80.18,52.16,10.12,201.61,19.46,270.11,171.26,6.23,171.26,6.23-10.9-57.6,3.11-150.24c10-66.35-26.72-107.94-47.74-136.74C352.26,310.39,339.4,341.56,339.4,341.56Z" transform="translate(0.07 -0.42)"/><path class="cls-5" d="M288,394.5c59.93,73.17,80.2,86.85,65.38,136.22-11.67,38.92-15.56,52.94-17.9,66.17s111.31-8.56,111.31-8.56l-.77,42.81S356.53,674,312.93,682.52,242.1,681,242.1,681Z" transform="translate(0.07 -0.42)"/></g><path class="cls-8" d="M1038.59,687.58H329.41a9.27,9.27,0,0,1,0-18.54h709.18a9.27,9.27,0,0,1,0,18.54Z" transform="translate(0.07 -0.42)"/><path class="cls-9" d="M358.6,267.87l-27,79.92S361.2,428,386.11,410.07c8.5-6.12-3.12-54.49-3.12-54.49l18.17-64.87Z" transform="translate(0.07 -0.42)"/><path class="cls-9" d="M272.46,391.38c-37.27,4.14-40.48,54.49-57.61,138.56s-12,139.56-3.89,150.24c19.46,25.69,238.2-63.83,265.45-63,18.8.54,3.11-31.14,3.11-31.14L270.9,617.91s29.58-97.31,29.58-147.13S286.47,389.83,272.46,391.38Z" transform="translate(0.07 -0.42)"/><path class="cls-9" d="M466.29,587.55c21.79-5.45,53.71-17.91,59.93-12.46s31.92,44.37,40.48,55.27-3.89,2.34-13.23-6.23a118.79,118.79,0,0,0-17.13-13.23S524.67,621.8,513.77,628,499,621.8,480.3,618.68s-65.39,13.24-65.39,13.24Z" transform="translate(0.07 -0.42)"/><path class="cls-7" d="M276.61,385.16c-22.84,1-40.48,20.24-46.71,49.82s-24.39,123.51-24.39,123.51-3.63,2.59,34.25,9.34,69-1,69-1,7.79-53.45,5.71-90.3-10.38-71.61-23.87-83.55S276.61,385.16,276.61,385.16Z" transform="translate(0.07 -0.42)"/><path class="cls-4" d="M383,355.58l18.17-64.87L358.6,267.87l-6.5,19.25c-1.41,64.45,15.1,86,26.22,93.88,3.48,2.47,6.47.56,9-3.46C385.46,365.86,383,355.58,383,355.58Z" transform="translate(0.07 -0.42)"/><path class="cls-9" d="M469.4,275.4c0,34.72-4.14,77.29-34.25,76.28C388.44,350.13,359,313.82,359,279.1s24.42-62.86,54.55-62.86S469.4,240.68,469.4,275.4Z" transform="translate(0.07 -0.42)"/><path class="cls-10" d="M818,669H642.87l72-158.44a13,13,0,0,1,11.8-7.6H885.57a5.06,5.06,0,0,1,4.61,7.15Z" transform="translate(0.07 -0.42)"/><path class="cls-10" d="M817.58,669h-323a20.37,20.37,0,0,1,20.37-20.38H817.58Z" transform="translate(0.07 -0.42)"/><path class="cls-11" d="M885.57,503h-140a12.94,12.94,0,0,0-11.79,7.6L661.73,669H818l72.23-158.89A5.06,5.06,0,0,0,885.57,503Z" transform="translate(0.07 -0.42)"/><path class="cls-3" d="M418,204.17c33.09-2.33,52.68,27.9,58.39,54.36,4.11,19.1,2.07,22.84,2.07,22.84s-3.63,5.19-29.58,6.74-29.06,1-29.06,1l-1.56-30.1-7.78,29.06s-4.15,5.71-20.24-2.07-23.35-33.74-23.35-33.74-3.64-17.12,8.82-28.54S418,204.17,418,204.17Z" transform="translate(0.07 -0.42)"/><path class="cls-12" d="M393.41,282.26c-3.17,21-19.94,35.88-37.44,33.24s-29.12-21.82-26-42.82S350,236.8,367.46,239.45,396.58,261.26,393.41,282.26Z" transform="translate(0.07 -0.42)"/><path class="cls-13" d="M380.76,281.7c-2.93,19.45-16.7,33.49-30.73,31.37s-23-19.61-20.1-39.05,16.7-33.49,30.74-31.37S383.7,262.26,380.76,281.7Z" transform="translate(0.07 -0.42)"/><path class="cls-14" d="M359.31,277.36c-1.61,10.68-7.43,18.66-13,17.82s-8.77-10.18-7.15-20.87,7.43-18.66,13-17.82S360.93,266.67,359.31,277.36Z" transform="translate(0.07 -0.42)"/><path class="cls-12" d="M358.47,240c15.18-56.44,67.58-48.21,80.83-40.35,11.16,6.62,12.71,16,12.71,16s-14.4-11.68-38.92-7.4c-23.26,4.07-37.1,17.78-39,33C373.05,248.89,358.47,240,358.47,240Z" transform="translate(0.07 -0.42)"/><path class="cls-3" d="M125.6,422.16h-.12a1.2,1.2,0,0,1-1.08-1.31c1.36-14.27,8.5-28.94,20.08-41.31,13.11-14,31.76-25,53.93-31.86C247.83,332.4,290.93,313,318,229.62a1.2,1.2,0,0,1,2.28.74c-12.45,38.31-29.39,66.2-51.8,85.26-19.77,16.82-42,25.9-69.38,34.36-21.78,6.73-40.07,17.52-52.88,31.2-11.23,12-18.14,26.15-19.45,39.9A1.19,1.19,0,0,1,125.6,422.16Z" transform="translate(0.07 -0.42)"/><path class="cls-3" d="M147.91,364.56a1.2,1.2,0,0,1-.74-2.15A144.25,144.25,0,0,1,199,339.35c58.61-12.91,98-48.15,113.79-101.91a1.2,1.2,0,1,1,2.3.67c-9.78,33.22-28.18,59.43-54.69,77.91-17.07,11.9-37.56,20.54-60.89,25.68a141.49,141.49,0,0,0-50.9,22.61A1.15,1.15,0,0,1,147.91,364.56Z" transform="translate(0.07 -0.42)"/><path class="cls-15" d="M899.37,347.33H741.28c-1.48,0-2.24-1.2-1.7-2.68l32.06-88.11a4.25,4.25,0,0,1,3.66-2.68H933.39c1.48,0,2.24,1.2,1.7,2.68L903,344.65A4.25,4.25,0,0,1,899.37,347.33Z" transform="translate(0.07 -0.42)"/><path class="cls-16" d="M897.46,343.21H746.19a1.69,1.69,0,0,1-1.6-2.5l29.2-80.23a4,4,0,0,1,3.42-2.5H928.48a1.69,1.69,0,0,1,1.6,2.5l-29.2,80.23A4,4,0,0,1,897.46,343.21Z" transform="translate(0.07 -0.42)"/><path class="cls-15" d="M894.73,338h-142c-1.56,0-2.36-1.26-1.79-2.82L776.1,266a4.44,4.44,0,0,1,3.84-2.82H922c1.56,0,2.36,1.26,1.79,2.82l-25.17,69.15A4.44,4.44,0,0,1,894.73,338Z" transform="translate(0.07 -0.42)"/><ellipse class="cls-16" cx="837.33" cy="300.6" rx="31.1" ry="21.65" transform="translate(1.92 605.85) rotate(-39.84)"/><path class="cls-15" d="M859.68,300.6c-4.49,12.34-18.14,22.34-30.48,22.34s-18.7-10-14.21-22.34,18.14-22.35,30.48-22.35S864.17,288.26,859.68,300.6Z" transform="translate(0.07 -0.42)"/><polygon class="cls-16" points="848.86 298.98 838.97 303.69 829.09 308.41 832.52 298.98 835.96 289.55 842.41 294.26 848.86 298.98"/><path class="cls-17" d="M660.06,248.22H647.61a7.24,7.24,0,0,1-6.07-2.92,7.88,7.88,0,0,1-.64-7.31l4.53-12.45c1.75-4.82,6.94-8.59,11.81-8.59H669.7a7.25,7.25,0,0,1,6.07,2.92,7.91,7.91,0,0,1,.64,7.31l-4.54,12.45C670.12,244.45,664.93,248.22,660.06,248.22Zm-2.82-26.47c-2.84,0-6.25,2.54-7.3,5.43l-4.53,12.45a3.23,3.23,0,0,0,.06,2.91,2.53,2.53,0,0,0,2.14.88h12.45c2.89,0,6.23-2.49,7.3-5.43l4.54-12.45a3.22,3.22,0,0,0-.07-2.91,2.51,2.51,0,0,0-2.13-.88Z" transform="translate(0.07 -0.42)"/><path class="cls-17" d="M640.8,301.15H628.34a7.21,7.21,0,0,1-6.07-2.92,7.9,7.9,0,0,1-.64-7.31l4.53-12.45c1.76-4.81,6.94-8.59,11.81-8.59h12.46a7.22,7.22,0,0,1,6.07,2.93,7.89,7.89,0,0,1,.64,7.3l-4.53,12.46C650.85,297.38,645.67,301.15,640.8,301.15ZM638,274.68c-2.83,0-6.24,2.54-7.3,5.43l-4.53,12.46a3.23,3.23,0,0,0,.06,2.91,2.56,2.56,0,0,0,2.14.87H640.8c2.88,0,6.23-2.48,7.3-5.43l4.53-12.45a3.23,3.23,0,0,0-.06-2.91,2.55,2.55,0,0,0-2.14-.88Z" transform="translate(0.07 -0.42)"/><path class="cls-15" d="M621.53,354.08H609.08a7.23,7.23,0,0,1-6.08-2.92,7.89,7.89,0,0,1-.64-7.3l4.54-12.46c1.75-4.81,6.94-8.58,11.81-8.58h12.45a7.21,7.21,0,0,1,6.07,2.92,7.86,7.86,0,0,1,.64,7.3l-4.53,12.46C631.59,350.31,626.4,354.08,621.53,354.08Zm-2.82-26.46c-2.89,0-6.23,2.48-7.3,5.42l-4.54,12.46a3.26,3.26,0,0,0,.07,2.91,2.53,2.53,0,0,0,2.14.87h12.45c2.89,0,6.23-2.48,7.3-5.42l4.53-12.46a3.23,3.23,0,0,0-.06-2.91,2.53,2.53,0,0,0-2.14-.87Z" transform="translate(0.07 -0.42)"/><path class="cls-15" d="M762.53,238H694a1.58,1.58,0,0,1-1.48-2.33,3.69,3.69,0,0,1,3.18-2.34h68.5a1.59,1.59,0,0,1,1.49,2.34A3.71,3.71,0,0,1,762.53,238Z" transform="translate(0.07 -0.42)"/><path class="cls-15" d="M759.13,247.37h-68.5a1.58,1.58,0,0,1-1.48-2.33,3.69,3.69,0,0,1,3.18-2.34h68.5a1.59,1.59,0,0,1,1.49,2.34A3.71,3.71,0,0,1,759.13,247.37Z" transform="translate(0.07 -0.42)"/><path class="cls-15" d="M744.68,287.07h-68.5a1.58,1.58,0,0,1-1.48-2.33,3.7,3.7,0,0,1,3.18-2.34h68.5a1.59,1.59,0,0,1,1.49,2.34A3.71,3.71,0,0,1,744.68,287.07Z" transform="translate(0.07 -0.42)"/><path class="cls-15" d="M741.28,296.42h-68.5a1.59,1.59,0,0,1-1.48-2.34,3.71,3.71,0,0,1,3.18-2.33H743a1.58,1.58,0,0,1,1.48,2.33A3.72,3.72,0,0,1,741.28,296.42Z" transform="translate(0.07 -0.42)"/><path class="cls-15" d="M724.85,341.56h-68.5a1.58,1.58,0,0,1-1.48-2.33,3.69,3.69,0,0,1,3.18-2.34h68.5a1.59,1.59,0,0,1,1.49,2.34A3.71,3.71,0,0,1,724.85,341.56Z" transform="translate(0.07 -0.42)"/><path class="cls-15" d="M721.45,350.91H653a1.59,1.59,0,0,1-1.48-2.34,3.71,3.71,0,0,1,3.18-2.34h68.5a1.59,1.59,0,0,1,1.49,2.34A3.72,3.72,0,0,1,721.45,350.91Z" transform="translate(0.07 -0.42)"/><path class="cls-18" d="M657.16,241.21a2.72,2.72,0,0,1-.63-.08,2.4,2.4,0,0,1-1.59-1.42L650.24,228a2.4,2.4,0,1,1,4.45-1.79l3.52,8.74L686,213.56a2.4,2.4,0,1,1,2.93,3.8l-30.29,23.35A2.4,2.4,0,0,1,657.16,241.21Z" transform="translate(0.07 -0.42)"/><path class="cls-18" d="M637.9,294.15a2.23,2.23,0,0,1-.63-.09,2.39,2.39,0,0,1-1.6-1.42L631,281a2.4,2.4,0,1,1,4.45-1.8l3.52,8.74,27.79-21.42a2.4,2.4,0,0,1,2.93,3.8l-30.3,23.36A2.43,2.43,0,0,1,637.9,294.15Z" transform="translate(0.07 -0.42)"/><polygon class="cls-15" points="1090.91 176.11 827.8 176.11 834.61 157.43 1097.71 157.43 1090.91 176.11"/><polygon class="cls-15" points="1080.71 204.14 817.61 204.14 824.4 185.46 1087.51 185.46 1080.71 204.14"/><path class="cls-15" d="M789,428.59H595.79c-2.52,0-3.83-2.07-2.92-4.59a7.28,7.28,0,0,1,6.27-4.59H792.35c2.52,0,3.83,2.06,2.92,4.59A7.3,7.3,0,0,1,789,428.59Z" transform="translate(0.07 -0.42)"/><path class="cls-15" d="M781.58,449H588.37c-2.52,0-3.84-2.07-2.92-4.59a7.28,7.28,0,0,1,6.26-4.59H784.92c2.53,0,3.84,2.06,2.92,4.59A7.3,7.3,0,0,1,781.58,449Z" transform="translate(0.07 -0.42)"/><path class="cls-17" d="M962.45,621.48c0-3.24,39-111.15,12.65-180.62-18.49-48.64-21.41-107-21.41-107s-36,51.57-11.67,130.37c15,48.5,21.08,61.93,22.38,76.2S958.56,626,958.56,626Z" transform="translate(0.07 -0.42)"/><path class="cls-19" d="M958.56,627.22a1.27,1.27,0,0,1-.47-.09,1.2,1.2,0,0,1-.73-1.23c.08-.71,7.11-71.39,5.84-85.38-.85-9.31-3.72-18.11-10-37.39-3.23-9.87-7.24-22.16-12.31-38.57-12.64-41-8.77-74.49-3.29-95.39,5.94-22.69,14.76-35.48,15.13-36a1.21,1.21,0,0,1,1.32-.47,1.19,1.19,0,0,1,.86,1.09c0,.59,3.13,58.75,21.33,106.65,9.87,26,11.85,60.24,5.89,101.82-4.76,33.2-13.25,61.58-16.87,73.7-.83,2.76-1.54,5.15-1.59,5.59a1,1,0,0,1-.29.72l-3.89,4.54A1.17,1.17,0,0,1,958.56,627.22Zm-5.82-289.56a131.52,131.52,0,0,0-12.87,32.23c-5.38,20.58-9.17,53.58,3.3,94,5.05,16.39,9.07,28.67,12.29,38.54,6.36,19.45,9.26,28.33,10.13,37.91,1.14,12.49-4,67-5.46,82.05l1.18-1.38c.14-.72.56-2.14,1.63-5.71,22.55-75.38,26.26-133.91,11-174C958.32,400.07,953.76,351.37,952.74,337.66Z" transform="translate(0.07 -0.42)"/><path class="cls-17" d="M970.88,632.51C965,512.52,993.58,447,1052,395.13s61-65.5,61-65.5-9.08,101.18-42.81,136.2-83,61-90.15,79.12-4.54,79.13-4.54,79.13l-4.54,11Z" transform="translate(0.07 -0.42)"/><path class="cls-17" d="M963.75,642.89c-.65-1.95,12.32-112.21,59.67-118.69s58.37,4.54,90.79-.65a202.08,202.08,0,0,0,40.86-11s-12.28,31.26-54.47,44.11c-29.84,9.08-68.75-5.84-91.45-2s-34.38,52.54-34.38,52.54l-3.89,25.29Z" transform="translate(0.07 -0.42)"/><path class="cls-19" d="M970.23,626.57a1.19,1.19,0,0,1-1.19-1.08c-.07-.78-6.79-78.24,26.09-137.54,17-30.64,35.52-48.39,53.46-65.56,16.7-16,32.48-31.1,44.45-55a1.2,1.2,0,1,1,2.14,1.07c-12.15,24.3-28.07,39.55-44.93,55.69-17.81,17.05-36.22,34.67-53,65-32.51,58.65-25.86,135.39-25.79,136.15a1.21,1.21,0,0,1-1.09,1.31Z" transform="translate(0.07 -0.42)"/><path class="cls-19" d="M967,611a1.26,1.26,0,0,1-.33,0,1.19,1.19,0,0,1-.82-1.48c12.41-42.8,26.66-67.76,44.84-78.58,16.25-9.66,33-6.7,50.82-3.55,4.35.77,8.85,1.56,13.31,2.14,38.64,5.07,57.48-4.32,57.66-4.41a1.2,1.2,0,1,1,1.1,2.13c-.78.41-19.59,9.84-59.07,4.66-4.51-.59-9-1.39-13.42-2.16-17.32-3.06-33.69-6-49.18,3.26-17.62,10.48-31.52,35-43.76,77.17A1.19,1.19,0,0,1,967,611Z" transform="translate(0.07 -0.42)"/><path class="cls-19" d="M1028.93,444.65a1.2,1.2,0,0,1-.73-2.15,145.1,145.1,0,0,1,55.31-23.9A1.2,1.2,0,0,1,1084,421a142.86,142.86,0,0,0-54.3,23.44A1.19,1.19,0,0,1,1028.93,444.65Z" transform="translate(0.07 -0.42)"/><path class="cls-19" d="M992.28,496.86a1.13,1.13,0,0,1-.61-.17,1.19,1.19,0,0,1-.42-1.64c16.89-28.48,36.67-35.66,79.8-49.18a1.2,1.2,0,0,1,.72,2.29c-42.52,13.33-62,20.39-78.45,48.11A1.21,1.21,0,0,1,992.28,496.86Z" transform="translate(0.07 -0.42)"/><path class="cls-13" d="M981.8,672.4h-29a21.32,21.32,0,0,1-20.93-17.31l-9.34-48.85h89.51l-9.34,48.85A21.32,21.32,0,0,1,981.8,672.4Z" transform="translate(0.07 -0.42)"/><path class="cls-12" d="M1009.8,618.7H925.48a2.4,2.4,0,1,1,0-4.8h84.32a2.4,2.4,0,1,1,0,4.8Z" transform="translate(0.07 -0.42)"/></svg>