<svg xmlns="http://www.w3.org/2000/svg" xmlns:xlink="http://www.w3.org/1999/xlink" viewBox="0 0 455.45 406.01"><defs><style>.cls-1,.cls-20,.cls-27,.cls-30,.cls-6{fill:none;}.cls-2{fill:#e76259;}.cls-3{isolation:isolate;}.cls-4{fill:#5abbf4;opacity:0.15;mix-blend-mode:multiply;}.cls-5,.cls-9{fill:#88ce98;}.cls-5{opacity:0.3;}.cls-20,.cls-27,.cls-6{stroke:#1a4557;}.cls-6{stroke-miterlimit:10;}.cls-7{fill:#49af91;}.cls-8{fill:#3a8f89;}.cls-10{fill:#d2ece5;}.cls-11{fill:#fac22f;}.cls-12{fill:#bde1ea;}.cls-13,.cls-32{fill:#1a4557;}.cls-14{fill:#add2db;}.cls-15{fill:#eb704c;}.cls-16{fill:#14323d;}.cls-17{fill:#f09f79;}.cls-18{fill:#cd7966;}.cls-19{fill:#e2dfc5;}.cls-20,.cls-27,.cls-30{stroke-linecap:round;stroke-linejoin:round;}.cls-21{fill:#fbf9e2;}.cls-22{fill:#eab132;}.cls-23{clip-path:url(#clip-path);}.cls-24{fill:#14303a;}.cls-25{fill:#e8aac2;}.cls-26{fill:#fff;}.cls-27,.cls-30{stroke-width:0.5px;}.cls-28{clip-path:url(#clip-path-2);}.cls-29{fill:#d6a12b;}.cls-30{stroke:#fac22f;}.cls-31{clip-path:url(#clip-path-3);}.cls-32{font-size:23.69px;font-family:Montserrat-Bold, Montserrat;font-weight:700;}.cls-33{fill:#ce95ac;}.cls-34{fill:#f27370;}</style><clipPath id="clip-path" transform="translate(0 0)"><circle class="cls-1" cx="173.99" cy="182.94" r="21.46"/></clipPath><clipPath id="clip-path-2" transform="translate(0 0)"><circle class="cls-1" cx="173.99" cy="248.91" r="21.46"/></clipPath><clipPath id="clip-path-3" transform="translate(0 0)"><circle class="cls-2" cx="173.99" cy="307.47" r="21.46"/></clipPath></defs><title>review</title><g class="cls-3"><g id="OBJECTS"><path class="cls-4" d="M27.09,405.32s-1-31-4.77-47.37S.67,307.13,16.27,290.24s20.85-13,24.59-24.91-1.67-39,16.15-49.13,24.48-16.14,35.65-33.32S120.48,143,144,148s20.62,22.16,43.54,20.87,46.75,2.28,48,34.69,17.19,37,29,42,43.62,17.75,39.16,44.67-21.64,27.63-21.32,43.3,18.46,13.37,19.41,35.89,2.34,36,2.34,36Z" transform="translate(0 0)"/><path class="cls-5" d="M67.88,405.44S66,379.25,78.38,374s.27-20.15,13.25-30.37c11.11-8.75,10.06-54.51,36.25-58.81,20.18-3.31,24.05,22.37,27.91,29,2.84,4.87,16.55,4.78,18.84,17.37,2.76,15.18-11.93,22.67-7.79,32.05,5.61,12.72,20.43,10.15,21.81,42.21H67.88" transform="translate(0 0)"/><path class="cls-6" d="M234.85,404s5.91-26-17.67-39.58,7.26-61.91-29.66-78.49c-41.35-18.56-22.14-62.55-64.91-62.23C84.83,224,103.22,271.88,71,282.3s-31.44,55-26.92,69.45S9.71,374.56,9.71,405.94" transform="translate(0 0)"/><path class="cls-7" d="M14.9,350.8c-6.58,6.95,27.44,33.89,27.44,33.89l3.16-3.16h0Z" transform="translate(0 0)"/><path class="cls-8" d="M14.9,350.8l30.6,30.73h0l3.42-3.4S20.49,344.89,14.9,350.8Z" transform="translate(0 0)"/><path class="cls-7" d="M.21,371.88c-3.53,8.89,38.06,21.28,38.06,21.28l1.77-4.1h0Z" transform="translate(0 0)"/><path class="cls-8" d="M.21,371.88,40,389.06h0L42,384.62S3.22,364.31.21,371.88Z" transform="translate(0 0)"/><path class="cls-7" d="M32.06,337.68c-8.18,5,17.5,39.94,17.5,39.94l3.89-2.21h0Z" transform="translate(0 0)"/><path class="cls-8" d="M32.06,337.68l21.39,37.73h0L57.64,373S39,333.46,32.06,337.68Z" transform="translate(0 0)"/><path class="cls-9" d="M171.9,405.62H4.13S8,383.46,33.07,390.94c0,0-2.27-13.33,4.55-20.16s16.26-2.93,16.26-2.93-4.23-55.48,16.91-57.22c18.8-1.55,16.58,27.65,15,54.63,0,0,7.15-20.16,20.81-16.75s9.1,27.8,9.1,27.8,8.13-6.71,15.61-2.54,6.18,17.5,6.18,17.5S163.58,378.27,171.9,405.62Z" transform="translate(0 0)"/><path class="cls-2" d="M66.24,258s-8.64-6.9-6.51-8.91C62,247,66.24,252,66.24,252s-2.17-10.32,1-10.94,5,9.54,5,9.54,2.38-9.88,5.85-9.22-.87,10.63-.87,10.63,6-4.39,7.27-2.28C86,252.32,76.8,258,76.8,258Z" transform="translate(0 0)"/><path class="cls-8" d="M66.45,311.22H51.76a8.6,8.6,0,0,1-8.61-8.6V276.11a9.78,9.78,0,0,0-9.75-9.76h0a9.79,9.79,0,0,0-9.76,9.76v24.38a30.24,30.24,0,0,0,30.24,30.24H66.45A9.78,9.78,0,0,0,76.21,321h0A9.79,9.79,0,0,0,66.45,311.22Z" transform="translate(0 0)"/><path class="cls-8" d="M77,295.94h14.7a8.6,8.6,0,0,0,8.6-8.6V260.82a9.78,9.78,0,0,1,9.75-9.75h0a9.78,9.78,0,0,1,9.76,9.75v24.39a30.24,30.24,0,0,1-30.24,30.24H77a9.78,9.78,0,0,1-9.76-9.75h0A9.79,9.79,0,0,1,77,295.94Z" transform="translate(0 0)"/><path class="cls-7" d="M70.87,254h.93a12,12,0,0,1,12,12V397.08a0,0,0,0,1,0,0H58.87a0,0,0,0,1,0,0V266A12,12,0,0,1,70.87,254Z"/><path class="cls-10" d="M199.38,405.38q-1.24-18.28-1.63-36.6c-.37-17.46,6.14-40.47,21-53.95,12.15-11,28.48-12.23,28.85-20.43.45-10.17-8.31-18.15-10.11-27.86-1.68-9,4.46-18.12,14.39-22.9,11-5.31,21.37-5.81,24-17.29,2.69-11.78,4.63-40,24.23-43.25,14.82-2.44,22.22,12.62,26.6,20.8a9.66,9.66,0,0,0,1.93,2.75c4.62,4.17,13.59.95,19.56,1.59,7.77.83,13.62,4.48,15.22,10.6,1.77,6.77-1.55,13.78-2.61,20.49-1.12,7.17-1.05,14.34,1.24,21.38,2.87,8.82,13.19,14,18.72,21.68a35.58,35.58,0,0,1,6.52,25c-.79,7-7.77,23.34,5.11,26.22,18.64,4.16,25.41,19.42,25.41,72Z" transform="translate(0 0)"/><path class="cls-7" d="M432.11,327.19c-8-5.18-28.24,33.22-28.24,33.22l3.68,2.53h0Z" transform="translate(0 0)"/><path class="cls-8" d="M432.11,327.19l-24.56,35.75h0l4,2.73S439,331.61,432.11,327.19Z" transform="translate(0 0)"/><path class="cls-7" d="M406,310.8c-9.55-.52-8.09,42.84-8.09,42.84l4.45.38h0Z" transform="translate(0 0)"/><path class="cls-8" d="M406,310.8,402.34,354h0l4.8.4S414.11,311.24,406,310.8Z" transform="translate(0 0)"/><path class="cls-7" d="M448.8,356.43c-4.69-8.35-40.51,16.13-40.51,16.13l2.07,4h0Z" transform="translate(0 0)"/><path class="cls-8" d="M448.8,356.43l-38.44,20.09h0l2.23,4.27S452.78,363.53,448.8,356.43Z" transform="translate(0 0)"/><path class="cls-9" d="M455.45,405.75s-1-14.87-15-12.49c0,0,2.95-16.18-7.13-19.76s-19,7.27-19,7.27,6.39-30.3-7.63-37.32-29.63,13.47-29.3,29.73c0,0-14.31-11.49-18.86,7.59,0,0-3-16.7-25.36-22.55-32.89-8.6-40.75,17.49-62,47.53Z" transform="translate(0 0)"/><circle class="cls-11" cx="366.43" cy="66.38" r="33.05"/><path class="cls-12" d="M310.06,100.91H422.81s-3.67-24.1-32.62-26.23c-22-1.62-32.42,12.9-32.42,12.9a15.77,15.77,0,0,0-15.37-5.4c-11.45,2.26-13.81,9.3-13.81,9.3S315.7,86.09,310.06,100.91Z" transform="translate(0 0)"/><path class="cls-13" d="M292.3,67.12H138.15a12,12,0,0,0-12,12V393.75a12,12,0,0,0,12,12H292.3a12,12,0,0,0,12-12V79.12A12,12,0,0,0,292.3,67.12Zm3.33,323a7,7,0,0,1-7,7H141.82a7,7,0,0,1-7-7V82.79a7,7,0,0,1,7-7H288.63a7,7,0,0,1,7,7Z" transform="translate(0 0)"/><path class="cls-14" d="M215.22,39.61l-106.32.1s2.58-22.44,23.72-14.33c0,0-2.62-21.78,16.45-25,18.39-3.15,21.26,17.21,21.26,17.21s4-7.23,12.36-3.26c6.83,3.25,6.51,13,6.51,13S205.45,19.79,215.22,39.61Z" transform="translate(0 0)"/><path class="cls-12" d="M158.19,113.51H24.37a.73.73,0,0,1-.72-.85c.82-4.68,6-26.74,30.2-17.43,0,0-3.32-27.84,21.05-32,23.5-4,27.15,22,27.15,22s5.12-9.24,15.79-4.16c8.72,4.16,8.31,16.62,8.31,16.62s20.18-9.28,32.69,14.72A.73.73,0,0,1,158.19,113.51Z" transform="translate(0 0)"/><path class="cls-6" d="M356.46,124.14H427a2.77,2.77,0,0,1,2.76,2.76v52.58a2.78,2.78,0,0,1-2.76,2.76H390.52l-17.36,12.3a1.26,1.26,0,0,1-1.93-1.42l3.51-10.88H356.46a2.77,2.77,0,0,1-2.75-2.76V126.9A2.76,2.76,0,0,1,356.46,124.14Z" transform="translate(0 0)"/><path class="cls-15" d="M382,137.3a11,11,0,0,1,9.92,6.33,10.95,10.95,0,0,1,20.87,4.63c0,13.39-20.87,26.23-20.87,26.23S371,160.35,371,148.26A11,11,0,0,1,382,137.3Z" transform="translate(0 0)"/><path class="cls-6" d="M445.75,405.75c0-7.08,1.89-19.11-11.8-26.54-15.39-8.35,6.74-45.13-15.63-54.56-27.63-11.65-16-45-41.92-37.65-24.84,7-8.2,51.64-29,58.36s-27.92,16.34-25,25.67-22.11,14.7-22.11,34.91" transform="translate(0 0)"/><path class="cls-8" d="M299.3,405.62s3.9-10.84,15.17-6.5c0,0-2.6-32.52,19.08-33.82s20.37,26.88,20.37,26.88,4.34-5.63,11.27-3.46,6.07,10.83,6.07,10.83,8.11-9.52,15.61-7.37,2.17,9.54,2.17,9.54,15.61-5.2,19.07,3.9Z" transform="translate(0 0)"/><path class="cls-8" d="M154.24,405.62H44.77s1.75-16.93,14.46-20.37a20.25,20.25,0,0,1,22.61,7.88s1.73-16.29,13.87-16.35,14.74,16.35,14.74,16.35,6.51-8.75,15.39-5.33c6.42,2.46,5.86,11.42,5.86,11.42S145.14,393.75,154.24,405.62Z" transform="translate(0 0)"/><path class="cls-6" d="M112.62,152.69H42.12a2.76,2.76,0,0,0-2.76,2.75V208a2.77,2.77,0,0,0,2.76,2.76H78.56l17.37,12.3a1.25,1.25,0,0,0,1.92-1.41l-3.51-10.89h18.28a2.77,2.77,0,0,0,2.76-2.76V155.44A2.76,2.76,0,0,0,112.62,152.69Z" transform="translate(0 0)"/><path class="cls-11" d="M77.86,164.58l4.46,9a1.86,1.86,0,0,0,1.38,1l10,1.45a1.82,1.82,0,0,1,1,3.11l-7.22,7a1.81,1.81,0,0,0-.52,1.62l1.7,9.94A1.83,1.83,0,0,1,86,199.72L77.07,195a1.83,1.83,0,0,0-1.7,0l-8.92,4.7a1.84,1.84,0,0,1-2.66-1.93l1.71-9.94a1.84,1.84,0,0,0-.53-1.62l-7.22-7a1.82,1.82,0,0,1,1-3.11l10-1.45a1.84,1.84,0,0,0,1.37-1l4.46-9A1.83,1.83,0,0,1,77.86,164.58Z" transform="translate(0 0)"/><path class="cls-16" d="M335.61,384.7l5.5,8.06-3.52,9.84a1.18,1.18,0,0,0,1.87,1.3l12.45-8.82a1.58,1.58,0,0,0,.39-2.17l-10-14.62Z" transform="translate(0 0)"/><path class="cls-13" d="M347.37,386.14v9.76l-12.83,6.15a1.18,1.18,0,0,0,.81,2.12l21.07-.27a1.58,1.58,0,0,0,1.55-1.57v-17.7Z" transform="translate(0 0)"/><path class="cls-17" d="M56.16,398.89l-3.75.17a1,1,0,0,1-1.09-1.12,2,2,0,0,0-1.16-2.07c-3.14-1.51-6.37,3.61-9.07,3.86-2.3.21-6.64-.79-9.65.2-3.19,1-4.46,4.47-3.89,5s4.55-1.74,7.24-.79c1.64.57,8.26,2,10.88,1.84,3.6-.25,10.53-.91,10.53-.91Z" transform="translate(0 0)"/><path class="cls-8" d="M295.23,402.86l5.33-13.21a2.3,2.3,0,0,1,2.5-1.41l3.46.55a1.49,1.49,0,0,1,1.12,2.09l-6.31,13.72" transform="translate(0 0)"/><polygon class="cls-11" points="297 401.7 301.76 389.37 306.9 390.17 301.21 402.42 297 401.7"/><path class="cls-18" d="M260.6,392.54l2,2.47a1.39,1.39,0,0,0,.95.51c3.49.31,21.49,2.89,30.79,5.05l3.29-3.73-2.43,7.3L257,400.57l-2.71-6.84Z" transform="translate(0 0)"/><path class="cls-19" d="M257.49,380.42l4.28,12.44a.87.87,0,0,1-.6,1.12l-5.5,1.49Z" transform="translate(0 0)"/><path class="cls-17" d="M250.48,372.28l22.76-14.36c13.86-6.48,22.48,6.92,15.52,13.41l-9.13,6.93c-9.43,5.94-11.71,4.55-14.23-.08l-10.44,3-6.59-7.06Z" transform="translate(0 0)"/><path class="cls-18" d="M265.4,378.18l-4.8,1.36a31.21,31.21,0,0,1,3.13-5.08A21.42,21.42,0,0,0,265.4,378.18Z" transform="translate(0 0)"/><circle class="cls-13" cx="278.62" cy="375.31" r="0.64"/><circle class="cls-15" cx="274.36" cy="376.49" r="1.74"/><rect class="cls-15" x="278.83" y="376.9" width="1.3" height="2.66" rx="0.6" ry="0.6" transform="translate(159.2 832.87) rotate(-128.72)"/><path class="cls-20" d="M279.48,371.72a2.77,2.77,0,0,1,2.45.93" transform="translate(0 0)"/><path class="cls-21" d="M256.79,395.16l.73-15.49s-5.84-2.91-5.75-5.59c0,0-2.71-3-12.9,4.26s-15.6,15.72-25.14,15.83-13.22-1.09-13.22-1.09-2.39,9,1.08,12.79h55.28Z" transform="translate(0 0)"/><path class="cls-17" d="M299.24,405.87H255.67c-4.44,0-7.58-1.08-8.88-3.68a26.78,26.78,0,0,1-1.52-3.35l11.52-3.68s0,2.15.42,2.56c.77.78,2.66.67,2.66.67s13.53.68,18.78,1.41c6.18.87,21.14,3.62,21.14,3.62s3.74-6.5,4.92-6.17S305.64,404.9,299.24,405.87Z" transform="translate(0 0)"/><path class="cls-13" d="M286.67,374.08c-2.11-2.89-1.73-11.05-1.73-11.05s-3.9,5.12-13.77,6.75-23.41,5-29.7,9.89-13.87,20.89-28,21-13.76-13.44-6.72-21.13,15-12.12,26-13c6.4-.49,13.06,1.22,22.11-4.71,11.93-7.81,20.8-11.15,30.24-6.94a13.11,13.11,0,0,1,8,13.39C292.61,373.28,287.9,375.76,286.67,374.08Z" transform="translate(0 0)"/><path class="cls-17" d="M95.87,330.54,94,327.3a1.05,1.05,0,0,1,.5-1.49,2,2,0,0,0,1.31-2c-.1-3.48-6.13-4-7.59-6.29-1.25-2-2.34-6.27-4.6-8.49s-6-1.92-6.24-1.16,3.63,3.25,4,6.08c.24,1.72,2,8.26,3.35,10.51,1.87,3.08,5.64,8.94,5.64,8.94Z" transform="translate(0 0)"/><polygon class="cls-22" points="142.48 397.08 95.16 328.55 88.22 331.8 126.37 402.85 142.48 397.08"/><path class="cls-11" d="M200.25,394.22s-9.07-12-20.67-12c-14.9,0-17,8.5-30.45,8.82-9.36.23-92.78,6.72-94.29,7.27v7.58H201.59Z" transform="translate(0 0)"/><circle class="cls-11" cx="173.99" cy="182.94" r="21.46"/><path class="cls-11" d="M209.11,168.29l1.22,2.47a.52.52,0,0,0,.37.27l2.72.39a.5.5,0,0,1,.28.85l-2,1.92a.48.48,0,0,0-.14.44l.46,2.71a.49.49,0,0,1-.72.52l-2.43-1.27a.49.49,0,0,0-.47,0L206,177.86a.49.49,0,0,1-.72-.52l.46-2.71a.48.48,0,0,0-.14-.44l-2-1.92a.5.5,0,0,1,.28-.85l2.72-.39a.52.52,0,0,0,.37-.27l1.22-2.47A.5.5,0,0,1,209.11,168.29Z" transform="translate(0 0)"/><path class="cls-11" d="M223.77,168.29l1.22,2.47a.52.52,0,0,0,.37.27l2.72.39a.5.5,0,0,1,.28.85l-2,1.92a.48.48,0,0,0-.14.44l.46,2.71a.49.49,0,0,1-.72.52l-2.43-1.27a.49.49,0,0,0-.47,0l-2.43,1.27a.49.49,0,0,1-.72-.52l.46-2.71a.48.48,0,0,0-.14-.44l-2-1.92a.5.5,0,0,1,.28-.85l2.72-.39a.52.52,0,0,0,.37-.27l1.22-2.47A.5.5,0,0,1,223.77,168.29Z" transform="translate(0 0)"/><path class="cls-11" d="M238.43,168.29l1.22,2.47a.52.52,0,0,0,.37.27l2.72.39a.5.5,0,0,1,.28.85l-2,1.92a.51.51,0,0,0-.15.44l.47,2.71a.49.49,0,0,1-.72.52l-2.44-1.27a.47.47,0,0,0-.46,0l-2.43,1.27a.49.49,0,0,1-.72-.52l.46-2.71a.48.48,0,0,0-.14-.44l-2-1.92a.5.5,0,0,1,.28-.85L236,171a.52.52,0,0,0,.37-.27l1.22-2.47A.5.5,0,0,1,238.43,168.29Z" transform="translate(0 0)"/><path class="cls-11" d="M253.09,168.29l1.21,2.47a.56.56,0,0,0,.38.27l2.72.39a.5.5,0,0,1,.27.85l-2,1.92a.51.51,0,0,0-.15.44l.47,2.71a.49.49,0,0,1-.72.52l-2.44-1.27a.47.47,0,0,0-.46,0L250,177.86a.49.49,0,0,1-.72-.52l.46-2.71a.48.48,0,0,0-.14-.44l-2-1.92a.5.5,0,0,1,.28-.85l2.72-.39a.52.52,0,0,0,.37-.27l1.22-2.47A.5.5,0,0,1,253.09,168.29Z" transform="translate(0 0)"/><path class="cls-11" d="M267.75,168.29l1.21,2.47a.56.56,0,0,0,.38.27l2.72.39a.5.5,0,0,1,.27.85l-2,1.92a.51.51,0,0,0-.15.44l.47,2.71a.49.49,0,0,1-.72.52l-2.44-1.27a.47.47,0,0,0-.46,0l-2.43,1.27a.49.49,0,0,1-.72-.52l.46-2.71a.51.51,0,0,0-.14-.44l-2-1.92a.5.5,0,0,1,.28-.85l2.71-.39a.52.52,0,0,0,.38-.27l1.21-2.47A.5.5,0,0,1,267.75,168.29Z" transform="translate(0 0)"/><line class="cls-20" x1="203.48" y1="183.97" x2="272.48" y2="183.97"/><line class="cls-20" x1="203.48" y1="188.6" x2="272.48" y2="188.6"/><line class="cls-20" x1="203.48" y1="193.23" x2="272.48" y2="193.23"/><line class="cls-20" x1="203.48" y1="197.86" x2="272.48" y2="197.86"/><g class="cls-23"><path class="cls-24" d="M184.54,190.37c-1.64-2.09-2.06-2.85-1.73-5.57s-1.39-7.3-1.39-7.3l-12.43.84-1.62-.84s-2,6.47-1.17,9.41-4,3.19-4.49,6.31c-.19,1.3.76,3.5,1.93,5.62h.29a6.88,6.88,0,0,0,6.88-6.88,7,7,0,0,0-.13-1.31,9.16,9.16,0,0,0,3,.51h1.64a9.33,9.33,0,0,0,1.92-.2,6.63,6.63,0,0,0-.08,1,6.88,6.88,0,0,0,6.88,6.88,6.78,6.78,0,0,0,1.2-.11A7.9,7.9,0,0,0,184.54,190.37Z" transform="translate(0 0)"/><path class="cls-13" d="M190.94,192a6.87,6.87,0,0,0-4.4-6.4,2.76,2.76,0,0,0,.13-.82,3,3,0,0,0-2-2.84V174a9.38,9.38,0,0,0-9.35-9.35H173.7a9.37,9.37,0,0,0-9.34,9.35v7.71a3,3,0,0,0-3,3,3.12,3.12,0,0,0,.11.82,6.87,6.87,0,0,0,2.21,13.27c-1.17-2.12-2.12-4.32-1.93-5.62.46-3.12,5.34-3.36,4.49-6.31s1.17-9.41,1.17-9.41l1.62.84,12.43-.84s1.71,4.59,1.39,7.3.09,3.48,1.73,5.57a7.9,7.9,0,0,1,.72,8.37A6.89,6.89,0,0,0,190.94,192Z" transform="translate(0 0)"/><path class="cls-25" d="M174,192.87c-11.71,0-16,8.35-16,8.35l16.95,7.18,15.42-7.18S187.25,192.87,174,192.87Z" transform="translate(0 0)"/><path class="cls-17" d="M174.42,195.76a7.22,7.22,0,0,0,5.22-2,6.47,6.47,0,0,1-.51-1.66c-.66-4-.84-6.28-.84-6.28l-7.82.31s0,5.21-1.48,7.62C169,193.73,170.49,195.76,174.42,195.76Z" transform="translate(0 0)"/><path class="cls-17" d="M170.53,170.91a20.42,20.42,0,0,1-3,6.38,1.22,1.22,0,0,0-.2.67v3.15a7.05,7.05,0,0,0,7,7h0a7.05,7.05,0,0,0,7-7v-5.22a1.16,1.16,0,0,0-1.11-1.16c-6.47-.39-9.29-3.36-9.71-3.84C170.58,170.86,170.54,170.88,170.53,170.91Z" transform="translate(0 0)"/><circle class="cls-15" cx="170.11" cy="180.57" r="1.07"/><circle class="cls-15" cx="178.68" cy="180.57" r="1.07"/><rect class="cls-15" x="174.12" y="178.69" width="0.8" height="1.63" rx="0.36" ry="0.36"/><path class="cls-26" d="M176.69,181h-4.6s.62,2.29,2.3,2.29S176.69,181,176.69,181Z" transform="translate(0 0)"/><path class="cls-27" d="M169.31,178.34a1.72,1.72,0,0,1,1.32-.84,1.26,1.26,0,0,1,1.2.84" transform="translate(0 0)"/><path class="cls-27" d="M177,178.34a1.72,1.72,0,0,1,1.33-.84,1.26,1.26,0,0,1,1.19.84" transform="translate(0 0)"/><path class="cls-18" d="M170.45,186.91a30.61,30.61,0,0,1-.34,3.33s2.44.91,4.28-2.1C174.39,188.14,171.22,188.11,170.45,186.91Z" transform="translate(0 0)"/><path class="cls-27" d="M168.53,176.79a2.52,2.52,0,0,1,2.09-.95" transform="translate(0 0)"/><path class="cls-27" d="M178.08,175.9a5.25,5.25,0,0,1,2.19.84" transform="translate(0 0)"/></g><circle class="cls-25" cx="173.99" cy="248.91" r="21.46"/><path class="cls-11" d="M209.11,234.27l1.22,2.46a.47.47,0,0,0,.37.27l2.72.4a.5.5,0,0,1,.28.85l-2,1.92a.48.48,0,0,0-.14.44l.46,2.71a.5.5,0,0,1-.72.52l-2.43-1.28a.55.55,0,0,0-.47,0L206,243.84a.5.5,0,0,1-.72-.52l.46-2.71a.48.48,0,0,0-.14-.44l-2-1.92a.5.5,0,0,1,.28-.85l2.72-.4a.47.47,0,0,0,.37-.27l1.22-2.46A.5.5,0,0,1,209.11,234.27Z" transform="translate(0 0)"/><path class="cls-11" d="M223.77,234.27l1.22,2.46a.47.47,0,0,0,.37.27l2.72.4a.5.5,0,0,1,.28.85l-2,1.92a.48.48,0,0,0-.14.44l.46,2.71a.5.5,0,0,1-.72.52l-2.43-1.28a.55.55,0,0,0-.47,0l-2.43,1.28a.5.5,0,0,1-.72-.52l.46-2.71a.48.48,0,0,0-.14-.44l-2-1.92a.5.5,0,0,1,.28-.85l2.72-.4a.47.47,0,0,0,.37-.27l1.22-2.46A.5.5,0,0,1,223.77,234.27Z" transform="translate(0 0)"/><path class="cls-11" d="M238.43,234.27l1.22,2.46a.47.47,0,0,0,.37.27l2.72.4a.5.5,0,0,1,.28.85l-2,1.92a.51.51,0,0,0-.15.44l.47,2.71a.5.5,0,0,1-.72.52l-2.44-1.28a.53.53,0,0,0-.46,0l-2.43,1.28a.5.5,0,0,1-.72-.52l.46-2.71a.48.48,0,0,0-.14-.44l-2-1.92a.5.5,0,0,1,.28-.85L236,237a.47.47,0,0,0,.37-.27l1.22-2.46A.5.5,0,0,1,238.43,234.27Z" transform="translate(0 0)"/><path class="cls-11" d="M253.09,234.27l1.21,2.46a.5.5,0,0,0,.38.27l2.72.4a.5.5,0,0,1,.27.85l-2,1.92a.51.51,0,0,0-.15.44l.47,2.71a.5.5,0,0,1-.72.52l-2.44-1.28a.53.53,0,0,0-.46,0L250,243.84a.5.5,0,0,1-.72-.52l.46-2.71a.48.48,0,0,0-.14-.44l-2-1.92a.5.5,0,0,1,.28-.85l2.72-.4a.47.47,0,0,0,.37-.27l1.22-2.46A.5.5,0,0,1,253.09,234.27Z" transform="translate(0 0)"/><path class="cls-11" d="M267.75,234.27l1.21,2.46a.5.5,0,0,0,.38.27l2.72.4a.5.5,0,0,1,.27.85l-2,1.92a.51.51,0,0,0-.15.44l.47,2.71a.5.5,0,0,1-.72.52l-2.44-1.28a.53.53,0,0,0-.46,0l-2.43,1.28a.5.5,0,0,1-.72-.52l.46-2.71a.51.51,0,0,0-.14-.44l-2-1.92a.5.5,0,0,1,.28-.85l2.71-.4a.47.47,0,0,0,.38-.27l1.21-2.46A.5.5,0,0,1,267.75,234.27Z" transform="translate(0 0)"/><line class="cls-20" x1="203.48" y1="249.95" x2="272.48" y2="249.95"/><line class="cls-20" x1="203.48" y1="254.58" x2="272.48" y2="254.58"/><line class="cls-20" x1="203.48" y1="259.21" x2="272.48" y2="259.21"/><line class="cls-20" x1="203.48" y1="263.84" x2="272.48" y2="263.84"/><g class="cls-28"><path class="cls-11" d="M186.54,251.55c.08-.27.9-3.4-1.85-3.66V240a9.37,9.37,0,0,0-9.35-9.34H173.7a9.36,9.36,0,0,0-9.34,9.34v7.71c-3.67,0-3,3.6-2.93,3.86-2.52,3.75,1.3,7.66,7.56,7.52,5-.11,6.74-.29,10.33-.21C190.53,259.12,189.11,252.54,186.54,251.55Z" transform="translate(0 0)"/><path class="cls-29" d="M174.31,259.07c-5.1,0-7.27-.92-6.94-3.14s-1.53-4.5-1.53-4.5c2.28-1,.81-5.62,1.62-7.94a3.15,3.15,0,0,1,3-2.19h8.15s2.25-.62,2.77.58c1,2.25-.39,8.52,1.88,9.55,0,0-1.86,2.28-1.52,4.5s-1.84,3.14-6.95,3.14Z" transform="translate(0 0)"/><path class="cls-2" d="M174,258.85c-11.71,0-16,8.34-16,8.34l16.95,7.19,15.42-7.19S187.25,258.85,174,258.85Z" transform="translate(0 0)"/><path class="cls-17" d="M174.42,266.12c3.43,0,5.22-6.4,5.22-6.4a6.47,6.47,0,0,1-.51-1.66c-.66-4-.84-6.28-.84-6.28l-7.82.31s0,5.2-1.48,7.62C169,259.71,170.49,266.12,174.42,266.12Z" transform="translate(0 0)"/><path class="cls-17" d="M170.53,236.89a20.24,20.24,0,0,1-3,6.37,1.26,1.26,0,0,0-.2.68v3.15a7,7,0,0,0,7,7h0a7,7,0,0,0,7-7v-5.21h0a1.18,1.18,0,0,0-1.11-1.17c-6.47-.39-9.29-3.36-9.71-3.83C170.58,236.84,170.54,236.85,170.53,236.89Z" transform="translate(0 0)"/><circle class="cls-15" cx="170.11" cy="246.55" r="1.07"/><circle class="cls-13" cx="170.5" cy="244.28" r="0.39"/><circle class="cls-13" cx="178.68" cy="244.28" r="0.39"/><circle class="cls-15" cx="178.68" cy="246.55" r="1.07"/><rect class="cls-15" x="174.12" y="244.67" width="0.8" height="1.63" rx="0.36" ry="0.36"/><path class="cls-26" d="M176.69,247h-4.6s.62,2.29,2.3,2.29S176.69,247,176.69,247Z" transform="translate(0 0)"/><path class="cls-18" d="M170.45,252.89a30.61,30.61,0,0,1-.34,3.33s2.44.91,4.28-2.11C174.39,254.11,171.22,254.09,170.45,252.89Z" transform="translate(0 0)"/><path class="cls-30" d="M168.53,242.77a2.49,2.49,0,0,1,2.09-1" transform="translate(0 0)"/><path class="cls-30" d="M178.08,241.87a5.43,5.43,0,0,1,2.19.84" transform="translate(0 0)"/></g><circle class="cls-11" cx="173.99" cy="307.47" r="21.46"/><path class="cls-11" d="M209.11,292.82l1.22,2.46a.51.51,0,0,0,.37.28l2.72.39a.5.5,0,0,1,.28.85l-2,1.92a.48.48,0,0,0-.14.44l.46,2.71a.5.5,0,0,1-.72.52l-2.43-1.28a.55.55,0,0,0-.47,0L206,302.39a.5.5,0,0,1-.72-.52l.46-2.71a.48.48,0,0,0-.14-.44l-2-1.92a.5.5,0,0,1,.28-.85l2.72-.39a.51.51,0,0,0,.37-.28l1.22-2.46A.5.5,0,0,1,209.11,292.82Z" transform="translate(0 0)"/><path class="cls-11" d="M223.77,292.82l1.22,2.46a.51.51,0,0,0,.37.28l2.72.39a.5.5,0,0,1,.28.85l-2,1.92a.48.48,0,0,0-.14.44l.46,2.71a.5.5,0,0,1-.72.52l-2.43-1.28a.55.55,0,0,0-.47,0l-2.43,1.28a.5.5,0,0,1-.72-.52l.46-2.71a.48.48,0,0,0-.14-.44l-2-1.92a.5.5,0,0,1,.28-.85l2.72-.39a.51.51,0,0,0,.37-.28l1.22-2.46A.5.5,0,0,1,223.77,292.82Z" transform="translate(0 0)"/><path class="cls-11" d="M238.43,292.82l1.22,2.46a.51.51,0,0,0,.37.28l2.72.39a.5.5,0,0,1,.28.85l-2,1.92a.51.51,0,0,0-.15.44l.47,2.71a.5.5,0,0,1-.72.52l-2.44-1.28a.53.53,0,0,0-.46,0l-2.43,1.28a.5.5,0,0,1-.72-.52l.46-2.71a.48.48,0,0,0-.14-.44l-2-1.92a.5.5,0,0,1,.28-.85l2.72-.39a.51.51,0,0,0,.37-.28l1.22-2.46A.5.5,0,0,1,238.43,292.82Z" transform="translate(0 0)"/><path class="cls-11" d="M253.09,292.82l1.21,2.46a.54.54,0,0,0,.38.28l2.72.39a.5.5,0,0,1,.27.85l-2,1.92a.51.51,0,0,0-.15.44l.47,2.71a.5.5,0,0,1-.72.52l-2.44-1.28a.53.53,0,0,0-.46,0L250,302.39a.5.5,0,0,1-.72-.52l.46-2.71a.48.48,0,0,0-.14-.44l-2-1.92a.5.5,0,0,1,.28-.85l2.72-.39a.51.51,0,0,0,.37-.28l1.22-2.46A.5.5,0,0,1,253.09,292.82Z" transform="translate(0 0)"/><path class="cls-11" d="M267.75,292.82l1.21,2.46a.54.54,0,0,0,.38.28l2.72.39a.5.5,0,0,1,.27.85l-2,1.92a.51.51,0,0,0-.15.44l.47,2.71a.5.5,0,0,1-.72.52l-2.44-1.28a.53.53,0,0,0-.46,0l-2.43,1.28a.5.5,0,0,1-.72-.52l.46-2.71a.51.51,0,0,0-.14-.44l-2-1.92a.5.5,0,0,1,.28-.85l2.71-.39a.51.51,0,0,0,.38-.28l1.21-2.46A.5.5,0,0,1,267.75,292.82Z" transform="translate(0 0)"/><line class="cls-20" x1="203.48" y1="308.5" x2="272.48" y2="308.5"/><line class="cls-20" x1="203.48" y1="313.13" x2="272.48" y2="313.13"/><line class="cls-20" x1="203.48" y1="317.76" x2="272.48" y2="317.76"/><line class="cls-20" x1="203.48" y1="322.39" x2="272.48" y2="322.39"/><circle class="cls-2" cx="173.99" cy="307.47" r="21.46"/><g class="cls-31"><path class="cls-13" d="M184.69,298.54c-.5-5.52-4.21-9.35-9.35-9.35H173.7c-5.14,0-8.53,2.53-9.34,9.35-.84,7-2.61,24.83-2.61,24.83l25.28-.1S185.19,304.05,184.69,298.54Z" transform="translate(0 0)"/><path class="cls-17" d="M158,325.75l7,2.95a71.18,71.18,0,0,0-.53-9A16.38,16.38,0,0,0,158,325.75Z" transform="translate(0 0)"/><path class="cls-17" d="M183.38,319.21a72.3,72.3,0,0,0-.59,10.05l7.55-3.51S188.82,321.67,183.38,319.21Z" transform="translate(0 0)"/><path class="cls-11" d="M174,317.4a19.83,19.83,0,0,0-9.58,2.3,71.18,71.18,0,0,1,.53,9l10,4.23,7.87-3.67a72.3,72.3,0,0,1,.59-10.05A22.67,22.67,0,0,0,174,317.4Z" transform="translate(0 0)"/><path class="cls-17" d="M174.35,322.39c3.43,0,5.31-4.4,5.31-4.4a4.51,4.51,0,0,1-.53-1.38c-.66-4-.84-6.28-.84-6.28l-7.82.31s.06,4.9-1.42,7.31C169.05,318,170.42,322.39,174.35,322.39Z" transform="translate(0 0)"/><path class="cls-17" d="M173.21,295c-.51,2.64-5,2.68-5.79,6.58a5.49,5.49,0,0,0,0,.91v3.15a7,7,0,0,0,7,7h0a7,7,0,0,0,7-7v-5.22c0-.62.13-1.14-.49-1.16C176.68,299.12,173.21,295,173.21,295Z" transform="translate(0 0)"/><circle class="cls-15" cx="170.11" cy="305.84" r="1.07"/><circle class="cls-15" cx="178.68" cy="305.84" r="1.07"/><rect class="cls-15" x="174.12" y="303.96" width="0.8" height="1.63" rx="0.36" ry="0.36"/><path class="cls-26" d="M176.69,306.3h-4.6s.62,2.29,2.3,2.29S176.69,306.3,176.69,306.3Z" transform="translate(0 0)"/><path class="cls-27" d="M177.4,303.47a1.2,1.2,0,0,1,1.11-.71,1.13,1.13,0,0,1,1,.71" transform="translate(0 0)"/><circle class="cls-13" cx="170.11" cy="303.22" r="0.39"/><path class="cls-18" d="M170.45,311.44a30.61,30.61,0,0,1-.34,3.33s2.44.91,4.28-2.11C174.39,312.66,171.22,312.64,170.45,311.44Z" transform="translate(0 0)"/><path class="cls-27" d="M168.53,302.06a2.49,2.49,0,0,1,2.09-.95" transform="translate(0 0)"/><path class="cls-27" d="M178.08,301.17a5.13,5.13,0,0,1,2.19.83" transform="translate(0 0)"/></g><text class="cls-32" transform="translate(156.87 138.97)">REVIEWS</text><path class="cls-17" d="M305.86,283.19c12.1-10.23,29.72-25.1,29.72-25.1l-10.52-9.18-24.85,30.56-7.62,7.58a11.37,11.37,0,0,1-4.14,2l-4.26,1.05a.83.83,0,0,0-.62.94.84.84,0,0,0,.94.68l3.57-.53-7.8,5.78a3.82,3.82,0,1,0,5.08,5.65l6.76-7.33a21.8,21.8,0,0,0,1.88-1.92,9.94,9.94,0,0,1,.83-.62Z" transform="translate(0 0)"/><path class="cls-33" d="M328.31,293.21s-11.05,37.07-11.49,41.62c-.37,3.93,15.53,44,19.91,55a2.84,2.84,0,0,0,3.82,1.53l8.89-4a2.87,2.87,0,0,0,1.55-3.43l-14.44-47.57L351.29,303Z" transform="translate(0 0)"/><path class="cls-25" d="M362.56,291v96.61a2.89,2.89,0,0,1-2.89,2.89H345.62a2.9,2.9,0,0,1-2.89-2.78l-2.93-80.89S329.47,301,326.65,291Z" transform="translate(0 0)"/><path class="cls-2" d="M341.75,219.38c9.75-3.28,26.4,5.33,26.4,26.58,0,13-.19,38.58,0,46.34a1.73,1.73,0,0,1-1.74,1.78H323.14a1.73,1.73,0,0,1-1.74-1.78c.19-7.31,1-35.1,1.93-46.34C324.41,233,328.37,223.88,341.75,219.38Z" transform="translate(0 0)"/><path class="cls-17" d="M348.58,219.63c-.45-1.79-2.36-14.16-3.43-20.18l-.84-5.45s-1.64-10.58-12.64-9.5c-7,.69-11.42,6.56-11.42,6.56l1.85,13.43c1,8.08,4,11.48,9.44,9.94,0,0,1.47,7.32,2,9.77.7,3.25,2.09,5.48,7.64,4.6C348.75,227.61,349.45,223,348.58,219.63Z" transform="translate(0 0)"/><path class="cls-18" d="M331.81,215.76l.72,3.62s7.7-1.66,6.83-8.22A11.17,11.17,0,0,1,331.81,215.76Z" transform="translate(0 0)"/><path class="cls-13" d="M334.58,199.6c.19,3.06.89,5.83-4.1,5.44-3.13-.25-4-1.4-6.29-2.11a3.51,3.51,0,0,0-2.32-.08s0,9.34,5.6,12.36c4.08,2.2,11,.16,12.06-4.64.83-3.71-2.71-10.46-2.6-12.25s2.65-3.95,4.71-3.08,2.39,4.43.87,5.68a8.84,8.84,0,0,1-1.25.86,2,2,0,0,0-.83,2.41c1,2.52,3.1,6.82,6,7,4.17.22,3.25-10.07,2.33-16.39s-1.22-13.93-7.81-16.37c-5.42-2-16.83,2.47-20.74,3.77s-5.38,1.63-4.78,4.28c0,0-2,.6-1.68,2.44S317,190,317,190a2.11,2.11,0,0,0,1.35,2.34c1.27.49,9-2.6,12.73-4.14a1.69,1.69,0,0,1,2.33,1.32C333.81,192.07,334.37,196.44,334.58,199.6Z" transform="translate(0 0)"/><circle class="cls-13" cx="326.99" cy="198.96" r="0.64"/><circle class="cls-15" cx="329.42" cy="202.66" r="1.74"/><rect class="cls-15" x="320.7" y="199.34" width="1.3" height="2.66" rx="0.6" ry="0.6" transform="translate(-30.3 59.69) rotate(-10.14)"/><path class="cls-20" d="M328.7,195.7a2.78,2.78,0,0,0-2.46-.92" transform="translate(0 0)"/><path class="cls-17" d="M322.71,245l-9,4.58s-3.95-3.48-8.3-7.45l-7.27-8.23a11.5,11.5,0,0,1-1.71-4.25l-.79-4.32a.83.83,0,0,0-1.64.22l.31,3.6L289.06,221a3.83,3.83,0,0,0-5.74-.77h0a3.83,3.83,0,0,0-.21,5.5l4.5,4.68a21.17,21.17,0,0,0,1.82,1.9l1.16,1.2c.65.75,1.38,1.7,2.16,2.8l7.28,11h0a114,114,0,0,0,6.66,9.45c5.36,6.49,6.46,7,12.9,3.88s9.48-4.87,9.48-4.87Z" transform="translate(0 0)"/><path class="cls-34" d="M335.58,227.83h0a9,9,0,0,1,9,9v21.25a1.86,1.86,0,0,1-1.86,1.86H328.4a1.86,1.86,0,0,1-1.86-1.86V236.87a9,9,0,0,1,9-9Z" transform="translate(352.98 -170.58) rotate(56.39)"/><path class="cls-7" d="M290.72,67.12s-5.49-9.39-13.05-8.7-8.47,3-8.47,3,1.61-14-8.24-16.56c-9.35-2.39-16,7.1-16,7.1s-1.63-20.27-12.82-17.85C221.53,36.44,224,55.83,224,55.83s-6.76-3.59-13.86-1.07-9.88,12.36-9.88,12.36Z" transform="translate(0 0)"/><path class="cls-9" d="M275.78,67.12S272.1,60.84,267,61.3s-5.67,2-5.67,2,1.07-9.4-5.52-11.09c-6.26-1.6-10.73,4.75-10.73,4.75s-1.09-13.57-8.58-12c-7.09,1.53-5.44,14.51-5.44,14.51a12.69,12.69,0,0,0-9.28-.72c-4.75,1.69-6.61,8.28-6.61,8.28Z" transform="translate(0 0)"/></g></g></svg>